<?xml version="1.0" standalone="no"?>
<!DOCTYPE svg PUBLIC "-//W3C//DTD SVG 1.1//EN" "http://www.w3.org/Graphics/SVG/1.1/DTD/svg11.dtd" >
<svg>
<metadata>
Created by FontForge 20090622 at Mon Feb 20 19:49:54 2017
 By deploy user
Copyright &#194;&#169; 2015 by Connary Fagen. All rights reserved.
</metadata>
<defs>
<font id="VentiCF-Light" horiz-adv-x="564" >
  <font-face 
    font-family="Venti CF Light"
    font-weight="300"
    font-stretch="normal"
    units-per-em="1180"
    panose-1="0 0 4 0 0 0 0 0 0 0"
    ascent="944"
    descent="-236"
    x-height="495"
    cap-height="800"
    bbox="-160 -400 1370 1119"
    underline-thickness="50"
    underline-position="-50"
    unicode-range="U+0020-U+FB02"
  />
<missing-glyph horiz-adv-x="600" 
d="M492 800v-1200h-380v1200h380zM400 720h-198v-40h78v-44h-80v-40h200v40h-80v44h80v40zM320 565h-120v-125h200v41h-80v84zM280 524v-43h-40v43h40zM400 408h-200v-40h80v-44h-80v-40h120v84h80v40zM400 336h-40v-80h-160v-40h200v120zM400 189h-120v-67h40v28h40v-57
h-120v96h-40v-135h200v135zM400 -18h-200v-136h200v136zM360 -58v-56h-120v56h120zM400 -182h-200v-39h84l-84 -57v-39h200v39h-123l84 57h39v39z" />
    <glyph glyph-name="fi" unicode="fi" horiz-adv-x="585" 
d="M500 495q10 0 10 -10v-475q0 -10 -8 -10h-25q-15 0 -15 17v433h-277v-438q0 -12 -9 -12h-25q-14 0 -14 19v431h-93q-9 0 -9 8v23q0 14 14 14h88v106q0 100 56 152t147 52q66 0 122 -37q12 -6 6 -14l-11 -23q-6 -9 -14 -3q-47 31 -102 31q-18 0 -36 -3t-40.5 -13.5
t-39.5 -26.5t-28.5 -46t-11.5 -69v-106h315z" />
    <glyph glyph-name="fl" unicode="fl" horiz-adv-x="623" 
d="M539 800q10 0 10 -10v-779q0 -11 -10 -11h-22q-16 0 -16 18v682q-70 62 -158 62q-18 0 -36.5 -3.5t-41.5 -14t-40 -27.5t-28.5 -47.5t-11.5 -69.5v-105h165q8 0 8 -9v-27q0 -9 -8 -9h-165v-438q0 -12 -9 -12h-25q-14 0 -14 19v431h-93q-9 0 -9 8v23q0 14 14 14h88v105
q0 101 56.5 154.5t148.5 53.5q83 0 159 -57v39q0 10 10 10h28z" />
    <glyph glyph-name="f_f" unicode="ff" horiz-adv-x="777" 
d="M804 768q12 -6 7 -14l-12 -23q-6 -9 -14 -3q-44 31 -102 31q-18 0 -36 -3t-40.5 -13.5t-39.5 -26.5t-28.5 -46t-11.5 -69v-106h165q8 0 8 -9v-27q0 -9 -8 -9h-165v-438q0 -12 -9 -12h-24q-15 0 -15 19v431h-2h-292v-438q0 -12 -9 -12h-25q-14 0 -14 19v431h-93q-9 0 -9 8
v23q0 14 14 14h88v105q0 101 56.5 154.5t148.5 53.5q96 0 178 -72q53 69 162 69q66 0 122 -37zM479 495v106q0 58 20 101q-70 60 -156 60q-18 0 -36.5 -3.5t-41.5 -14t-40 -27.5t-28.5 -47.5t-11.5 -69.5v-105h294z" />
    <glyph glyph-name="f_f_i" unicode="ffi" horiz-adv-x="927" 
d="M842 495q10 0 10 -10v-475q0 -10 -8 -10h-25q-15 0 -15 17v433h-277v-438q0 -12 -9 -12h-25q-14 0 -14 19v431h-2h-292v-438q0 -12 -9 -12h-25q-14 0 -14 19v431h-93q-9 0 -9 8v23q0 14 14 14h88v105q0 101 56.5 154.5t148.5 53.5q96 0 178 -72q53 69 162 69
q66 0 122 -37q12 -6 7 -14l-12 -23q-6 -9 -14 -3q-47 31 -102 31q-18 0 -36 -3t-40.5 -13.5t-39.5 -26.5t-28.5 -46t-11.5 -69v-106h315zM479 495v106q0 58 20 101q-70 60 -156 60q-18 0 -36.5 -3.5t-41.5 -14t-40 -27.5t-28.5 -47.5t-11.5 -69.5v-105h294z" />
    <glyph glyph-name="f_f_l" unicode="ffl" horiz-adv-x="965" 
d="M881 800q10 0 10 -10v-779q0 -11 -9 -11h-22q-17 0 -17 18v682q-70 62 -158 62q-18 0 -36.5 -3.5t-41.5 -14t-40 -27.5t-28.5 -47.5t-11.5 -69.5v-105h165q8 0 8 -9v-27q0 -9 -8 -9h-165v-438q0 -12 -9 -12h-25q-14 0 -14 19v431h-43h-3h-248v-438q0 -12 -9 -12h-25
q-14 0 -14 19v431h-93q-9 0 -9 8v23q0 14 14 14h88v105q0 101 56.5 154.5t148.5 53.5q95 0 178 -71q54 71 164 71q83 0 159 -57v39q0 10 10 10h28zM479 495v105q0 59 20 102q-70 60 -156 60q-18 0 -36.5 -3.5t-41.5 -14t-40 -27.5t-28.5 -47.5t-11.5 -69.5v-105h294z" />
    <glyph glyph-name="f_b.liga" unicode="fb" horiz-adv-x="1007" 
d="M725 500q93 0 162.5 -69.5t69.5 -179.5t-62.5 -183.5t-167.5 -73.5q-95 0 -174 63v-37q0 -10 -6.5 -15t-15.5 -5h-18q-8 0 -8 8v689q-71 65 -162 65q-18 0 -36.5 -3.5t-41.5 -14t-40 -27.5t-28.5 -47.5t-11.5 -69.5v-105h165q8 0 8 -9v-27q0 -9 -8 -9h-165v-438
q0 -12 -9 -12h-25q-14 0 -14 19v431h-93q-9 0 -9 8v23q0 14 14 14h88v105q0 101 56.5 154.5t148.5 53.5q85 0 163 -59l-3 39q0 12 8 12h27q16 0 16 -16v-337q77 53 172 53zM719 39q84 0 137 59.5t53 152.5q0 65 -29.5 113t-72.5 69.5t-91 21.5q-84 0 -163 -57v-297
q81 -62 166 -62z" />
    <glyph glyph-name="f_f_b.liga" unicode="ffb" horiz-adv-x="1351" 
d="M1069 500q93 0 162.5 -69.5t69.5 -179.5t-62.5 -183.5t-167.5 -73.5q-95 0 -174 63v-37q0 -10 -6.5 -15t-15.5 -5h-18q-8 0 -8 8v689q-74 65 -162 65q-18 0 -36.5 -3.5t-41 -14t-40 -27.5t-29 -47.5t-11.5 -69.5v-105h165q8 0 8 -9v-27q0 -9 -8 -9h-165v-438
q0 -12 -9 -12h-24q-15 0 -15 19v431h-45h-3h-248v-438q0 -12 -9 -12h-25q-14 0 -14 19v431h-93q-9 0 -9 8v23q0 14 14 14h88v105q0 101 56.5 154.5t148.5 53.5q96 0 179 -73q55 73 166 73q84 0 162 -59l-3 39q0 12 8 12h27q16 0 16 -16v-337q77 53 172 53zM481 495v105
q0 57 19 101q-69 61 -157 61q-18 0 -36.5 -3.5t-41 -14t-40 -27.5t-29 -47.5t-11.5 -69.5v-105h296zM1063 39q84 0 137 59.5t53 152.5q0 65 -29.5 113t-72.5 69.5t-91 21.5q-84 0 -163 -57v-297q81 -62 166 -62z" />
    <glyph glyph-name="f_f_h.liga" unicode="ffh" horiz-adv-x="1364" 
d="M1313 13q2 -13 -7 -13h-25q-17 0 -17 18v289q0 67 -39.5 108.5t-116.5 41.5q-106 0 -206 -98v-348q0 -4 -2 -8q-1 -3 -6 -3h-32q-4 0 -6 2q-2 4 -2 9v682q-73 69 -166 69q-18 0 -36.5 -3.5t-41.5 -14t-40 -27.5t-28.5 -47.5t-11.5 -69.5v-105h165q8 0 8 -9v-27
q0 -9 -8 -9h-165v-438q0 -12 -9 -12h-25q-14 0 -14 19v431h-46h-3h-248v-438q0 -12 -9 -12h-25q-14 0 -14 19v431h-93q-9 0 -9 8v23q0 14 14 14h88v105q0 101 56.5 154.5t148.5 53.5q96 0 179 -73q55 73 166 73q89 0 167 -63q0 19 -3 43q0 12 8 12h27q16 0 16 -16v-374
q99 92 207 92q85 0 144 -47.5t59 -138.5v-227q0 -13 0.5 -38.5t0.5 -37.5zM482 495v105q0 56 19 100q-70 62 -158 62q-18 0 -36.5 -3.5t-41.5 -14t-40 -27.5t-28.5 -47.5t-11.5 -69.5v-105h297z" />
    <glyph glyph-name="f_h.liga" unicode="fh" horiz-adv-x="1018" 
d="M967 13q2 -13 -7 -13h-25q-17 0 -17 18v289q0 68 -39.5 109t-116.5 41q-106 0 -206 -98v-348q0 -6 -3 -9q-2 -2 -5 -2h-32q-8 0 -8 11v683q-72 68 -165 68q-18 0 -36.5 -3.5t-41.5 -14t-40 -27.5t-28.5 -47.5t-11.5 -69.5v-105h165q8 0 8 -9v-27q0 -9 -8 -9h-165v-438
q0 -12 -9 -12h-25q-14 0 -14 19v431h-93q-9 0 -9 8v23q0 14 14 14h88v105q0 101 56.5 154.5t148.5 53.5q87 0 166 -62q0 15 -1 27.5t-1 14.5q-2 12 7 12h27q16 0 16 -16v-374q99 92 207 92q85 0 144 -47.5t59 -138.5v-227q0 -13 0.5 -38.5t0.5 -37.5z" />
    <glyph glyph-name="f_j.liga" unicode="fj" horiz-adv-x="586" 
d="M515 484l1 -584q0 -54 -15.5 -85t-69.5 -52q-8 -5 -11 3l-14 29q-3 9 4 12q37 15 47 32t10 61v550h-282v-438q0 -12 -9 -12h-25q-14 0 -14 19v431h-93q-9 0 -9 8v23q0 14 14 14h88v106q0 100 56 152t147 52q66 0 122 -37q12 -6 6 -14l-11 -23q-6 -9 -14 -3
q-47 31 -102 31q-18 0 -36 -3t-40.5 -13.5t-39.5 -26.5t-28.5 -46t-11.5 -69v-106h321q9 0 9 -11z" />
    <glyph glyph-name=".notdef" horiz-adv-x="600" 
d="M492 800v-1200h-380v1200h380zM400 720h-198v-40h78v-44h-80v-40h200v40h-80v44h80v40zM320 565h-120v-125h200v41h-80v84zM280 524v-43h-40v43h40zM400 408h-200v-40h80v-44h-80v-40h120v84h80v40zM400 336h-40v-80h-160v-40h200v120zM400 189h-120v-67h40v28h40v-57
h-120v96h-40v-135h200v135zM400 -18h-200v-136h200v136zM360 -58v-56h-120v56h120zM400 -182h-200v-39h84l-84 -57v-39h200v39h-123l84 57h39v39z" />
    <glyph glyph-name=".null" horiz-adv-x="0" 
 />
    <glyph glyph-name="nonmarkingreturn" horiz-adv-x="393" 
 />
    <glyph glyph-name="space" unicode=" " horiz-adv-x="257" 
 />
    <glyph glyph-name="exclam" unicode="!" horiz-adv-x="190" 
d="M113 800q8 0 8 -7v-10l-5 -459q0 -7 -7 -7h-28q-6 0 -6 7l-6 459v10q0 7 8 7h36zM95 -1q-15 0 -25.5 10t-10.5 25q0 14 10.5 25t25.5 11t25.5 -11t10.5 -25q0 -15 -10.5 -25t-25.5 -10z" />
    <glyph glyph-name="quotedbl" unicode="&#x22;" horiz-adv-x="286" 
d="M38 510q-8 0 -8 9v253q0 8 8 8h30q8 0 8 -8l-7 -254q-2 -8 -9 -8h-22zM219 510q-9 0 -9 9v253q0 8 9 8h29q8 0 8 -8l-6 -254q-2 -8 -9 -8h-22z" />
    <glyph glyph-name="numbersign" unicode="#" horiz-adv-x="662" 
d="M619 559q7 0 7 -9v-21q0 -7 -7 -7h-142l-31 -220h135q7 0 7 -9v-19q0 -9 -7 -9h-140l-37 -257q-1 -8 -9 -8h-20q-8 0 -8 8l37 257h-186l-36 -257q-1 -8 -9 -8h-21q-9 0 -7 8l36 257h-137q-8 0 -8 8v20q0 9 8 9h143l31 220h-136q-8 0 -8 8v20q0 9 8 9h141l33 233q2 8 10 8
h19q10 0 8 -8l-33 -233h185l33 233q3 8 10 8h20q10 0 7 -8l-33 -233h137zM409 302l31 220h-185l-31 -220h185z" />
    <glyph glyph-name="dollar" unicode="$" horiz-adv-x="631" 
d="M582 205q0 -86 -68 -148t-177 -68v-79q0 -8 -7 -8h-34q-7 0 -7 8v80q-37 3 -73.5 16t-58.5 24t-48.5 32.5t-31.5 26.5l-21 21q-10 10 -3 17l16 18q10 10 20 1l12 -11.5l24 -22t34 -25.5t44 -25.5t52 -18t60 -7.5q109 0 162 52.5t53 116.5q0 26 -7.5 48t-25.5 39.5
t-33.5 29.5t-45.5 25t-46 19t-51.5 17t-46.5 15q-49 17 -81 32t-65 39t-49.5 57.5t-16.5 77.5q0 81 57 142t170 68v77q0 7 7 7h34q7 0 7 -7v-78q16 -1 32.5 -4t30 -7t28.5 -10l25.5 -10.5t23.5 -12.5l20.5 -12.5t18 -12l14.5 -10.5t12.5 -10l8.5 -7q8 -7 2 -15l-16 -21
q-7 -9 -16 -4q-1 1 -12.5 10l-23 18t-31.5 20.5t-40 20.5t-47 15t-54 6q-94 0 -147.5 -46t-53.5 -116q0 -16 4 -31t9 -26.5t16 -23t19 -19t25 -16.5l26.5 -14t31 -13l31.5 -11.5l34.5 -11.5l33.5 -11q30 -10 49.5 -17.5t47 -20t45.5 -24t38.5 -29t32 -36t19.5 -43.5t8 -53z
" />
    <glyph glyph-name="percent" unicode="%" horiz-adv-x="582" 
d="M485 766q5 11 15 11h24q14 0 8 -12l-442 -750q-6 -11 -15 -11h-24q-14 0 -7 13zM75 727q-4 0 -7 3t-3 7q0 3 3 5.5t7 2.5q9 0 9 -8q0 -10 -9 -10zM508 35q-10 0 -10 9q0 4 3 6.5t7 2.5q8 0 8 -9t-8 -9z" />
    <glyph glyph-name="ampersand" unicode="&#x26;" horiz-adv-x="677" 
d="M637 11q0 -9 -10 -9q-33 0 -61 7.5t-52 24.5t-38.5 30.5t-35.5 35.5q-19 -20 -32.5 -32.5t-39.5 -29t-55 -25.5q-34 -10 -71 -12.5t-75 4t-74 25.5t-62 49q-43 49 -52 110t16 112q39 85 161 143q133 65 180 109q60 57 45 118q-16 65 -68.5 90t-111.5 11
q-45 -10 -74.5 -44t-34.5 -78q-2 -31 10.5 -63t26.5 -50.5t37 -43.5q22 -24 -23 -49q-40 45 -57 70q-39 51 -43.5 110.5t26.5 107.5t71 68t96 22q62 2 114.5 -28t72.5 -96q24 -77 -21 -142t-181 -132l218 -248q58 87 110 250q1 6 7 10.5t12 4.5h64q10 0 8 -8q-8 -27 -8 -29
q-2 -7 -9 -7h-31q-55 -158 -117 -258q3 -3 15 -16.5t18.5 -20t20.5 -18.5t26.5 -18.5t31.5 -12.5t39 -7q11 0 11 -9v-26zM56 135q30 -51 87 -72t116 -13q94 14 151 86l-234 266q-97 -43 -131.5 -114.5t11.5 -152.5z" />
    <glyph glyph-name="quotesingle" unicode="'" horiz-adv-x="106" 
d="M38 510q-8 0 -8 9v253q0 8 8 8h30q8 0 8 -8l-7 -254q-2 -8 -9 -8h-22z" />
    <glyph glyph-name="parenleft" unicode="(" horiz-adv-x="407" 
d="M366 -105q0 -7 -8 -7q-156 29 -234.5 156t-78.5 338q0 212 78.5 338.5t235.5 155.5q7 0 7 -8l1 -31q0 -7 -7 -8q-133 -22 -200 -140.5t-67 -306.5q0 -189 66.5 -306.5t200.5 -140.5q7 -1 7 -7z" />
    <glyph glyph-name="parenright" unicode=")" horiz-adv-x="407" 
d="M31 -105l-1 33q0 6 7 7q134 23 200.5 140.5t66.5 306.5q0 188 -67 306.5t-199 140.5q-8 1 -8 8l1 31q0 8 7 8q157 -29 235.5 -155.5t78.5 -338.5q0 -211 -78.5 -338t-234.5 -156q-8 0 -8 7z" />
    <glyph glyph-name="asterisk" unicode="*" horiz-adv-x="409" 
d="M365 539q9 -6 3 -14l-12 -19q-5 -8 -14 -3l-121 81l4 -146q0 -6 -2 -8t-8 -2h-22q-10 0 -10 10l5 146l-122 -81q-8 -6 -14 3l-12 19q-5 8 4 14l129 75l-128 75q-10 6 -5 13l12 20q6 8 15 3l121 -81l-5 145q0 7 2 9t7 2h23q7 0 8.5 -2t1.5 -9l-4 -145l121 81q9 5 14 -3
l12 -20q5 -8 -4 -13l-128 -75z" />
    <glyph glyph-name="plus" unicode="+" horiz-adv-x="616" 
d="M535 401q11 0 11 -9v-28q0 -10 -11 -10h-204v-203q0 -11 -9 -11h-28q-10 0 -10 11v203h-204q-10 0 -10 10v28q0 5 2 7t8 2h204v205q0 10 10 10h28q9 0 9 -10v-205h204z" />
    <glyph glyph-name="comma" unicode="," horiz-adv-x="172" 
d="M126 32q4 -42 -8 -99q-12 -55 -43 -97q-6 -8 -12 -5l-6 5q-7 2 -3 8q30 46 34 99q1 25 0 47h-3q-40 0 -40 43q0 24 8.5 33.5t31.5 9.5q21 0 29 -7.5t10 -25.5q2 -6 2 -11z" />
    <glyph glyph-name="hyphen" unicode="-" horiz-adv-x="426" 
d="M386 241q0 -10 -10 -10h-325q-11 0 -11 9v26q0 10 11 10h325q10 0 10 -10v-25z" />
    <glyph glyph-name="period" unicode="." horiz-adv-x="155" 
d="M78 -3q-13 0 -23 10t-10 23t10 23t23 10t22.5 -10t9.5 -23t-9.5 -23t-22.5 -10z" />
    <glyph glyph-name="slash" unicode="/" horiz-adv-x="352" 
d="M279 800h26q13 0 10 -11l-231 -777q-3 -12 -12 -12h-25q-13 0 -10 12l229 776q4 12 13 12z" />
    <glyph glyph-name="zero" unicode="0" horiz-adv-x="690" 
d="M345 -12q-77 0 -135 31t-92 86t-51 124t-17 152q0 84 17 154.5t51 126t92 87t135 31.5q76 0 134 -31.5t92.5 -87t51.5 -126t17 -154.5q0 -83 -17 -152.5t-51.5 -124t-92.5 -85.5t-134 -31zM346 37q65 0 113.5 27t76.5 75.5t41 108.5t13 133q0 74 -13 135t-41 110.5
t-76.5 77t-113.5 27.5q-66 0 -115 -27.5t-77 -77t-41 -110.5t-13 -135q0 -73 13 -133t41 -108.5t77 -75.5t115 -27z" />
    <glyph glyph-name="one" unicode="1" horiz-adv-x="238" 
d="M174 770q9 0 9 -8v-753q0 -9 -10 -9h-29q-10 0 -10 9v637l-85 -27q-6 -1 -9 5l-5 25q0 6 5 8q37 15 62.5 46t35.5 61v2q1 4 10 4h26z" />
    <glyph glyph-name="two" unicode="2" horiz-adv-x="575" 
d="M517 48q7 0 7 -8v-32q0 -8 -12 -8h-450q-9 0 -9 9v19l329 344q51 54 75 96t24 95q0 71 -58 122t-136 51q-65 0 -119.5 -35t-87.5 -84q-6 -7 -13 0l-18 19q-7 7 -1 14q43 65 107 99.5t134 34.5q95 0 167.5 -64.5t72.5 -158.5q0 -97 -82 -185l-314 -328h384z" />
    <glyph glyph-name="three" unicode="3" horiz-adv-x="593" 
d="M76 770h446q10 0 10 -10v-37q0 -6 -6 -14l-267 -275q43 13 99 5q83 -7 136.5 -71t53.5 -146q0 -102 -70 -167t-177 -65q-75 0 -140.5 35t-112.5 104q-5 9 0 13l23 21q7 5 12 -1q36 -56 96 -89.5t124 -33.5q51 0 90.5 17.5t60.5 45.5t31.5 58.5t10.5 62.5q0 71 -46.5 125
t-125.5 54q-50 0 -112 -25q-8 -3 -14 3l-17 22q-6 7 0 14l296 306h-401q-10 0 -10 9v29q0 10 10 10z" />
    <glyph glyph-name="four" unicode="4" horiz-adv-x="590" 
d="M535 289q10 0 10 -11v-26q0 -11 -9 -11h-107v-231q0 -10 -10 -10h-27q-11 0 -11 10v231h-326q-10 0 -10 10v28q0 5 4 7v1q66 46 118.5 111.5t79.5 139.5q20 57 32 122.5t12 112.5q0 7 7 7h37q6 0 6 -7q0 -78 -20 -162t-51 -147q-47 -94 -142 -175h253v69q0 7 7 10l33 8
q4 1 6 -1.5t2 -6.5v-79h106z" />
    <glyph glyph-name="five" unicode="5" horiz-adv-x="580" 
d="M126 393q83 72 185 72q94 0 159 -73t65 -171q0 -96 -69.5 -163.5t-167.5 -67.5q-76 0 -142 35.5t-108 99.5q-6 7 -1 13l24 23q5 5 11 -1q35 -57 93 -89t124 -32q59 0 102.5 29t62.5 70t19 86q0 80 -53 136t-126 56q-51 0 -93.5 -19t-84.5 -60l-40 8q-11 2 -11 12v403
q0 10 10 10q93 -4 203 -4q109 0 197 4q11 0 11 -10v-27q0 -11 -11 -11q-110 -5 -189 -5q-82 0 -170 5v-329z" />
    <glyph glyph-name="six" unicode="6" horiz-adv-x="610" 
d="M318 482q104 0 175.5 -71t71.5 -174q0 -104 -73.5 -175.5t-182.5 -71.5q-86 0 -147 46.5t-89 122t-28 172.5q0 67 15 131.5t45.5 121.5t73.5 100.5t102.5 69t127.5 26.5q10 0 10 -7v-32q0 -6 -8 -6q-67 0 -123 -27t-91.5 -69.5t-59.5 -96.5t-34 -107t-8 -101
q27 64 87 106t136 42zM308 34q83 0 146 59t63 142q0 85 -57.5 143.5t-142.5 58.5q-82 0 -147 -58.5t-65 -132.5q0 -86 58.5 -149t144.5 -63z" />
    <glyph glyph-name="seven" unicode="7" horiz-adv-x="584" 
d="M544 739q0 -4 -4 -12l-402 -720q-3 -7 -11 -7h-39q-3 0 -4.5 4.5t0.5 6.5l400 709h-440q-9 0 -9 9v32q0 7 9 7h492q8 0 8 -8v-21z" />
    <glyph glyph-name="eight" unicode="8" horiz-adv-x="594" 
d="M222 395q-26 -1 -56 -15t-57.5 -38t-45.5 -61t-18 -79q0 -92 67.5 -152t184.5 -60t184.5 60t67.5 152q0 42 -18 79t-45.5 60.5t-57 37.5t-56.5 16l11 2q25 7 50 21.5t48 36t37 53t14 67.5q0 90 -66.5 147.5t-168.5 57.5t-168.5 -57.5t-66.5 -147.5q0 -36 14 -68t37 -53.5
t48 -36t51 -21.5zM485 575q0 -61 -55.5 -108.5t-133 -47.5t-132.5 47t-55 109q0 69 53 115t135 46t135 -46t53 -115zM297 34q-87 0 -145.5 45t-58.5 124q0 66 56 117t148 51t148 -51t56 -117q0 -79 -58.5 -124t-145.5 -45z" />
    <glyph glyph-name="nine" unicode="9" horiz-adv-x="610" 
d="M292 288q-104 0 -175.5 71t-71.5 174t73.5 175t182.5 72q86 0 147 -46.5t89 -122t28 -172.5q0 -67 -15 -131.5t-45.5 -121.5t-73.5 -100.5t-102.5 -69t-127.5 -26.5q-10 0 -10 7v32q0 6 8 6q67 0 123 27t91.5 69.5t59.5 97t34 107t8 100.5q-27 -64 -87 -106t-136 -42z
M302 736q-83 0 -146 -59t-63 -142q0 -85 57.5 -143.5t142.5 -58.5q82 0 147 58.5t65 132.5q0 86 -58.5 149t-144.5 63z" />
    <glyph glyph-name="colon" unicode=":" horiz-adv-x="274" 
d="M138 367q-19 0 -32.5 14t-13.5 33t13.5 32.5t32.5 13.5t32.5 -13.5t13.5 -32.5t-13.5 -33t-32.5 -14zM137 67q-19 0 -32.5 13.5t-13.5 32.5t13.5 33t32.5 14t33 -14t14 -33t-14 -32.5t-33 -13.5z" />
    <glyph glyph-name="semicolon" unicode=";" horiz-adv-x="531" 
d="M138 367q-19 0 -32.5 14t-13.5 33t13.5 32.5t32.5 13.5t32.5 -13.5t13.5 -32.5t-13.5 -33t-32.5 -14zM180 122q2 -6 2 -11q4 -43 -8 -100q-11 -56 -45 -99q-5 -8 -11 -6l-7 6q-7 2 -2 9q32 48 34 100q2 26 0 47h-3q-41 0 -41 44q0 24 8.5 34t32.5 10q21 0 29.5 -7.5
t10.5 -26.5z" />
    <glyph glyph-name="less" unicode="&#x3c;" horiz-adv-x="506" 
d="M40 366q0 -4 7 -9l389 -237q4 -3 7 -1.5t3 6.5v30q0 6 -6 10l-340 207l342 211q4 1 4 6v32q0 5 -2.5 6.5t-6.5 -1.5l-390 -239q-7 -5 -7 -9v-12z" />
    <glyph glyph-name="equal" unicode="=" horiz-adv-x="600" 
d="M537 488q0 -10 -10 -10h-453q-11 0 -11 10v25q0 10 11 10h453q10 0 10 -10v-25zM537 220q0 -10 -10 -10h-453q-11 0 -11 10v25q0 10 11 10h453q10 0 10 -10v-25z" />
    <glyph glyph-name="greater" unicode="&#x3e;" horiz-adv-x="506" 
d="M466 367v12q0 3 -7 8l-390 239q-4 3 -6.5 1.5t-2.5 -6.5v-32q0 -5 4 -6l342 -210l-340 -208q-6 -4 -6 -10v-30q0 -5 2.5 -6.5t7.5 1.5l389 238q7 7 7 9z" />
    <glyph glyph-name="question" unicode="?" horiz-adv-x="464" 
d="M22 680q-5 5 0 11q42 57 98.5 87t120.5 31q48 -2 85 -14q60 -20 94 -75t29 -118t-48 -104q-30 -29 -66 -51t-54 -32t-30.5 -33t-12.5 -63q0 -10 -10 -10h-28q-9 0 -9 10v33q0 31 21.5 56.5t53 44.5l62.5 39t53 50.5t22 68.5q0 29 -8.5 55t-27.5 49t-53.5 37t-81.5 14
q-107 0 -180 -106q-6 -6 -10 -1zM216 -2q-15 0 -26 11t-11 26t11 26t26 11t25.5 -11t10.5 -26t-10.5 -26t-25.5 -11z" />
    <glyph glyph-name="at" unicode="@" horiz-adv-x="1167" 
d="M600 815q90 0 171.5 -27.5t141.5 -73.5t104.5 -104.5t67 -122.5t22.5 -126q0 -51 -6.5 -98t-23.5 -96t-43.5 -84.5t-71 -58t-101.5 -22.5q-52 0 -78.5 21t-37.5 66l-2 2q-10 -13 -47 -34q-81 -47 -151 -52q-26 -2 -52.5 1.5t-53.5 14t-47 32t-26 51.5q-17 85 56 129
q61 36 255 74q18 3 42 8q3 65 -32 101.5t-100 38.5q-84 2 -183 -47q-12 -6 -16 3l-8 21q-3 9 6 15q103 55 203 52q91 -2 135.5 -51t42.5 -134q-1 -29 -1 -78q0 -39 3 -68.5t6.5 -49.5t11 -33t14 -20t19 -10.5t21 -4t25.5 -0.5q51 0 89.5 25t60.5 68.5t32.5 96.5t10.5 115
q0 56 -19.5 114t-59 111t-93.5 95t-130 67t-162 25q-103 0 -194 -38.5t-155 -103.5t-101 -154t-37 -188q0 -68 18.5 -135t55.5 -127.5t89 -108.5t123 -79.5t153 -38.5q11 -1 11 -10v-31q0 -7 -22 -5q-88 9 -165 43.5t-133.5 86.5t-97 117.5t-60.5 139t-20 148.5
q0 108 41.5 206.5t112.5 170t171.5 113.5t214.5 42zM471 55q55 -20 130 5t122 62q-6 37 -4 152q-17 -4 -53.5 -10.5t-58 -11t-53 -12t-51.5 -15t-41 -17t-32.5 -21.5t-15.5 -26q-10 -34 4.5 -63.5t52.5 -42.5z" />
    <glyph glyph-name="A" unicode="A" horiz-adv-x="869" 
d="M828 10q3 -10 -5 -10h-37q-6 0 -11 7l-77 165h-526l-78 -165q-4 -7 -10 -7h-38q-8 0 -5 10l375 787q3 8 11 8h15q8 0 11 -8zM194 218h482l-241 511z" />
    <glyph glyph-name="B" unicode="B" horiz-adv-x="678" 
d="M467 410q75 -19 117.5 -73.5t42.5 -126.5q0 -92 -71 -151t-178 -59h-314q-9 0 -9 9v781q0 10 10 10h305q96 0 157 -58.5t61 -144.5q0 -69 -34 -118t-87 -69zM355 427q108 0 157 79q41 65 17 138q-25 75 -104 99q-29 9 -64 9h-255v-325h249zM373 48q44 0 81 11.5t61 30.5
t40.5 44t20 52.5t0 55t-20.5 52.5t-41.5 44t-61.5 30.5t-82 11.5h-264v-332h267z" />
    <glyph glyph-name="C" unicode="C" horiz-adv-x="797" 
d="M747 128q7 -7 -7 -21q-119 -114 -285 -114q-111 0 -205.5 53.5t-149.5 147t-55 205.5t55 206t149.5 148t205.5 54q83 0 157 -29.5t130 -83.5q13 -13 6 -19l-24 -20q-7 -8 -16 1q-40 40 -104 71t-140 31q-71 0 -132.5 -22t-104 -58t-73 -83t-45 -97t-14.5 -99
q0 -50 14.5 -100t44.5 -96.5t73 -82t104 -57t133 -21.5q135 0 241 101q11 11 17 6z" />
    <glyph glyph-name="D" unicode="D" horiz-adv-x="804" 
d="M343 800q81 0 148.5 -22.5t114.5 -60.5t80 -88.5t48 -107t15 -116.5q0 -61 -15.5 -118.5t-48 -110t-79 -91.5t-113.5 -62t-147 -23h-277q-9 0 -9 9v781q0 10 10 10h273zM352 48q83 0 150.5 30.5t110 81.5t65 114.5t21.5 131.5q0 67 -22 128.5t-64 110.5t-109.5 78
t-151.5 29h-243l2 -704h241z" />
    <glyph glyph-name="E" unicode="E" horiz-adv-x="659" 
d="M591 752h-465v-334h300q10 0 10 -11v-25q0 -12 -10 -12h-300v-322h465q11 0 11 -11v-26q0 -11 -11 -11h-507q-9 0 -9 9v781q0 10 11 10h505q11 0 11 -10v-28q0 -10 -11 -10z" />
    <glyph glyph-name="F" unicode="F" horiz-adv-x="592" 
d="M551 800q11 0 11 -10v-28q0 -10 -11 -10h-452v-334h286q6 0 8.5 -2t2.5 -9v-25q0 -12 -11 -12h-286v-361q0 -9 -9 -9h-24q-16 0 -16 16v774q0 10 10 10h491z" />
    <glyph glyph-name="G" unicode="G" horiz-adv-x="797" 
d="M739 294q7 0 9 -2t2 -9v-159q0 -7 -10 -17q-119 -114 -285 -114q-111 0 -205.5 53.5t-149.5 147t-55 205.5t55 206t149.5 148t205.5 54q83 0 157 -29.5t130 -83.5q13 -13 6 -19l-24 -20q-7 -8 -16 1q-40 40 -104 71t-140 31q-71 0 -132.5 -22t-104 -58t-73 -83t-45 -97
t-14.5 -99q0 -50 14.5 -100t44.5 -96.5t73 -82t104 -57t133 -21.5q73 0 133.5 28t102.5 68v109h-234q-11 0 -11 9v28q0 10 10 10h274z" />
    <glyph glyph-name="H" unicode="H" horiz-adv-x="806" 
d="M720 800q11 0 11 -10v-781q0 -9 -9 -9h-24q-16 0 -16 16v354h-558v-359q0 -11 -9 -11h-29q-11 0 -11 11v779q0 10 11 10h28q10 0 10 -10v-371h558v371q0 10 10 10h28z" />
    <glyph glyph-name="I" unicode="I" horiz-adv-x="210" 
d="M120 800h-30q-10 0 -10 -10v-781q0 -9 9 -9h32q9 0 9 9v781q0 10 -10 10z" />
    <glyph glyph-name="J" unicode="J" horiz-adv-x="271" 
d="M174 800q17 0 17 -17v-880q-2 -72 -38.5 -126.5t-95.5 -84.5q-11 -6 -16 2l-14 27q-5 9 3 13q51 26 81 70.5t30 106.5v853q0 5 -0.5 13t-1.5 12q-2 11 9 11h26z" />
    <glyph glyph-name="K" unicode="K" horiz-adv-x="627" 
d="M588 17q6 -5 3.5 -11t-10.5 -6h-35q-7 0 -14 7l-424 397v-393q0 -11 -10 -11h-31q-10 0 -10 11v742q0 12 -2 36q0 11 8 11h27q18 0 18 -16v-370l393 380q8 6 12 6h40q7 0 8.5 -6t-3.5 -11l-388 -374z" />
    <glyph glyph-name="L" unicode="L" horiz-adv-x="607" 
d="M542 48q10 0 10 -10v-28q0 -10 -10 -10h-467q-10 0 -10 11v779q0 10 11 10h30q10 0 10 -10v-742h426z" />
    <glyph glyph-name="M" unicode="M" horiz-adv-x="1070" 
d="M987 800q8 0 8 -11v-778q0 -11 -11 -11h-29q-11 0 -11 11v688l-395 -680q-6 -9 -13 -9h-3q-8 0 -12 9l-395 680v-688q0 -11 -11 -11h-28q-12 0 -12 11v779q0 10 8 10h31q8 0 12 -7l409 -705l408 705q4 7 13 7h31z" />
    <glyph glyph-name="N" unicode="N" horiz-adv-x="830" 
d="M748 800q7 0 7 -7v-786q0 -7 -8 -7h-16q-12 0 -28 19l-579 693v-703q0 -9 -9 -9h-31q-9 0 -9 9v782q0 9 8 9h23q6 0 14 -9l586 -704v706q0 7 8 7h34z" />
    <glyph glyph-name="O" unicode="O" horiz-adv-x="942" 
d="M472 -7q112 0 206 53.5t149 147.5t55 206t-55 205.5t-149 147.5t-206 54t-207 -54t-150 -147.5t-55 -205.5t55 -206t150 -147.5t207 -53.5zM472 42q-98 0 -181.5 47.5t-132 130t-48.5 180.5t48.5 180.5t132 130t181.5 47.5t180.5 -47.5t131 -130t48.5 -180.5
t-48.5 -180.5t-131 -130t-180.5 -47.5z" />
    <glyph glyph-name="P" unicode="P" horiz-adv-x="669" 
d="M365 800q68 0 122.5 -23.5t86.5 -62t48.5 -83t16.5 -89.5q0 -47 -16.5 -91.5t-48.5 -83t-86.5 -62t-122.5 -23.5h-244v-271q0 -11 -10 -11h-31q-10 0 -10 11v779q0 10 11 10h284zM367 330q70 0 121.5 31.5t76 79t24.5 101.5q0 85 -59 147.5t-163 62.5h-246v-422h246z" />
    <glyph glyph-name="Q" unicode="Q" horiz-adv-x="927" 
d="M822 -52q7 -7 6 -12.5t-6 -8.5l-24 -15q-14 -9 -24 7l-85 135q-99 -61 -217 -61q-112 0 -207 53.5t-150 147.5t-55 206t55 205.5t150 147.5t207 54q171 0 290.5 -118.5t119.5 -288.5q0 -95 -40.5 -177.5t-110.5 -139.5l37 -60q38 -62 54 -75zM110 400q0 -98 48.5 -180.5
t132 -130t181.5 -47.5h20q-35 15 -53 42t-18 57q0 49 34 81.5t83 32.5q79 0 129 -73q21 -29 38 -56q60 50 93.5 121.5t33.5 152.5q0 98 -48.5 180.5t-131 130t-180.5 47.5t-181.5 -47.5t-132 -130t-48.5 -180.5zM520 45q79 11 143 51l-34 54q-36 57 -100 57q-31 0 -53.5 -23
t-22.5 -57q0 -25 16.5 -47t50.5 -35z" />
    <glyph glyph-name="R" unicode="R" horiz-adv-x="676" 
d="M420 287l204 -277q3 -4 1.5 -7t-6.5 -3h-33q-11 0 -21 14l-195 268h-16h-244l1 -271q0 -11 -11 -11h-29q-7 0 -9 2.5t-2 8.5v779q0 10 11 10h283q71 0 126 -23.5t87 -62.5t48.5 -83t16.5 -90q0 -55 -21 -106t-70.5 -93t-120.5 -55zM110 752v-422h245q56 0 100.5 18
t71.5 48.5t41.5 67.5t14.5 78q0 55 -24.5 101.5t-77.5 77.5t-126 31h-245z" />
    <glyph glyph-name="S" unicode="S" horiz-adv-x="621" 
d="M49 132l16 18q10 10 20 1l12 -11.5l24 -22t34 -25.5t44 -25.5t52.5 -18t60.5 -7.5q57 0 100 15t67 40.5t35.5 53t11.5 57.5q0 19 -4.5 36t-14.5 31t-20.5 25.5t-29 22.5l-31.5 18.5t-37.5 16.5l-38.5 14l-42 14.5l-40 13.5q-46 16 -79 32.5t-65 40.5t-49 57t-17 74
q0 39 14.5 74.5t44 65t79 47t113.5 17.5q116 0 235 -94q10 -9 4 -18l-15 -20q-7 -10 -15 -2q-1 1 -12.5 9.5l-23.5 17t-32 20t-40 19.5t-47 14t-54 6q-95 0 -148 -43.5t-53 -112.5q0 -18 4 -33.5t14 -29t19.5 -24.5t29 -22l32.5 -18t39.5 -17l42 -16t47.5 -17q11 -3 16 -5
l43 -16.5t43 -18.5t43 -23.5t36.5 -28t31 -34.5t19.5 -42t8 -51q0 -89 -73.5 -151t-190.5 -62q-138 0 -255 115l-5 5q-11 10 -3 18z" />
    <glyph glyph-name="T" unicode="T" horiz-adv-x="707" 
d="M653 800q5 0 7 -2t2 -9v-27q0 -10 -9 -10h-274v-741q0 -11 -9 -11h-24q-17 0 -17 18v734h-273q-11 0 -11 10v27q0 11 11 11h597z" />
    <glyph glyph-name="U" unicode="U" horiz-adv-x="768" 
d="M689 800h-31q-11 0 -11 -10v-479q0 -56 -17 -103t-44 -77t-62 -50.5t-71 -29.5t-71 -9t-70 9t-70 29.5t-61.5 51t-43 77t-16.5 102.5v479q0 10 -11 10h-29q-11 0 -11 -10v-493q0 -59 22 -113.5t60.5 -97t98.5 -68t131 -25.5t131.5 25.5t100 68t62 97t22.5 113.5v493
q0 6 -2 8t-7 2z" />
    <glyph glyph-name="V" unicode="V" horiz-adv-x="825" 
d="M793 800q4 0 5.5 -4t-1.5 -11l-369 -781q-6 -8 -12 -8h-8q-6 0 -12 8l-369 781q-3 7 -1 11t6 4h39q5 0 7 -3t6 -11l328 -707l328 707l4 8t3.5 4t5.5 2h40z" />
    <glyph glyph-name="W" unicode="W" horiz-adv-x="1126" 
d="M1094 802q4 0 6 -4.5t-1 -11.5l-371 -780q-4 -9 -11 -9h-10q-7 0 -12 9l-132 279l-132 -281q-6 -8 -12 -8h-10q-7 0 -11 8l-371 781q-3 7 -1 11t6 4h40q5 0 7 -3t6 -11l329 -708l122 264l-209 444q-3 8 -1 12t6 4h40q6 0 11 -11l2 -4l178 -386l178 385l2.5 5l2 4t2 2.5
t3 2t3.5 0.5h41q4 0 5.5 -4t-1.5 -11l-209 -443l122 -262l329 707q2 6 3.5 8.5t4 4.5t5.5 2h40z" />
    <glyph glyph-name="X" unicode="X" horiz-adv-x="708" 
d="M673 800q8 0 4 -7l-293 -394l289 -388q7 -11 -1 -11h-47q-5 0 -13 11l-258 348l-259 -348q-8 -11 -13 -11h-47q-6 0 -1 11l290 388l-293 394q-5 7 3 7h47q5 0 9 -7l264 -354l263 354q6 7 9 7h47z" />
    <glyph glyph-name="Y" unicode="Y" horiz-adv-x="740" 
d="M721 800q2 0 3.5 -2.5t-0.5 -4.5l-329 -458v-324q0 -11 -10 -11h-24q-16 0 -16 18v317l-329 458q-2 2 -0.5 4.5t3.5 2.5h44q4 0 8 -7l299 -410l298 410q5 7 9 7h44z" />
    <glyph glyph-name="Z" unicode="Z" horiz-adv-x="636" 
d="M591 49q10 0 10 -10v-22q0 -17 -17 -17h-538q-6 0 -8.5 2t-2.5 9v15l2 2h-1l486 723h-474q-11 0 -11 10v29q0 10 11 10h538q10 0 10 -11v-14l-1 -1h1l-487 -725h482z" />
    <glyph glyph-name="bracketleft" unicode="[" horiz-adv-x="358" 
d="M311 867h-226v-991h225q8 0 8 -7v-31q0 -6 -8 -6h-262q-8 0 -8 6v1066q0 8 8 8h262q8 0 8 -8v-30q0 -7 -7 -7z" />
    <glyph glyph-name="backslash" unicode="\" horiz-adv-x="345" 
d="M69 800q8 0 13 -12l230 -776q2 -12 -10 -12h-26q-9 0 -12 12l-230 777q-5 11 9 11h26z" />
    <glyph glyph-name="bracketright" unicode="]" horiz-adv-x="358" 
d="M310 912q8 0 8 -8v-1066q0 -6 -8 -6h-262q-8 0 -8 6v31q0 7 8 7h225v991h-226q-7 0 -7 7v30q0 8 8 8h262z" />
    <glyph glyph-name="asciicircum" unicode="^" horiz-adv-x="605" 
d="M27 458q-3 -5 -1.5 -8t6.5 -3h31q4 0 8 4l232 343l229 -340q5 -7 11 -7h30q5 0 6.5 3.5t-1.5 8.5l-259 387q-5 7 -9 7h-13q-4 0 -9 -7z" />
    <glyph glyph-name="underscore" unicode="_" horiz-adv-x="547" 
d="M507 -29q0 -10 -9 -10h-447q-11 0 -11 10v19q0 10 11 10h447q5 0 7 -2t2 -8v-19z" />
    <glyph glyph-name="grave" unicode="`" horiz-adv-x="322" 
d="M46 776l214 -143q8 -5 11 4l11 18q5 7 -2 10l-211 148q-9 6 -13 -1l-14 -24q-6 -7 4 -12z" />
    <glyph glyph-name="a" unicode="a" horiz-adv-x="513" 
d="M458 17q-12 126 -5 293q4 88 -41.5 139.5t-135.5 51.5q-54 0 -109.5 -15t-95.5 -37q-11 -5 -6 -15l10 -22q4 -7 15 -3q99 49 186 49q65 0 99 -36.5t31 -107.5q-77 -13 -127.5 -24t-99 -27t-75.5 -34.5t-43 -45t-16 -60.5q0 -58 42 -93t115 -35q60 0 106.5 16t101.5 48
q4 -59 13 -59h27q10 0 8 17zM210 35q-50 0 -83 22t-33 67q0 16 5 29.5t17 24.5t24 19.5t35 17l39 14t47 13t49 11t55 11.5q27 5 41 8q-5 -104 0 -172q-104 -65 -196 -65z" />
    <glyph glyph-name="b" unicode="b" 
d="M282 500q94 0 163 -69.5t69 -179.5t-62.5 -183.5t-166.5 -73.5q-48 0 -93.5 17.5t-80.5 45.5v-37q0 -10 -6.5 -15t-15.5 -5h-18q-8 0 -8 8v729q0 3 -3 51q0 12 8 12h27q16 0 16 -16v-338q76 54 171 54zM277 39q84 0 137 59.5t53 152.5q0 65 -29.5 113t-72.5 69.5
t-91 21.5q-86 0 -163 -58v-296q81 -62 166 -62z" />
    <glyph glyph-name="c" unicode="c" horiz-adv-x="527" 
d="M483 106q7 -7 1 -14q-85 -99 -192 -99q-105 0 -178.5 73t-73.5 181t73.5 181.5t178.5 73.5q55 0 103 -24.5t79 -62.5q7 -10 0 -15l-17 -18q-6 -5 -14 3q-59 72 -147 72q-52 0 -93.5 -19.5t-66 -51t-37 -67.5t-12.5 -72t12.5 -71.5t37 -67t66.5 -51t95 -19.5q84 0 154 85
q7 7 15 1z" />
    <glyph glyph-name="d" unicode="d" horiz-adv-x="555" 
d="M479 800q16 0 16 -16v-776q0 -8 -8 -8h-18q-9 0 -15.5 5t-6.5 15v37q-34 -29 -80.5 -46.5t-94.5 -17.5q-104 0 -168 74t-64 183q0 110 70.5 179.5t164.5 69.5q96 0 172 -54v292q0 10 -1 26.5t-1 24.5q-2 12 7 12h27zM280 38q87 0 167 63v295q-77 58 -164 58
q-35 0 -69 -13t-62.5 -37.5t-46 -64.5t-17.5 -89q0 -93 54 -152.5t138 -59.5z" />
    <glyph glyph-name="e" unicode="e" horiz-adv-x="566" 
d="M490 220q18 0 27.5 7.5t9.5 28.5q0 101 -69.5 173.5t-173.5 72.5q-103 0 -174 -73.5t-71 -180.5q0 -109 73 -181.5t179 -72.5q63 0 114.5 28.5t87.5 76.5q6 7 0 14l-10 11q-6 7 -15 -1q-73 -85 -174 -85q-89 0 -143 55t-61 127h400zM89 261q0 32 12 65.5t34.5 63t61 48.5
t86.5 19t87 -19.5t61.5 -50t34.5 -63t12 -63.5h-389z" />
    <glyph glyph-name="f" unicode="f" horiz-adv-x="434" 
d="M462 768q12 -6 6 -14l-11 -23q-6 -9 -14 -3q-47 31 -102 31q-18 0 -36 -3t-40.5 -13.5t-39.5 -26.5t-28.5 -46t-11.5 -69v-106h165q8 0 8 -9v-27q0 -9 -8 -9h-165v-438q0 -12 -9 -12h-25q-14 0 -14 19v431h-93q-9 0 -9 8v23q0 14 14 14h88v106q0 100 56 152t147 52
q66 0 122 -37z" />
    <glyph glyph-name="g" unicode="g" horiz-adv-x="615" 
d="M413 -34q38 -5 64 -12t53.5 -21.5t40.5 -40.5t10 -62q-7 -89 -88.5 -136.5t-197.5 -47.5q-106 0 -171.5 45t-62.5 131q3 50 32 83.5t77 49.5q-56 6 -94 30.5t-41 64.5q-3 41 30.5 65.5t79.5 11.5q-25 20 -44 58.5t-20 84.5q-4 97 60 163.5t160 66.5q31 0 87.5 -5.5
t132.5 -3.5q9 0 9 -6l-1 -29q-29 -6 -95 -4q31 -20 52 -44.5t29.5 -51.5t11.5 -46.5t3 -43.5q0 -95 -64.5 -152.5t-158.5 -55.5q-71 1 -132 40q-39 11 -67.5 -1t-25.5 -40q3 -29 37 -44.5t99 -22.5q28 -3 97.5 -11.5t97.5 -12.5zM306 454q-76 0 -128 -51t-51 -128
q-1 -69 52.5 -119.5t125.5 -51.5q83 -1 130 46.5t48 124.5q-1 78 -52 128.5t-125 50.5zM301 -308q94 0 160 37.5t69 98.5q2 38 -21 58.5t-87 31.5q-51 9 -189 24q-39 5 -80 -28t-44 -88q-2 -46 26 -77.5t70.5 -44t95.5 -12.5z" />
    <glyph glyph-name="h" unicode="h" horiz-adv-x="573" 
d="M522 13q2 -13 -7 -13h-25q-17 0 -17 18v289q0 68 -39.5 109t-116.5 41q-106 0 -206 -98v-348q0 -11 -8 -11h-32q-4 0 -7 4q-1 1 -1 7v728q0 22 -3 49q0 12 8 12h27q16 0 16 -16v-304v-2v-68q99 92 207 92q85 0 144 -47.5t59 -138.5v-227q0 -13 0.5 -38.5t0.5 -37.5z" />
    <glyph glyph-name="i" unicode="i" horiz-adv-x="199" 
d="M100 737q-13 0 -21.5 8.5t-8.5 21.5q0 12 8.5 20.5t21.5 8.5q12 0 20.5 -8.5t8.5 -20.5q0 -13 -8.5 -21.5t-20.5 -8.5zM114 495h-28q-10 0 -10 -10v-468q0 -17 15 -17h25q8 0 8 10v475q0 10 -10 10z" />
    <glyph glyph-name="j" unicode="j" horiz-adv-x="192" 
d="M92 737q-12 0 -20.5 8.5t-8.5 21.5q0 12 8.5 20.5t20.5 8.5q13 0 21.5 -8.5t8.5 -20.5q0 -13 -8.5 -21.5t-21.5 -8.5zM106 495h-28q-10 0 -10 -11v-584q0 -44 -10.5 -61t-47.5 -32q-7 -3 -4 -12l15 -29q2 -7 11 -3q53 21 69 52t16 85l-1 584q0 11 -10 11z" />
    <glyph glyph-name="k" unicode="k" horiz-adv-x="494" 
d="M451 13q4 -5 2.5 -9t-7.5 -4h-40q-8 0 -14 6l-281 242v-237q0 -11 -11 -11h-27q-10 0 -10 11v728q0 22 -3 49q0 12 8 12h27q16 0 16 -16v-524l251 230q6 5 13 5h39q6 0 7.5 -4.5t-2.5 -8.5l-253 -229z" />
    <glyph glyph-name="l" unicode="l" horiz-adv-x="197" 
d="M113 800h-28q-10 0 -10 -10v-772q0 -18 17 -18h22q9 0 9 11v779q0 10 -10 10z" />
    <glyph glyph-name="m" unicode="m" horiz-adv-x="985" 
d="M935 13q0 -13 -8 -13h-25q-16 0 -16 18v289q0 66 -40.5 108t-116.5 42q-107 0 -209 -104q3 -18 3 -38v-226q0 -28 2 -76q0 -13 -8 -13h-25q-16 0 -16 18v289q0 65 -40.5 107.5t-116.5 42.5q-60 0 -109.5 -26.5t-96.5 -73.5v-346q0 -11 -8 -11h-32q-8 0 -8 11v475q0 9 8 9
h25q6 0 10.5 -5.5t4.5 -11.5v-68q99 92 208 92q62 0 113 -27t73 -80q21 21 40 36t48 33t63.5 28t71.5 10q85 0 144 -48t59 -139v-226q0 -28 2 -76z" />
    <glyph glyph-name="n" unicode="n" horiz-adv-x="570" 
d="M520 13q0 -13 -8 -13h-25q-16 0 -16 18v289q0 68 -40 109t-117 41q-106 0 -206 -98v-348q0 -11 -8 -11h-32q-8 0 -8 11v475q0 9 8 9h25q6 0 10.5 -5.5t4.5 -11.5v-68q99 92 208 92q54 0 98.5 -19t74 -62t29.5 -105v-227q0 -28 2 -76z" />
    <glyph glyph-name="o" unicode="o" horiz-adv-x="592" 
d="M297 -6q105 0 180 73.5t75 179.5q0 108 -75 182t-180 74q-107 0 -182 -74t-75 -182q0 -106 75.5 -179.5t181.5 -73.5zM297 40q-87 0 -147.5 62t-60.5 145q0 85 60 147.5t148 62.5q86 0 146 -62.5t60 -147.5q0 -83 -60 -145t-146 -62z" />
    <glyph glyph-name="p" unicode="p" 
d="M282 500q94 0 163 -69.5t69 -179.5t-62.5 -183.5t-166.5 -73.5q-48 0 -93.5 17.5t-80.5 45.5v-331q0 -20 -22 -20h-18q-8 0 -8 8v718q0 3 -3 51q0 12 8 12h27q16 0 16 -16v-33q76 54 171 54zM277 39q84 0 137 59.5t53 152.5q0 65 -29.5 113t-72.5 69.5t-91 21.5
q-86 0 -163 -58v-296q81 -62 166 -62z" />
    <glyph glyph-name="q" unicode="q" horiz-adv-x="554" 
d="M504 -282q2 -12 -7 -12h-28q-15 0 -15 16v334q-79 -63 -175 -63q-104 0 -166.5 73.5t-62.5 183.5t69.5 179.5t162.5 69.5q96 0 172 -54v30q0 20 22 20h17q9 0 9 -8v-718q0 -19 2 -51zM287 38q84 0 167 62v296q-78 58 -164 58q-48 0 -90.5 -21.5t-72 -69.5t-29.5 -113
q0 -93 52.5 -152.5t136.5 -59.5z" />
    <glyph glyph-name="r" unicode="r" horiz-adv-x="401" 
d="M374 462q8 -5 5 -12l-18 -26q-4 -5 -12 -2q-54 32 -100 32q-77 0 -137 -80v-363q0 -11 -8 -11h-32q-8 0 -8 11v475q0 9 8 9h25q6 0 10.5 -5.5t4.5 -11.5v-47q65 68 147 68q62 0 115 -37z" />
    <glyph glyph-name="s" unicode="s" horiz-adv-x="460" 
d="M47 64l16 23q6 8 12 3q5 -5 22 -15.5t54.5 -23t75.5 -12.5q72 0 104 25.5t32 61.5q0 18 -8.5 32.5t-20.5 24t-32.5 18.5t-37 14l-41.5 12q-85 22 -128.5 54.5t-43.5 86.5q0 57 46 95.5t128 38.5q81 0 163 -53q8 -5 4 -11l-15 -24q-5 -7 -14 -3q-43 24 -72.5 34.5
t-65.5 10.5q-38 0 -65 -9.5t-39 -25t-16.5 -28.5t-4.5 -26q0 -17 8.5 -31t20 -23t32.5 -18.5t35.5 -14l38.5 -11.5q39 -11 66.5 -21t55.5 -26.5t43 -40t15 -52.5q0 -64 -50.5 -100t-137.5 -36q-54 0 -102.5 19.5t-74.5 40.5q-7 4 -3 11z" />
    <glyph glyph-name="t" unicode="t" horiz-adv-x="370" 
d="M329 28q3 -7 -10 -14q-42 -19 -91 -19q-30 0 -51 8t-33.5 22t-19.5 38.5t-9 50.5t-2 65v270h-64q-9 0 -9 8v12q0 9 7 10q34 8 49 20t24.5 43.5t15.5 99.5q2 9 6 9h14q6 0 6 -9v-147h139q10 0 10 -9v-29q0 -8 -10 -8h-120q-13 0 -20 3v-263q0 -35 0.5 -52.5t4 -39.5
t11 -32t21 -17t34.5 -7q40 0 73 11q16 5 18 -2z" />
    <glyph glyph-name="u" unicode="u" 
d="M501 495q8 0 8 -11v-476q0 -8 -7 -8h-28q-4 0 -8 5.5t-4 10.5v69q-99 -92 -208 -92q-85 0 -143.5 48t-58.5 139v225q0 27 -2 77q0 13 7 13h26q16 0 16 -19v-288q0 -67 40 -109t117 -42q60 0 109 27t97 74v346q0 11 8 11h31z" />
    <glyph glyph-name="v" unicode="v" horiz-adv-x="566" 
d="M534 495h-37q-7 0 -9 -6l-204 -416l-205 416q-2 6 -9 6h-39q-7 0 -5 -6l243 -488q5 -7 11 -7h9q6 0 10 7l241 488q3 6 -6 6z" />
    <glyph glyph-name="w" unicode="w" horiz-adv-x="786" 
d="M756 495q7 0 4 -7l-174 -481q-4 -7 -12 -7h-8q-8 0 -11 7l-162 406l-162 -406q-3 -7 -10 -7h-9q-7 0 -10 7l-176 481q-3 7 5 7h39q5 0 8 -6l143 -414l153 410q4 6 10 6h19q5 0 9 -6l154 -410l142 414q1 6 8 6h40z" />
    <glyph glyph-name="x" unicode="x" horiz-adv-x="524" 
d="M471 11q3 -5 1.5 -8t-5.5 -3h-38q-6 0 -10 7l-158 208l-156 -208q-5 -7 -11 -7h-37q-4 0 -6 3.5t1 7.5l179 236l-179 237q-3 4 -1 7.5t6 3.5h36q7 0 12 -7l156 -209l158 209q4 7 10 7h38q4 0 6 -3.5t-1 -7.5l-180 -237z" />
    <glyph glyph-name="y" unicode="y" horiz-adv-x="541" 
d="M509 495q11 0 6 -10l-211 -436q-104 -213 -238 -358q-7 -6 -15 2l-18 17q-7 7 2 18q59 68 120.5 158t94.5 167l-216 433q-4 9 5 9h40q7 0 8 -6l190 -385l184 383q5 8 11 8h37z" />
    <glyph glyph-name="z" unicode="z" horiz-adv-x="474" 
d="M128 48h282q9 0 9 -8v-32q0 -8 -9 -8h-350q-6 0 -8.5 5t0.5 10l16 24l280 408h-281q-8 0 -8 8v32q0 8 8 8h348q12 0 8 -15l-13 -20z" />
    <glyph glyph-name="braceleft" unicode="{" horiz-adv-x="461" 
d="M136 266v-130q0 -69 17.5 -124t45 -89.5t65 -58t75 -33t76.5 -9.5q6 0 6 6v27q0 7 -5 7q-112 3 -173.5 78.5t-61.5 186.5v120q0 29 -11 52.5t-27.5 36.5t-31 19.5t-25.5 7.5v12q9 0 24 7t31.5 20t28 37t11.5 53v136q0 108 61 177t174 72q5 0 5 7v25q0 8 -6 8
q-39 0 -76 -8t-75 -29t-65.5 -53t-45 -85.5t-17.5 -122.5v-145q0 -32 -35.5 -54.5t-51.5 -22.5q-9 0 -9 -8v-39q0 -8 9 -8q1 0 9.5 -3.5l11 -4.5l11 -4.5t12 -5.5t10.5 -6.5t10.5 -8t9 -8.5t7.5 -10t4 -11.5t2 -13.5z" />
    <glyph glyph-name="bar" unicode="|" horiz-adv-x="248" 
d="M100 1003q0 6 2 8t8 2h28q6 0 8 -2t2 -8v-1192q0 -10 -10 -10h-28q-10 0 -10 10v1192z" />
    <glyph glyph-name="braceright" unicode="}" horiz-adv-x="461" 
d="M325 266q0 7 2 13.5t4 11.5t7.5 10t9 8.5t10.5 8t10.5 6.5t12 5.5l11 4.5l11 4.5t9.5 3.5q9 0 9 8v39q0 8 -9 8q-16 0 -51.5 22.5t-35.5 54.5v145q0 69 -17.5 122.5t-45 85.5t-65.5 53t-75 29t-76 8q-6 0 -6 -8v-25q0 -7 5 -7q113 -3 174 -72t61 -177v-136
q0 -29 11.5 -53t28 -37t31.5 -20t24 -7v-12q-28 -2 -61.5 -31.5t-33.5 -84.5v-120q0 -111 -61.5 -186.5t-173.5 -78.5q-5 0 -5 -7v-27q0 -6 6 -6q39 0 76.5 9.5t75 33t65 58t45 89.5t17.5 124v130z" />
    <glyph glyph-name="asciitilde" unicode="~" horiz-adv-x="492" 
d="M23 276q14 -14 17 -18q5 -4 10 1q9 12 14.5 18t18.5 17.5t29 17.5t34 6q17 0 33.5 -6.5t24.5 -12t22 -18.5t15 -14q2 -2 10.5 -9.5l12.5 -11t14 -9.5t18.5 -9.5t22 -6t27.5 -2.5q21 0 41.5 7t35 17.5t25.5 21t17 17.5l5 7q4 5 0 7l-17 17q-5 5 -8 0q-4 -5 -9.5 -11
t-19 -18.5t-32 -20t-38.5 -7.5q-15 0 -27.5 3t-23 10t-17 12t-15.5 14l-12 12q-51 49 -104 49q-21 0 -41.5 -7.5t-35 -18.5t-26 -21.5t-16.5 -17.5l-6 -8q-4 -2 1 -7z" />
    <glyph glyph-name="exclamdown" unicode="&#xa1;" horiz-adv-x="190" 
d="M95 498q15 0 25.5 -10t10.5 -25t-10.5 -25.5t-25.5 -10.5t-25.5 10.5t-10.5 25.5t10.5 25t25.5 10zM113 -303h-36q-8 0 -8 7v10l6 459q0 7 6 7h28q7 0 7 -7l5 -459v-10q0 -7 -8 -7z" />
    <glyph glyph-name="cent" unicode="&#xa2;" horiz-adv-x="590" 
d="M513 112q6 -6 1 -14q-39 -50 -92 -80.5t-114 -30.5q-48 0 -93 17l-26 -77q-3 -6 -9 -5l-19 8q-6 1 -4 8l28 80q-62 34 -99.5 96t-37.5 136q0 109 76.5 186t183.5 77q26 0 45 -4l20 56q2 8 9 4l18 -7q8 -2 4 -9l-18 -53q72 -24 115 -82q7 -10 0 -15l-20 -17q-6 -6 -14 4
q-38 49 -95 69l-142 -412q42 -15 85 -15q95 0 166 93q9 10 14 2zM95 250q0 -51 26.5 -104t78.5 -84l139 405q-8 1 -24 1q-56 0 -100 -21t-69 -55t-38 -70.5t-13 -71.5z" />
    <glyph glyph-name="sterling" unicode="&#xa3;" horiz-adv-x="597" 
d="M543 720q5 -7 1 -11l-24 -20q-6 -5 -11 -1l-9.5 9.5t-17 16t-25 18t-33.5 17.5t-42 12.5t-51 5.5q-85 0 -140 -53.5t-54 -124.5q0 -18 2.5 -33t9 -32t11 -26.5t16 -30t15.5 -28.5q17 -30 28 -69h201q9 0 9 -9v-27q0 -9 -9 -9h-191q3 -21 3 -44q0 -65 -29.5 -130
t-61.5 -107h370q8 0 8 -8v-28q0 -8 -8 -8h-423q-9 0 -9 7v17q43 58 73.5 130t29.5 127q0 25 -4 44h-119q-8 0 -8 9v27q0 9 8 9h109q-6 20 -14 34l-24 49l-22.5 47t-13.5 37.5t-7 45.5q-2 103 69 167t173 64q129 0 214 -94z" />
    <glyph glyph-name="currency" unicode="&#xa4;" horiz-adv-x="639" 
d="M596 222q5 -4 1 -10l-26 -26q-5 -5 -10 1l-72 72q-72 -62 -169 -62t-169 62l-72 -72q-6 -6 -10 -1l-27 26q-4 5 1 10l73 73q-59 72 -59 165q0 92 60 167l-72 73q-7 5 -1 9l26 27q6 4 10 -1l72 -73q74 61 168 61t167 -59l71 71q4 6 9 1l27 -27q5 -5 -1 -9l-71 -72
q61 -72 61 -168q0 -92 -58 -166zM104 462q0 -91 62.5 -155t154.5 -64q89 0 153 64.5t64 154.5q0 89 -64 151.5t-153 62.5q-92 0 -154.5 -62t-62.5 -152z" />
    <glyph glyph-name="yen" unicode="&#xa5;" horiz-adv-x="726" 
d="M715 793l-327 -458v-22h155q10 0 10 -9v-25q0 -10 -10 -10h-155v-95h155q10 0 10 -9v-26q0 -9 -10 -9h-155v-119q0 -11 -10 -11h-24q-16 0 -16 18v112h-155q-10 0 -10 9v25q0 10 10 10h155v95h-155q-10 0 -10 10v25q0 9 10 9h155v22l-327 458q-2 2 -0.5 4.5t3.5 2.5h43
q4 0 9 -7l297 -410l297 410q5 7 8 7h43q3 0 4.5 -2.5t-0.5 -4.5z" />
    <glyph glyph-name="brokenbar" unicode="&#xa6;" horiz-adv-x="248" 
d="M100 1005q0 6 2 8t8 2h28q6 0 8 -2t2 -8v-475q0 -11 -10 -11h-28q-10 0 -10 11v475zM100 287q0 5 2 7t8 2h28q6 0 8 -2t2 -7v-476q0 -10 -10 -10h-28q-10 0 -10 10v476z" />
    <glyph glyph-name="section" unicode="&#xa7;" horiz-adv-x="628" 
d="M509 59q69 -56 69 -137q0 -90 -74 -158t-187 -68q-43 0 -85 11.5t-68 23.5t-55 34.5t-36 29.5l-23 22q-6 6 0 15l15 21q6 6 14 3q13 -14 31 -30t48 -36.5t70.5 -34t81.5 -13.5q88 0 153 49.5t65 130.5q0 25 -9.5 46.5t-23.5 37.5t-37 30t-43 23t-49 18t-47.5 13.5
t-46.5 10.5q-45 10 -80.5 23.5t-68 36.5t-50 59t-17.5 83q0 96 76 150q-76 49 -76 141q0 40 16.5 78t47 70.5t81.5 52t114 19.5q19 0 38 -2.5t36.5 -7.5t32.5 -10.5t30.5 -13.5l26.5 -14t24 -15l18.5 -13l15.5 -11.5l10 -7.5q8 -8 3 -15l-17 -22q-6 -10 -15 -3
q-107 90 -209 90q-87 0 -145.5 -51t-58.5 -124q0 -16 3.5 -30.5t8.5 -25.5t14.5 -21.5t17.5 -17.5t23 -15t24 -12t27.5 -10.5t28 -9t30 -8.5t28.5 -8l51.5 -16t51 -18.5t51.5 -23.5t44 -28.5t37.5 -36.5t23 -44.5t9.5 -54.5q0 -96 -69 -155zM103 303q0 -24 7 -43.5t17 -34
t28 -27t33 -20t39.5 -15.5t40 -12t42.5 -10q97 -21 156 -54q64 48 64 127q0 18 -5 34t-12 28.5t-20.5 24.5t-24.5 20.5t-30.5 18l-31.5 15t-35 13l-34 11t-34 10t-31 8.5q-62 18 -90 30q-79 -35 -79 -124z" />
    <glyph glyph-name="dieresis" unicode="&#xa8;" horiz-adv-x="430" 
d="M74 732q-13 0 -22.5 9t-9.5 23t9 23t23 9t23 -9t9 -23t-9 -23t-23 -9zM356.5 732q-13.5 0 -23 9.5t-9.5 22.5t9.5 22.5t23.5 9.5q13 0 22.5 -9t9.5 -23t-9.5 -23t-23 -9z" />
    <glyph glyph-name="copyright" unicode="&#xa9;" horiz-adv-x="905" 
d="M452 -9q-112 0 -207 55t-150 150t-55 207t55 207t150 150t207 55q113 0 208 -55t150 -150t55 -207t-55 -207t-150 -150t-208 -55zM453 38q150 0 257 107.5t107 258.5t-107 257.5t-257 106.5q-151 0 -258.5 -106.5t-107.5 -257.5t107.5 -258.5t258.5 -107.5zM607 306
q5 -3 0 -11q-64 -81 -150 -81q-79 0 -135 56.5t-56 136.5t56 136t135 56q44 0 81 -19.5t60 -50.5q5 -6 0 -11l-22 -17q-5 -5 -11 3q-39 52 -103 52q-38 0 -68.5 -14.5t-48 -37.5t-26.5 -48t-9 -49t9 -49t26 -48t48 -38t69 -15q64 0 114 63q5 6 10 2z" />
    <glyph glyph-name="ordfeminine" unicode="&#xaa;" horiz-adv-x="513" 
d="M458 17q-12 126 -5 293q4 88 -41.5 139.5t-135.5 51.5q-54 0 -109.5 -15t-95.5 -37q-11 -5 -6 -15l10 -22q4 -7 15 -3q99 49 186 49q65 0 99 -36.5t31 -107.5q-77 -13 -127.5 -24t-99 -27t-75.5 -34.5t-43 -45t-16 -60.5q0 -58 42 -93t115 -35q60 0 106.5 16t101.5 48
q4 -59 13 -59h27q10 0 8 17zM210 35q-50 0 -83 22t-33 67q0 16 5 29.5t17 24.5t24 19.5t35 17l39 14t47 13t49 11t55 11.5q27 5 41 8q-5 -104 0 -172q-104 -65 -196 -65z" />
    <glyph glyph-name="guillemotleft" unicode="&#xab;" horiz-adv-x="485" 
d="M50 215l158 -201q3 -5 7 -5h36q5 0 6.5 3t-1.5 7l-160 212l161 204q4 11 -5 11h-32q-7 0 -10 -5l-160 -197q-4 -4 -4 -13.5t4 -15.5zM226 214l159 -199q4 -6 8 -6h35q5 0 6.5 3.5t-1.5 7.5l-161 210l160 206q5 10 -4 10h-34q-6 0 -9 -4l-159 -199q-4 -5 -4 -14.5t4 -14.5
z" />
    <glyph glyph-name="logicalnot" unicode="&#xac;" horiz-adv-x="599" 
d="M543 404q10 0 10 -10v-241q0 -10 -10 -10h-24q-10 0 -10 10v207h-458q-11 0 -11 9v25q0 10 11 10h492z" />
    <glyph glyph-name="uni00AD" unicode="&#xad;" horiz-adv-x="426" 
d="M386 241q0 -10 -10 -10h-325q-11 0 -11 9v26q0 10 11 10h325q10 0 10 -10v-25z" />
    <glyph glyph-name="registered" unicode="&#xae;" horiz-adv-x="599" 
d="M300 933q118 0 201 -83t83 -201q0 -119 -83 -202t-201.5 -83t-201.5 83t-83 202q0 118 83.5 201t201.5 83zM300 397q103 0 177 73.5t74 177.5q0 105 -73.5 178.5t-177.5 73.5t-178 -73.5t-74 -178.5q0 -104 74 -177.5t178 -73.5zM416 706q0 -30 -19 -54.5t-49 -32.5
l66 -102q5 -8 -5 -8h-23q-5 0 -6 3l-66 105h-81v-102q0 -6 -7 -6h-19q-7 0 -7 6v270q0 8 7 8h118q39 0 65 -27t26 -60zM321 647q28 0 44 18t16 39t-16 39t-44 18h-89l1 -114h88z" />
    <glyph glyph-name="macron" unicode="&#xaf;" horiz-adv-x="512" 
d="M40 754q0 8 9 8h413q10 0 10 -8v-23q0 -9 -10 -9h-413q-9 0 -9 9v23z" />
    <glyph glyph-name="degree" unicode="&#xb0;" horiz-adv-x="394" 
d="M197 534q-51 0 -87.5 37.5t-36.5 89.5q0 50 36.5 86.5t87.5 36.5q52 0 88.5 -36.5t36.5 -86.5q0 -53 -36.5 -90t-88.5 -37zM197 571q37 0 63 26.5t26 63.5q0 36 -26 61.5t-63 25.5q-36 0 -62 -26t-26 -61q0 -37 26 -63.5t62 -26.5z" />
    <glyph glyph-name="plusminus" unicode="&#xb1;" horiz-adv-x="591" 
d="M523 486q11 0 11 -10v-28q0 -9 -11 -9h-204v-204q0 -11 -9 -11h-28q-10 0 -10 11v204h-204q-6 0 -8 2t-2 7v28q0 10 10 10h204v204q0 6 2 8t8 2h28q5 0 7 -2t2 -8v-204h204zM524 45q10 0 10 -10v-25q0 -10 -10 -10h-455q-11 0 -11 10v25q0 10 11 10h455z" />
    <glyph glyph-name="uni00B2" unicode="&#xb2;" horiz-adv-x="575" 
d="M517 48q7 0 7 -8v-32q0 -8 -12 -8h-450q-9 0 -9 9v19l329 344q51 54 75 96t24 95q0 71 -58 122t-136 51q-65 0 -119.5 -35t-87.5 -84q-6 -7 -13 0l-18 19q-7 7 -1 14q43 65 107 99.5t134 34.5q95 0 167.5 -64.5t72.5 -158.5q0 -97 -82 -185l-314 -328h384z" />
    <glyph glyph-name="uni00B3" unicode="&#xb3;" horiz-adv-x="593" 
d="M76 770h446q10 0 10 -10v-37q0 -6 -6 -14l-267 -275q43 13 99 5q83 -7 136.5 -71t53.5 -146q0 -102 -70 -167t-177 -65q-75 0 -140.5 35t-112.5 104q-5 9 0 13l23 21q7 5 12 -1q36 -56 96 -89.5t124 -33.5q51 0 90.5 17.5t60.5 45.5t31.5 58.5t10.5 62.5q0 71 -46.5 125
t-125.5 54q-50 0 -112 -25q-8 -3 -14 3l-17 22q-6 7 0 14l296 306h-401q-10 0 -10 9v29q0 10 10 10z" />
    <glyph glyph-name="acute" unicode="&#xb4;" horiz-adv-x="355" 
d="M276 776q10 5 4 12l-14 24q-4 7 -13 1l-211 -148q-7 -3 -2 -10l11 -18q3 -9 11 -4z" />
    <glyph glyph-name="paragraph" unicode="&#xb6;" horiz-adv-x="902" 
d="M845 800q12 0 12 -12v-23q0 -12 -12 -12h-135v-742q0 -11 -10 -11h-29q-10 0 -10 11l1 742h-192v-742q0 -11 -10 -11h-29q-10 0 -10 11l1 277h-124q-77 0 -136 38.5t-88 97t-29 124.5q0 44 17.5 88.5t48.5 81t80 59.5t107 23h547zM422 335v418h-112q-68 0 -118.5 -31
t-73 -77.5t-22.5 -100.5t22.5 -100.5t73 -77.5t118.5 -31h112z" />
    <glyph glyph-name="periodcentered" unicode="&#xb7;" horiz-adv-x="165" 
d="M83 269q-13 0 -23 9.5t-10 22.5t10 23t23 10t22.5 -10t9.5 -23t-9.5 -22.5t-22.5 -9.5z" />
    <glyph glyph-name="cedilla" unicode="&#xb8;" horiz-adv-x="337" 
d="M163 -64q53 0 91 -38t38 -92t-38.5 -92.5t-93.5 -38.5q-71 0 -112 54q-3 5 0 8l9 10q10 10 15 3q14 -17 36.5 -30t48.5 -13q48 0 75.5 28.5t27.5 70.5q0 40 -26.5 69t-71.5 29q-44 0 -81 -40q-9 -9 -13 -3l-12 12q-3 2 -1 6l6 10l70 111h36l-44 -70q19 6 40 6z" />
    <glyph glyph-name="uni00B9" unicode="&#xb9;" horiz-adv-x="238" 
d="M174 770q9 0 9 -8v-753q0 -9 -10 -9h-29q-10 0 -10 9v637l-85 -27q-6 -1 -9 5l-5 25q0 6 5 8q37 15 62.5 46t35.5 61v2q1 4 10 4h26z" />
    <glyph glyph-name="ordmasculine" unicode="&#xba;" horiz-adv-x="592" 
d="M297 -6q105 0 180 73.5t75 179.5q0 108 -75 182t-180 74q-107 0 -182 -74t-75 -182q0 -106 75.5 -179.5t181.5 -73.5zM297 40q-87 0 -147.5 62t-60.5 145q0 85 60 147.5t148 62.5q86 0 146 -62.5t60 -147.5q0 -83 -60 -145t-146 -62z" />
    <glyph glyph-name="guillemotright" unicode="&#xbb;" horiz-adv-x="485" 
d="M258 214q4 5 4 14.5t-4 14.5l-159 199q-3 4 -9 4h-34q-8 0 -5 -10l161 -206l-161 -210q-3 -5 -1.5 -8t6.5 -3h34q5 0 9 6zM434 215q4 6 4 15t-4 14l-160 197q-5 5 -10 5h-32q-11 0 -5 -11l160 -204l-159 -212q-3 -4 -1.5 -7t5.5 -3h37q4 0 7 5z" />
    <glyph glyph-name="onequarter" unicode="&#xbc;" horiz-adv-x="736" 
d="M581 800q14 0 8 -12l-424 -777q-5 -11 -13 -11h-15q-6 0 -8.5 3.5t0.5 9.5l424 776q5 11 13 11h15zM136 456v238l-76 -23q-6 -1 -7 3l-3 18q0 5 4 6q34 14 56 41.5t29 54.5v2q2 3 7 3h20q7 0 7 -6v-337q0 -8 -8 -8h-20q-9 0 -9 8zM682 135q4 0 4 -5v-23q0 -6 -4 -6h-49
v-97q0 -4 -5 -4h-24q-4 0 -4 4v97h-139q-5 0 -5 6v23q0 2 3 4q66 45 90 115q19 59 19 106q0 4 4 4h26q4 0 4 -4q0 -34 -10.5 -74.5t-24.5 -70.5q-20 -40 -63 -75h96v30q0 4 2 4l27 5q4 0 4 -4v-35h49z" />
    <glyph glyph-name="onehalf" unicode="&#xbd;" horiz-adv-x="742" 
d="M581 800q14 0 8 -12l-424 -777q-5 -11 -13 -11h-15q-6 0 -8.5 3.5t0.5 9.5l424 776q5 11 13 11h15zM136 456v238l-76 -23q-6 -1 -7 3l-3 18q0 5 4 6q34 14 56 41.5t29 54.5v2q2 3 7 3h20q7 0 7 -6v-337q0 -8 -8 -8h-20q-9 0 -9 8zM686 35q4 0 4 -3v-27q0 -5 -4 -5h-215
q-4 0 -4 5v14l8 9h-1l140 148q2 2 8 8.5t7.5 8.5t6.5 8t6.5 8.5l5 8t4.5 9t3 8.5t2.5 10t0.5 11q0 30 -24.5 51.5t-59.5 21.5q-51 0 -85 -49q-3 -3 -6 0l-18 15q-2 4 -1 6q34 50 88 60t95 -22q39 -30 43 -75.5t-34 -86.5l-133 -142h163z" />
    <glyph glyph-name="threequarters" unicode="&#xbe;" horiz-adv-x="727" 
d="M250 481q-24 -29 -62 -39t-78.5 5t-67.5 54q-3 4 0 6l18 16q2 4 5 0q29 -44 76.5 -51.5t80.5 28.5q14 15 15 41.5t-12 48.5t-40.5 32.5t-69.5 -5.5q-1 0 -3 2l-15 16q-4 4 0 5l126 126h-168q-5 0 -5 4v24q0 6 5 6h207q4 0 4 -6v-27q0 -2 -1 -4l-111 -108q35 4 63 -13.5
t41.5 -45t12 -59.5t-20.5 -56zM582 800q15 0 9 -12l-425 -777q-1 -1 -2 -3q-3 -8 -10 -8h-15q-14 0 -9 13l424 776q6 11 14 11h14zM683 135q4 0 4 -5v-23q0 -6 -4 -6h-49v-97q0 -4 -5 -4h-24q-4 0 -4 4v97h-139q-5 0 -5 6v23q0 3 3 4q66 45 90 115q19 54 19 106q0 4 4 4h26
q4 0 4 -4q0 -34 -10 -75.5t-25 -69.5q-20 -39 -62 -75h95v30q0 4 2 4l28 5q3 0 3 -4v-35h49z" />
    <glyph glyph-name="questiondown" unicode="&#xbf;" horiz-adv-x="461" 
d="M250 554q14 0 25 -11t11 -27q0 -15 -11 -26t-25 -11q-16 0 -26.5 11t-10.5 26q0 16 10.5 27t26.5 11zM443 -129q5 -5 0 -12q-55 -77 -138.5 -104t-165.5 1q-60 19 -94 74.5t-29 118.5t49 104q30 28 65.5 50.5t53.5 32t31 33t13 62.5q0 10 9 10h28q9 0 9 -10l1 -33
q0 -31 -22 -56.5t-53 -44.5l-62.5 -39t-53.5 -50.5t-22 -68.5q0 -29 8.5 -55t27.5 -49t53.5 -36.5t81.5 -13.5q34 0 64.5 10.5t53 28t37 33.5t26.5 33q5 6 10 1z" />
    <glyph glyph-name="Agrave" unicode="&#xc0;" horiz-adv-x="869" 
d="M320 1048q-10 5 -4 12l14 24q4 7 13 1l211 -148q7 -3 2 -10l-11 -18q-3 -9 -11 -4zM828 10q3 -10 -5 -10h-37q-6 0 -11 7l-77 165h-526l-78 -165q-4 -7 -10 -7h-38q-8 0 -5 10l375 787q3 8 11 8h15q8 0 11 -8zM194 218h482l-241 511z" />
    <glyph glyph-name="Aacute" unicode="&#xc1;" horiz-adv-x="869" 
d="M309 909l-11 18q-5 7 2 10l211 148q9 6 13 -1l14 -24q6 -7 -4 -12l-214 -143q-8 -5 -11 4zM828 10q3 -10 -5 -10h-37q-6 0 -11 7l-77 165h-526l-78 -165q-4 -7 -10 -7h-38q-8 0 -5 10l375 787q3 8 11 8h15q8 0 11 -8zM194 218h482l-241 511z" />
    <glyph glyph-name="Acircumflex" unicode="&#xc2;" horiz-adv-x="869" 
d="M244 888q-5 -2 -8.5 -0.5t-3.5 5.5v26q0 6 5 9l184 143q5 5 14 5t14 -5l184 -143q5 -3 5 -9v-26q0 -10 -12 -5l-191 141zM828 10q3 -10 -5 -10h-37q-6 0 -11 7l-77 165h-526l-78 -165q-4 -7 -10 -7h-38q-8 0 -5 10l375 787q3 8 11 8h15q8 0 11 -8zM194 218h482l-241 511z
" />
    <glyph glyph-name="Atilde" unicode="&#xc3;" horiz-adv-x="869" 
d="M226 961l-15 16q-5 5 0 10l1 1q5 7 12 15t23 22.5t39.5 23.5t48.5 9q34 0 62.5 -13.5t45.5 -30t42 -30t52 -13.5q14 0 28 3.5t24 8.5t19.5 11.5t15 11t10.5 9.5l5 5q6 6 9 1l17 -17q3 -4 -1 -10l-1 -1q-5 -6 -12 -13.5t-23 -21t-39.5 -22t-49.5 -8.5q-28 0 -50.5 9
t-38 21.5l-31 25t-36 21.5t-45.5 9q-55 0 -101 -52q-6 -6 -11 -1zM828 10q3 -10 -5 -10h-37q-6 0 -11 7l-77 165h-526l-78 -165q-3 -7 -10 -7h-38q-8 0 -5 10l375 787q3 8 11 8h15q8 0 11 -8zM194 218h482l-241 511z" />
    <glyph glyph-name="Adieresis" unicode="&#xc4;" horiz-adv-x="869" 
d="M294 1004q-14 0 -23 9t-9 22.5t9 23t23 9.5t23 -9t9 -23t-9 -23t-23 -9zM576.5 1004q-13.5 0 -23 9.5t-9.5 22.5t9.5 22.5t23 9.5t23 -9.5t9.5 -23t-9.5 -22.5t-23 -9zM828 10q3 -10 -5 -10h-37q-6 0 -11 7l-77 165h-526l-78 -165q-4 -7 -10 -7h-38q-8 0 -5 10l375 787
q3 8 11 8h15q8 0 11 -8zM194 218h482l-241 511z" />
    <glyph glyph-name="Aring" unicode="&#xc5;" horiz-adv-x="869" 
d="M436 842q-50 0 -85 34.5t-35 85.5q0 49 35 83.5t85 34.5q49 0 83.5 -34.5t34.5 -83.5q0 -51 -34.5 -85.5t-83.5 -34.5zM436 1046q-35 0 -60.5 -24.5t-25.5 -59.5q0 -37 25 -62t61 -25t61 25t25 62q0 35 -25 59.5t-61 24.5zM828 10q3 -10 -5 -10h-37q-6 0 -11 7l-77 165
h-526l-78 -165q-4 -7 -10 -7h-38q-8 0 -5 10l375 787q3 8 11 8h15q8 0 11 -8zM194 218h482l-241 511z" />
    <glyph glyph-name="AE" unicode="&#xc6;" horiz-adv-x="1150" 
d="M1082 752h-465v-334h300q10 0 10 -11v-25q0 -12 -10 -12h-300v-322h465q11 0 11 -11v-26q0 -11 -11 -11h-507q-9 0 -9 8v1v120h-391l-78 -122q-5 -7 -11 -7h-39q-4 0 -6 2.5t1 7.5l496 779q7 11 14 11h530q11 0 11 -10v-28q0 -10 -11 -10zM204 175h362v567z" />
    <glyph glyph-name="Ccedilla" unicode="&#xc7;" horiz-adv-x="797" 
d="M747 128q7 -7 -7 -21q-119 -114 -285 -114h-12l-40 -62q22 5 40 5q53 0 91 -38t38 -92t-38.5 -92.5t-93.5 -38.5q-71 0 -112 54q-3 5 0 8l9 10q10 10 15 3q14 -17 36.5 -30t48.5 -13q48 0 75.5 28.5t27.5 70.5q0 40 -26.5 69t-71.5 29q-25 0 -42.5 -9t-38.5 -31
q-9 -9 -13 -3l-12 12q-3 2 -1 6q0 1 5 8l68 109q-101 11 -184 66.5t-131 144t-48 192.5q0 112 55 206t149.5 148t205.5 54q83 0 157 -29.5t130 -83.5q13 -13 6 -19l-24 -20q-7 -8 -16 1q-40 40 -104 71t-140 31q-71 0 -132.5 -22t-104 -58t-73 -83t-45 -97t-14.5 -99
q0 -50 14.5 -100t44.5 -96.5t73 -82t104 -57t133 -21.5q135 0 241 101q11 11 17 6z" />
    <glyph glyph-name="Egrave" unicode="&#xc8;" horiz-adv-x="659" 
d="M225 1045q-10 5 -4 12l14 24q4 7 13 1l211 -148q7 -3 2 -10l-11 -18q-3 -9 -11 -4zM591 752h-465v-334h300q10 0 10 -11v-25q0 -12 -10 -12h-300v-322h465q11 0 11 -11v-26q0 -11 -11 -11h-507q-9 0 -9 9v781q0 10 11 10h505q11 0 11 -10v-28q0 -10 -11 -10z" />
    <glyph glyph-name="Eacute" unicode="&#xc9;" horiz-adv-x="659" 
d="M214 906l-11 18q-5 7 2 10l211 148q9 6 13 -1l14 -24q6 -7 -4 -12l-214 -143q-8 -5 -11 4zM591 752h-465v-334h300q10 0 10 -11v-25q0 -12 -10 -12h-300v-322h465q11 0 11 -11v-26q0 -11 -11 -11h-507q-9 0 -9 9v781q0 10 11 10h505q11 0 11 -10v-28q0 -10 -11 -10z" />
    <glyph glyph-name="Ecircumflex" unicode="&#xca;" horiz-adv-x="659" 
d="M149 885q-5 -2 -8.5 -0.5t-3.5 5.5v26q0 6 5 9l184 143q5 4 14 4t14 -4l184 -143q5 -3 5 -9v-26q0 -10 -12 -5l-191 141zM591 752h-465v-334h300q10 0 10 -11v-25q0 -12 -10 -12h-300v-322h465q11 0 11 -11v-26q0 -11 -11 -11h-507q-9 0 -9 9v781q0 10 11 10h505
q11 0 11 -10v-28q0 -10 -11 -10z" />
    <glyph glyph-name="Edieresis" unicode="&#xcb;" horiz-adv-x="659" 
d="M199 1001q-14 0 -23 9t-9 23t9 23t23 9t23 -9t9 -23t-9 -23t-23 -9zM482 1001q-14 0 -23.5 9.5t-9.5 22.5t9.5 22.5t23.5 9.5t23 -9.5t9 -23t-9 -22.5t-23 -9zM591 752h-465v-334h300q10 0 10 -11v-25q0 -12 -10 -12h-300v-322h465q11 0 11 -11v-26q0 -11 -11 -11h-507
q-9 0 -9 9v781q0 10 11 10h505q11 0 11 -10v-28q0 -10 -11 -10z" />
    <glyph glyph-name="Igrave" unicode="&#xcc;" horiz-adv-x="210" 
d="M-10 1039l214 -143q8 -5 11 4l11 18q5 7 -2 10l-211 148q-9 6 -13 -1l-14 -24q-6 -7 4 -12zM120 800h-30q-10 0 -10 -10v-781q0 -9 9 -9h32q9 0 9 9v781q0 10 -10 10z" />
    <glyph glyph-name="Iacute" unicode="&#xcd;" horiz-adv-x="210" 
d="M204 1039q10 5 4 12l-14 24q-4 7 -13 1l-211 -148q-7 -3 -2 -10l11 -18q3 -9 11 -4zM120 800h-30q-10 0 -10 -10v-781q0 -9 9 -9h32q9 0 9 9v781q0 10 -10 10z" />
    <glyph glyph-name="Icircumflex" unicode="&#xce;" horiz-adv-x="210" 
d="M91 1062l-184 -143q-5 -3 -5 -9v-26q0 -4 4 -5.5t8 0.5l191 141l191 -141q12 -5 12 5v26q0 6 -5 9l-184 143q-5 4 -14 4t-14 -4zM120 800h-30q-10 0 -10 -10v-781q0 -9 9 -9h32q9 0 9 9v781q0 10 -10 10z" />
    <glyph glyph-name="Idieresis" unicode="&#xcf;" horiz-adv-x="210" 
d="M-36 995q-14 0 -23 9.5t-9 22.5q0 14 9 23t23 9t23 -9t9 -23t-9 -23t-23 -9zM247 995q-14 0 -23.5 9.5t-9.5 22.5t9.5 22.5t23.5 9.5t23 -9t9 -23q0 -13 -9.5 -22.5t-22.5 -9.5zM120 800h-30q-10 0 -10 -10v-781q0 -9 9 -9h32q9 0 9 9v781q0 10 -10 10z" />
    <glyph glyph-name="Eth" unicode="&#xd0;" horiz-adv-x="814" 
d="M353 800q81 0 148.5 -22.5t114.5 -60.5t80 -88.5t48 -107t15 -116.5q0 -61 -15.5 -118.5t-48 -110t-79 -91.5t-113.5 -62t-147 -23h-277q-9 0 -9 9v367h-40q-10 0 -10 10v27q0 11 10 11h40v366q0 10 10 10h273zM362 48q83 0 150.5 30.5t110 81.5t65 114.5t21.5 131.5
q0 67 -22 128.5t-64 110.5t-109.5 78t-151.5 29h-243l1 -328h219q9 0 9 -9v-30q0 -9 -9 -9h-219l1 -328h241z" />
    <glyph glyph-name="Ntilde" unicode="&#xd1;" horiz-adv-x="830" 
d="M197 958l15 -16q5 -5 11 1q46 52 101 52q25 0 45.5 -9t36 -21.5l31 -25t38 -21.5t50.5 -9q26 0 49.5 8.5t39.5 22t23 21l13 13.5v1q4 6 1 10l-17 17q-3 5 -9 -1l-5 -5t-10.5 -9.5t-15 -11t-19.5 -11.5t-24 -8.5t-28 -3.5q-27 0 -52 13.5t-42 30t-45.5 30t-62.5 13.5
q-25 0 -48.5 -9t-39.5 -23.5t-23 -22.5t-12 -15l-1 -1q-5 -5 0 -10zM748 800q7 0 7 -7v-786q0 -7 -8 -7h-16q-12 0 -28 19l-579 693v-703q0 -9 -9 -9h-31q-9 0 -9 9v782q0 9 8 9h23q7 0 14 -9l586 -704v706q0 7 8 7h34z" />
    <glyph glyph-name="Ograve" unicode="&#xd2;" horiz-adv-x="942" 
d="M357 1049l214 -143q8 -5 11 4l11 18q5 7 -2 10l-211 148q-9 6 -13 -1l-14 -24q-6 -7 4 -12zM472 -7q112 0 206 53.5t149 147.5t55 206t-55 205.5t-149 147.5t-206 54t-207 -54t-150 -147.5t-55 -205.5t55 -206t150 -147.5t207 -53.5zM472 42q-98 0 -181.5 47.5t-132 130
t-48.5 180.5t48.5 180.5t132 130t181.5 47.5t180.5 -47.5t131 -130t48.5 -180.5t-48.5 -180.5t-131 -130t-180.5 -47.5z" />
    <glyph glyph-name="Oacute" unicode="&#xd3;" horiz-adv-x="942" 
d="M571 1049q10 5 4 12l-14 24q-4 7 -13 1l-211 -148q-7 -3 -2 -10l11 -18q3 -9 11 -4zM472 -7q112 0 206 53.5t149 147.5t55 206t-55 205.5t-149 147.5t-206 54t-207 -54t-150 -147.5t-55 -205.5t55 -206t150 -147.5t207 -53.5zM472 42q-98 0 -181.5 47.5t-132 130
t-48.5 180.5t48.5 180.5t132 130t181.5 47.5t180.5 -47.5t131 -130t48.5 -180.5t-48.5 -180.5t-131 -130t-180.5 -47.5z" />
    <glyph glyph-name="Ocircumflex" unicode="&#xd4;" horiz-adv-x="942" 
d="M458 1072l-184 -143q-5 -3 -5 -9v-26q0 -4 3.5 -5.5t8.5 0.5l191 141l191 -141q12 -5 12 5v26q0 6 -5 9l-184 143q-5 4 -14 4t-14 -4zM472 -7q112 0 206 53.5t149 147.5t55 206t-55 205.5t-149 147.5t-206 54t-207 -54t-150 -147.5t-55 -205.5t55 -206t150 -147.5
t207 -53.5zM472 42q-98 0 -181.5 47.5t-132 130t-48.5 180.5t48.5 180.5t132 130t181.5 47.5t180.5 -47.5t131 -130t48.5 -180.5t-48.5 -180.5t-131 -130t-180.5 -47.5z" />
    <glyph glyph-name="Otilde" unicode="&#xd5;" horiz-adv-x="942" 
d="M248 978l15 -16q5 -5 11 1q46 52 101 52q25 0 45.5 -9t36 -21.5l31 -25t38 -21.5t50.5 -9q26 0 49 8.5t39.5 22t23.5 21t12 13.5l1 1q4 6 1 10l-17 17q-3 5 -9 -1l-5 -5t-10.5 -9.5t-15 -11t-19.5 -11.5t-24 -8.5t-28 -3.5q-27 0 -52 13.5t-42 30t-45.5 30t-62.5 13.5
q-25 0 -48.5 -9t-39.5 -23.5t-23 -22.5t-12 -15l-1 -1q-5 -5 0 -10zM472 -7q112 0 206 53.5t149 147.5t55 206t-55 205.5t-149 147.5t-206 54t-207 -54t-150 -147.5t-55 -205.5t55 -206t150 -147.5t207 -53.5zM472 42q-98 0 -181.5 47.5t-132 130t-48.5 180.5t48.5 180.5
t132 130t181.5 47.5t180.5 -47.5t131 -130t48.5 -180.5t-48.5 -180.5t-131 -130t-180.5 -47.5z" />
    <glyph glyph-name="Odieresis" unicode="&#xd6;" horiz-adv-x="942" 
d="M331 1005q-14 0 -23 9t-9 22.5t9 23t23 9.5t23 -9t9 -23t-9 -23t-23 -9zM613.5 1005q-13.5 0 -23 9.5t-9.5 22.5t9.5 22.5t23 9.5t23 -9t9.5 -23t-9.5 -23t-23 -9zM472 -7q112 0 206 53.5t149 147.5t55 206t-55 205.5t-149 147.5t-206 54t-207 -54t-150 -147.5
t-55 -205.5t55 -206t150 -147.5t207 -53.5zM472 42q-98 0 -181.5 47.5t-132 130t-48.5 180.5t48.5 180.5t132 130t181.5 47.5t180.5 -47.5t131 -130t48.5 -180.5t-48.5 -180.5t-131 -130t-180.5 -47.5z" />
    <glyph glyph-name="multiply" unicode="&#xd7;" horiz-adv-x="488" 
d="M423 236q8 -7 1 -14l-19 -19q-7 -7 -13 1l-148 147l-148 -147q-6 -8 -13 -1l-19 19q-7 7 1 14l147 147l-148 148q-6 8 0 14l19 18q6 6 13 0l148 -148l148 148q7 6 13 0l19 -18q6 -6 0 -14l-148 -148z" />
    <glyph glyph-name="Oslash" unicode="&#xd8;" horiz-adv-x="973" 
d="M910 801q6 -6 -1 -14l-116 -116q104 -115 104 -271q0 -112 -55 -206t-149 -147.5t-206 -53.5q-155 0 -272 99l-115 -115q-8 -6 -14 0l-21 22q-8 8 0 13l114 115q-104 115 -104 273q0 112 55 205.5t150 147.5t207 54q156 0 271 -101l116 116q7 7 14 0zM125 400
q0 -136 90 -237l508 508q-102 87 -236 87q-98 0 -181.5 -47.5t-132 -130t-48.5 -180.5zM847 400q0 134 -89 236l-507 -508q102 -86 236 -86q98 0 180.5 47.5t131 130t48.5 180.5z" />
    <glyph glyph-name="Ugrave" unicode="&#xd9;" horiz-adv-x="768" 
d="M267 1032l214 -143q8 -5 11 4l11 18q5 7 -2 10l-211 148q-9 6 -13 -1l-14 -24q-6 -7 4 -12zM689 800h-31q-11 0 -11 -10v-479q0 -56 -17 -103t-44 -77t-62 -50.5t-71 -29.5t-71 -9t-70 9t-70 29.5t-61.5 51t-43 77t-16.5 102.5v479q0 10 -11 10h-29q-11 0 -11 -10v-493
q0 -59 22 -113.5t60.5 -97t98.5 -68t131 -25.5t131.5 25.5t100 68t62 97t22.5 113.5v493q0 6 -2 8t-7 2z" />
    <glyph glyph-name="Uacute" unicode="&#xda;" horiz-adv-x="768" 
d="M481 1032q10 5 4 12l-14 24q-4 7 -13 1l-211 -148q-7 -3 -2 -10l11 -18q3 -9 11 -4zM689 800h-31q-11 0 -11 -10v-479q0 -56 -17 -103t-44 -77t-62 -50.5t-71 -29.5t-71 -9t-70 9t-70 29.5t-61.5 51t-43 77t-16.5 102.5v479q0 10 -11 10h-29q-11 0 -11 -10v-493
q0 -59 22 -113.5t60.5 -97t98.5 -68t131 -25.5t131.5 25.5t100 68t62 97t22.5 113.5v493q0 6 -2 8t-7 2z" />
    <glyph glyph-name="Ucircumflex" unicode="&#xdb;" horiz-adv-x="768" 
d="M368 1055l-184 -143q-5 -3 -5 -9v-26q0 -4 3.5 -5.5t8.5 0.5l191 141l191 -141q12 -5 12 5v26q0 6 -5 9l-184 143q-5 4 -14 4t-14 -4zM689 800h-31q-11 0 -11 -10v-479q0 -56 -17 -103t-44 -77t-62 -50.5t-71 -29.5t-71 -9t-70 9t-70 29.5t-61.5 51t-43 77t-16.5 102.5
v479q0 10 -11 10h-29q-11 0 -11 -10v-493q0 -59 22 -113.5t60.5 -97t98.5 -68t131 -25.5t131.5 25.5t100 68t62 97t22.5 113.5v493q0 6 -2 8t-7 2z" />
    <glyph glyph-name="Udieresis" unicode="&#xdc;" horiz-adv-x="768" 
d="M241 988q-14 0 -23 9t-9 22.5t9 23t23 9.5t23 -9t9 -23t-9 -23t-23 -9zM523.5 988q-13.5 0 -23 9.5t-9.5 22.5t9.5 22.5t23 9.5t23 -9.5t9.5 -23t-9.5 -22.5t-23 -9zM689 800h-31q-11 0 -11 -10v-479q0 -56 -17 -103t-44 -77t-62 -50.5t-71 -29.5t-71 -9t-70 9t-70 29.5
t-61.5 51t-43 77t-16.5 102.5v479q0 10 -11 10h-29q-11 0 -11 -10v-493q0 -59 22 -113.5t60.5 -97t98.5 -68t131 -25.5t131.5 25.5t100 68t62 97t22.5 113.5v493q0 6 -2 8t-7 2z" />
    <glyph glyph-name="Yacute" unicode="&#xdd;" horiz-adv-x="740" 
d="M478 1033q10 5 4 12l-14 24q-4 7 -13 1l-211 -148q-7 -3 -2 -10l11 -18q3 -9 11 -4zM721 800q2 0 3.5 -2.5t-0.5 -4.5l-329 -458v-324q0 -11 -10 -11h-24q-16 0 -16 18v317l-329 458q-2 2 -0.5 4.5t3.5 2.5h44q4 0 8 -7l299 -410l298 410q5 7 9 7h44z" />
    <glyph glyph-name="Thorn" unicode="&#xde;" horiz-adv-x="622" 
d="M331 656q61 0 112 -23t83 -60t49 -80.5t17 -88.5q0 -49 -17 -95t-49 -83t-82.5 -59.5t-112.5 -22.5h-209v-133q0 -11 -9 -11h-28q-11 0 -11 11v779q0 10 10 10h28q10 0 10 -10v-134h209zM327 191q46 0 85 13.5t64.5 37.5t43 55.5t21 66t0 69.5t-21 66.5t-42.5 55.5
t-64 39t-86 15h-205v-418h205z" />
    <glyph glyph-name="germandbls" unicode="&#xdf;" horiz-adv-x="636" 
d="M444 420q147 -59 147 -204q0 -71 -33.5 -121.5t-85 -72.5t-115.5 -22h-35q-7 0 -7 7v28q0 8 11 8q219 3 219 176q0 78 -59.5 131t-170.5 53v31q0 8 5 9l43 1q145 6 145 131q0 74 -52.5 127.5t-147.5 53.5q-101 0 -155 -59.5t-54 -172.5l-1 -516q0 -8 -7 -8h-34q-7 0 -7 8
l1 527q0 129 69.5 198.5t187.5 69.5q109 0 178 -63.5t70 -164.5q0 -24 -4 -43.5t-14.5 -42t-34.5 -40t-59 -29.5z" />
    <glyph glyph-name="agrave" unicode="&#xe0;" horiz-adv-x="513" 
d="M151 776l214 -143q8 -5 11 4l11 18q5 7 -2 10l-211 148q-9 6 -13 -1l-14 -24q-6 -7 4 -12zM458 17q-12 126 -5 293q4 88 -41.5 139.5t-135.5 51.5q-111 0 -205 -52q-11 -5 -6 -15l10 -22q4 -7 15 -3q99 49 186 49q65 0 99 -36.5t31 -107.5q-77 -13 -127.5 -24t-99 -27
t-75.5 -34.5t-43 -45t-16 -60.5q0 -58 42 -93t115 -35q60 0 106.5 16t101.5 48q4 -59 13 -59h27q10 0 8 17zM210 35q-50 0 -83 22t-33 67q0 16 5 29.5t17 24.5t24 19.5t35 17l39 14t47 13t49 11t55 11.5q27 5 41 8q-5 -104 0 -172q-104 -65 -196 -65z" />
    <glyph glyph-name="aacute" unicode="&#xe1;" horiz-adv-x="513" 
d="M365 776q10 5 4 12l-14 24q-4 7 -13 1l-211 -148q-7 -3 -2 -10l11 -18q3 -9 11 -4zM458 17q-12 126 -5 293q4 88 -41.5 139.5t-135.5 51.5q-54 0 -109.5 -15t-95.5 -37q-11 -5 -6 -15l10 -22q5 -7 15 -3q99 49 186 49q65 0 99 -36.5t31 -107.5q-77 -13 -127.5 -24
t-99 -27t-75.5 -34.5t-43 -45t-16 -60.5q0 -58 42 -93t115 -35q60 0 106.5 16t101.5 48q4 -59 13 -59h27q10 0 8 17zM210 35q-50 0 -83 22t-33 67q0 16 5 29.5t17 24.5t24 19.5t35 17l39 14t47 13t49 11t55 11.5q27 5 41 8q-5 -104 0 -172q-104 -65 -196 -65z" />
    <glyph glyph-name="acircumflex" unicode="&#xe2;" horiz-adv-x="513" 
d="M252 799l-184 -143q-5 -3 -5 -9v-26q0 -11 12 -5l191 141l191 -141q12 -5 12 5v26q0 6 -5 9l-184 143q-5 4 -14 4t-14 -4zM458 17q-12 126 -5 293q4 88 -41.5 139.5t-135.5 51.5q-54 0 -109.5 -15t-95.5 -37q-11 -5 -6 -15l10 -22q4 -7 15 -3q99 49 186 49q65 0 99 -36.5
t31 -107.5q-77 -13 -127.5 -24t-99 -27t-75.5 -34.5t-43 -45t-16 -60.5q0 -58 42 -93t115 -35q60 0 106.5 16t101.5 48q4 -59 13 -59h27q10 0 8 17zM210 35q-50 0 -83 22t-33 67q0 16 5 29.5t17 24.5t24 19.5t35 17l39 14t47 13t49 11t55 11.5q27 5 41 8q-5 -104 0 -172
q-104 -65 -196 -65z" />
    <glyph glyph-name="atilde" unicode="&#xe3;" horiz-adv-x="513" 
d="M42 705l15 -16q5 -5 11 1q46 52 101 52q25 0 45.5 -9t36 -21.5l31 -25t38 -21.5t50.5 -9q26 0 49 8.5t39.5 22t23.5 21t12 13.5l1 1q4 6 1 10l-17 17q-3 5 -9 -1l-5 -5t-10.5 -9.5t-15 -11t-19.5 -11.5t-24 -8.5t-28 -3.5q-27 0 -52 13.5t-42 30t-45.5 30t-62.5 13.5
q-25 0 -48.5 -9t-39.5 -23.5t-23 -22.5t-12 -15l-1 -1q-5 -5 0 -10zM458 17q-12 126 -5 293q4 88 -41.5 139.5t-135.5 51.5q-54 0 -109.5 -15t-95.5 -37q-11 -5 -6 -15l10 -22q4 -7 15 -3q99 49 186 49q65 0 99 -36.5t31 -107.5q-77 -13 -127.5 -24t-99 -27t-75.5 -34.5
t-43 -45t-16 -60.5q0 -58 42 -93t115 -35q60 0 106.5 16t101.5 48q4 -59 13 -59h27q10 0 8 17zM210 35q-50 0 -83 22t-33 67q0 16 5 29.5t17 24.5t24 19.5t35 17l39 14t47 13t49 11t55 11.5q27 5 41 8q-5 -104 0 -172q-104 -65 -196 -65z" />
    <glyph glyph-name="adieresis" unicode="&#xe4;" horiz-adv-x="513" 
d="M125 732q-13 0 -22.5 9t-9.5 23t9.5 23t22.5 9q14 0 23 -9t9 -23t-9 -23t-23 -9zM407.5 732q-13.5 0 -23 9.5t-9.5 22.5t9.5 22.5t23.5 9.5t23 -9t9 -23t-9.5 -23t-23 -9zM458 17q-12 126 -5 293q4 88 -41.5 139.5t-135.5 51.5q-54 0 -109.5 -15t-95.5 -37q-11 -5 -6 -15
l10 -22q4 -7 15 -3q99 49 186 49q65 0 99 -36.5t31 -107.5q-77 -13 -127.5 -24t-99 -27t-75.5 -34.5t-43 -45t-16 -60.5q0 -58 42 -93t115 -35q60 0 106.5 16t101.5 48q4 -59 13 -59h27q10 0 8 17zM210 35q-50 0 -83 22t-33 67q0 16 5 29.5t17 24.5t24 19.5t35 17l39 14
t47 13t49 11t55 11.5q27 5 41 8q-5 -104 0 -172q-104 -65 -196 -65z" />
    <glyph glyph-name="aring" unicode="&#xe5;" horiz-adv-x="513" 
d="M267 570q-50 0 -85 34.5t-35 85.5q0 49 35 83.5t85 34.5q49 0 83.5 -34.5t34.5 -83.5q0 -51 -34.5 -85.5t-83.5 -34.5zM267 603q36 0 61 25t25 62q0 35 -25 59.5t-61 24.5q-35 0 -60.5 -24.5t-25.5 -59.5q0 -37 25 -62t61 -25zM458 17q-12 126 -5 293q4 88 -41.5 139.5
t-135.5 51.5q-54 0 -109.5 -15t-95.5 -37q-11 -5 -6 -15l10 -22q4 -7 15 -3q99 49 186 49q65 0 99 -36.5t31 -107.5q-77 -13 -127.5 -24t-99 -27t-75.5 -34.5t-43 -45t-16 -60.5q0 -58 42 -93t115 -35q60 0 106.5 16t101.5 48q4 -59 13 -59h27q10 0 8 17zM210 35
q-50 0 -83 22t-33 67q0 16 5 29.5t17 24.5t24 19.5t35 17l39 14t47 13t49 11t55 11.5q27 5 41 8q-5 -104 0 -172q-104 -65 -196 -65z" />
    <glyph glyph-name="ae" unicode="&#xe6;" horiz-adv-x="933" 
d="M893 256q0 -21 -9.5 -28.5t-27.5 -7.5h-400q7 -72 61 -127t144 -55q100 0 173 85q9 8 16 1l9 -11q6 -7 1 -14q-82 -105 -203 -105q-63 0 -116.5 27.5t-87.5 75.5q2 -54 5 -80q2 -17 -8 -17h-27q-9 0 -13 59q-55 -32 -101.5 -48t-106.5 -16q-73 0 -115 35t-42 93
q0 34 16 60.5t43 45t75.5 34.5t99 27t127.5 24q3 71 -31 107.5t-99 36.5q-87 0 -186 -49q-11 -5 -15 3l-10 22q-5 10 6 15q40 22 95.5 37t109.5 15q67 0 110 -29.5t59 -83.5q33 53 87 83.5t118 30.5q104 0 173.5 -72.5t69.5 -173.5zM455 261h389q0 31 -12 63.5t-34.5 63
t-61 50t-86.5 19.5t-87 -19t-61.5 -48.5t-34.5 -63t-12 -65.5zM210 35q92 0 196 65q-5 68 0 172q-14 -3 -41 -8q-37 -8 -55 -11.5t-49 -11t-47 -13l-39 -14t-35 -17t-24 -20t-17 -24.5t-5 -29q0 -45 33 -67t83 -22z" />
    <glyph glyph-name="ccedilla" unicode="&#xe7;" horiz-adv-x="527" 
d="M483 106q7 -7 1 -14q-81 -95 -185 -99l-40 -62q22 5 40 5q53 0 91 -38t38 -92q0 -53 -38.5 -92t-93.5 -39q-71 0 -112 54q-3 5 0 8l9 10q10 10 15 3q14 -17 36.5 -30t48.5 -13q48 0 75.5 28.5t27.5 70.5q0 40 -26.5 69t-71.5 29q-25 0 -42.5 -9t-38.5 -31q-9 -9 -13 -3
l-12 12q-3 2 -1 6q0 1 5 8l68 108q-96 10 -160 81t-64 171q0 108 73.5 181.5t178.5 73.5q55 0 103 -24.5t79 -62.5q7 -10 0 -15l-17 -18q-6 -5 -14 3q-59 72 -147 72q-52 0 -93.5 -19.5t-66 -51t-37 -67.5t-12.5 -72t12.5 -71.5t37 -67t66.5 -51t95 -19.5q84 0 154 85
q7 7 15 1z" />
    <glyph glyph-name="egrave" unicode="&#xe8;" horiz-adv-x="566" 
d="M169 775l214 -143q8 -5 11 4l11 18q5 7 -2 10l-211 148q-9 6 -13 -1l-14 -24q-6 -7 4 -12zM490 220q18 0 27.5 7.5t9.5 28.5q0 101 -69.5 173.5t-173.5 72.5q-103 0 -174 -73.5t-71 -180.5q0 -109 73 -181.5t179 -72.5q63 0 114.5 28.5t87.5 76.5q6 7 0 14l-10 11
q-6 7 -15 -1q-73 -85 -174 -85q-89 0 -143 55t-61 127h400zM89 261q0 32 12 65.5t34.5 63t61 48.5t86.5 19t87 -19.5t61.5 -50t34.5 -63t12 -63.5h-389z" />
    <glyph glyph-name="eacute" unicode="&#xe9;" horiz-adv-x="566" 
d="M383 775q10 5 4 12l-14 24q-4 7 -13 1l-211 -148q-7 -3 -2 -10l11 -18q3 -9 11 -4zM490 220q18 0 27.5 7.5t9.5 28.5q0 101 -69.5 173.5t-173.5 72.5q-103 0 -174 -73.5t-71 -180.5q0 -109 73 -181.5t179 -72.5q63 0 114.5 28.5t87.5 76.5q6 7 0 14l-10 11q-6 7 -15 -1
q-73 -85 -174 -85q-89 0 -143 55t-61 127h400zM89 261q0 32 12 65.5t34.5 63t61 48.5t86.5 19t87 -19.5t61.5 -50t34.5 -63t12 -63.5h-389z" />
    <glyph glyph-name="ecircumflex" unicode="&#xea;" horiz-adv-x="566" 
d="M270 798l-184 -143q-5 -3 -5 -9v-26q0 -4 3.5 -5.5t8.5 0.5l191 141l191 -141q12 -5 12 5v26q0 6 -5 9l-184 143q-5 4 -14 4t-14 -4zM490 220q18 0 27.5 7.5t9.5 28.5q0 101 -69.5 173.5t-173.5 72.5q-103 0 -174 -73.5t-71 -180.5q0 -109 73 -181.5t179 -72.5
q63 0 114.5 28.5t87.5 76.5q6 7 0 14l-10 11q-6 7 -15 -1q-73 -85 -174 -85q-89 0 -143 55t-61 127h400zM89 261q0 32 12 65.5t34.5 63t61 48.5t86.5 19t87 -19.5t61.5 -50t34.5 -63t12 -63.5h-389z" />
    <glyph glyph-name="edieresis" unicode="&#xeb;" horiz-adv-x="566" 
d="M143 731q-14 0 -23 9.5t-9 22.5t9 22.5t23 9.5t23 -9t9 -23t-9 -23t-23 -9zM425.5 731q-13.5 0 -23 9.5t-9.5 22.5t9.5 22.5t23 9.5t23 -9.5t9.5 -22.5t-9.5 -22.5t-23 -9.5zM490 220q18 0 27.5 7.5t9.5 28.5q0 101 -69.5 173.5t-173.5 72.5q-103 0 -174 -73.5
t-71 -180.5q0 -109 73 -181.5t179 -72.5q63 0 114.5 28.5t87.5 76.5q6 7 0 14l-10 11q-6 7 -15 -1q-73 -85 -174 -85q-89 0 -143 55t-61 127h400zM89 261q0 32 12 65.5t34.5 63t61 48.5t86.5 19t87 -19.5t61.5 -50t34.5 -63t12 -63.5h-389z" />
    <glyph glyph-name="igrave" unicode="&#xec;" horiz-adv-x="198" 
d="M-15 776l214 -143q8 -5 11 4l11 18q5 7 -2 10l-211 148q-9 6 -13 -1l-14 -24q-6 -7 4 -12zM113 495h-28q-10 0 -10 -10v-468q0 -17 15 -17h25q8 0 8 10v475q0 10 -10 10z" />
    <glyph glyph-name="iacute" unicode="&#xed;" horiz-adv-x="198" 
d="M199 776q10 5 4 12l-14 24q-4 7 -13 1l-211 -148q-7 -3 -2 -10l11 -18q3 -9 11 -4zM113 495h-28q-10 0 -10 -10v-468q0 -17 15 -17h25q8 0 8 10v475q0 10 -10 10z" />
    <glyph glyph-name="icircumflex" unicode="&#xee;" horiz-adv-x="198" 
d="M86 799l-184 -143q-5 -3 -5 -9v-26q0 -4 4 -5.5t8 0.5l191 141l191 -141q12 -5 12 5v26q0 6 -5 9l-184 143q-5 4 -14 4t-14 -4zM113 495h-28q-10 0 -10 -10v-468q0 -17 15 -17h25q8 0 8 10v475q0 10 -10 10z" />
    <glyph glyph-name="idieresis" unicode="&#xef;" horiz-adv-x="198" 
d="M-41 732q-13 0 -22.5 9t-9.5 23t9.5 23t22.5 9q14 0 23 -9t9 -23t-9 -23t-23 -9zM242 732q-14 0 -23.5 9.5t-9.5 22.5t9.5 22.5t23.5 9.5t23 -9.5t9 -23t-9 -22.5t-23 -9zM113 495h-28q-10 0 -10 -10v-468q0 -17 15 -17h25q8 0 8 10v475q0 10 -10 10z" />
    <glyph glyph-name="eth" unicode="&#xf0;" horiz-adv-x="596" 
d="M456 654q59 -71 79.5 -150t19.5 -172q-2 -152 -71.5 -245.5t-192.5 -93.5q-106 0 -178.5 73t-72.5 175t70.5 171.5t172.5 69.5q74 0 136.5 -45.5t85.5 -110.5q7 96 -20.5 177.5t-80.5 138.5l-155 -85q-10 -4 -15 4l-4 7q-5 10 5 14l148 81q-88 80 -194 80q-5 0 -7.5 1.5
t-1.5 5.5l3 32q0 7 9 7q129 -1 234 -102l59 32q9 5 14 -3l5 -8q4 -10 -5 -14l-52 -29zM492 239q1 79 -62.5 138.5t-146.5 59.5q-79 0 -137.5 -58.5t-58.5 -139.5t62.5 -141t143.5 -60q80 0 139 60.5t60 140.5z" />
    <glyph glyph-name="ntilde" unicode="&#xf1;" horiz-adv-x="570" 
d="M530 732q3 -4 -1 -10v-1l-13 -13.5t-23 -21t-39.5 -22t-49.5 -8.5q-28 0 -50.5 9t-38 21.5l-31 25t-36 21.5t-45.5 9q-55 0 -101 -52q-6 -6 -11 -1l-15 16q-5 5 0 10l1 1q5 7 12 15t23 22.5t39.5 23.5t48.5 9q34 0 62.5 -13.5t45.5 -30t42 -30t52 -13.5q14 0 28 3.5
t24 8.5t19.5 11.5t15 11t10.5 9.5l5 5q6 6 9 1zM518 89q0 -28 2 -76q0 -13 -8 -13h-25q-16 0 -16 18v289q0 68 -40 109t-117 41q-106 0 -206 -98v-348q0 -11 -8 -11h-32q-8 0 -8 11v475q0 9 8 9h25q6 0 10.5 -5.5t4.5 -11.5v-68q99 92 208 92q54 0 98.5 -19t74 -62
t29.5 -105v-227z" />
    <glyph glyph-name="ograve" unicode="&#xf2;" horiz-adv-x="592" 
d="M182 776l214 -143q8 -5 11 4l11 18q5 7 -2 10l-211 148q-9 6 -13 -1l-14 -24q-6 -7 4 -12zM297 -6q105 0 180 73.5t75 179.5q0 108 -75 182t-180 74q-107 0 -182 -74t-75 -182q0 -106 75.5 -179.5t181.5 -73.5zM297 40q-88 0 -148 62t-60 145q0 85 60 147.5t148 62.5
q86 0 146 -62.5t60 -147.5q0 -83 -60 -145t-146 -62z" />
    <glyph glyph-name="oacute" unicode="&#xf3;" horiz-adv-x="592" 
d="M396 776q10 5 4 12l-14 24q-4 7 -13 1l-211 -148q-7 -3 -2 -10l11 -18q3 -9 11 -4zM297 -6q105 0 180 73.5t75 179.5q0 108 -75 182t-180 74q-107 0 -182 -74t-75 -182q0 -106 75.5 -179.5t181.5 -73.5zM297 40q-87 0 -147.5 62t-60.5 145q0 85 60 147.5t148 62.5
q86 0 146 -62.5t60 -147.5q0 -83 -60 -145t-146 -62z" />
    <glyph glyph-name="ocircumflex" unicode="&#xf4;" horiz-adv-x="592" 
d="M283 799l-184 -143q-5 -3 -5 -9v-26q0 -4 3.5 -5.5t8.5 0.5l191 141l191 -141q12 -5 12 5v26q0 6 -5 9l-184 143q-5 4 -14 4t-14 -4zM297 -6q105 0 180 73.5t75 179.5q0 108 -75 182t-180 74q-107 0 -182 -74t-75 -182q0 -106 75.5 -179.5t181.5 -73.5zM297 40
q-87 0 -147.5 62t-60.5 145q0 85 60 147.5t148 62.5q86 0 146 -62.5t60 -147.5q0 -83 -60 -145t-146 -62z" />
    <glyph glyph-name="otilde" unicode="&#xf5;" horiz-adv-x="592" 
d="M73 705l15 -16q5 -5 11 1q46 52 101 52q25 0 45.5 -9t36 -21.5l31 -25t38 -21.5t50.5 -9q26 0 49 8.5t39.5 22t23.5 21t12 13.5l1 1q4 6 1 10l-17 17q-3 5 -9 -1l-5 -5t-10.5 -9.5t-15 -11t-19.5 -11.5t-24 -8.5t-28 -3.5q-27 0 -52 13.5t-42 30t-45.5 30t-62.5 13.5
q-25 0 -48.5 -9t-39.5 -23.5t-23 -22.5t-12 -15l-1 -1q-5 -5 0 -10zM297 -6q105 0 180 73.5t75 179.5q0 108 -75 182t-180 74q-107 0 -182 -74t-75 -182q0 -106 75.5 -179.5t181.5 -73.5zM297 40q-87 0 -147.5 62t-60.5 145q0 85 60 147.5t148 62.5q86 0 146 -62.5
t60 -147.5q0 -83 -60 -145t-146 -62z" />
    <glyph glyph-name="odieresis" unicode="&#xf6;" horiz-adv-x="592" 
d="M156 732q-14 0 -23 9t-9 23t9 23t23 9t23 -9t9 -23t-9 -23t-23 -9zM438.5 732q-13.5 0 -23 9.5t-9.5 22.5t9.5 22.5t23.5 9.5q13 0 22.5 -9t9.5 -23t-9.5 -23t-23 -9zM297 -6q105 0 180 73.5t75 179.5q0 108 -75 182t-180 74q-107 0 -182 -74t-75 -182
q0 -106 75.5 -179.5t181.5 -73.5zM297 40q-87 0 -147.5 62t-60.5 145q0 85 60 147.5t148 62.5q86 0 146 -62.5t60 -147.5q0 -83 -60 -145t-146 -62z" />
    <glyph glyph-name="divide" unicode="&#xf7;" horiz-adv-x="620" 
d="M308 567q-21 0 -36.5 15.5t-15.5 36.5q0 20 16 36t36 16q19 0 34 -16t15 -36q0 -22 -14.5 -37t-34.5 -15zM570 365q0 -10 -10 -10h-507q-11 0 -11 10v25q0 10 11 10h507q10 0 10 -9v-26zM308 81q-21 0 -36.5 15.5t-15.5 37.5q0 20 16 35.5t36 15.5q19 0 34 -15.5
t15 -35.5q0 -22 -14.5 -37.5t-34.5 -15.5z" />
    <glyph glyph-name="oslash" unicode="&#xf8;" horiz-adv-x="628" 
d="M585 497q5 -5 -1 -12l-72 -71q61 -72 61 -167q0 -106 -75 -179.5t-180 -73.5q-94 0 -166 59l-80 -80q-5 -4 -6.5 -4t-5.5 4l-16 17q-4 4 -4 5t4 6l80 80q-63 71 -63 166q0 108 75 182t182 74q95 0 167 -62l72 71q6 7 11 1zM110 247q0 -73 48 -132l293 292q-58 50 -133 50
q-88 0 -148 -62.5t-60 -147.5zM525 247q0 74 -47 132l-292 -292q58 -47 132 -47q86 0 146.5 62t60.5 145z" />
    <glyph glyph-name="ugrave" unicode="&#xf9;" 
d="M161 776q-10 5 -4 12l14 24q4 7 13 1l211 -148q7 -3 2 -10l-11 -18q-3 -9 -11 -4zM501 495q8 0 8 -11v-476q0 -8 -7 -8h-28q-4 0 -8 5.5t-4 10.5v69q-99 -92 -208 -92q-85 0 -143.5 48t-58.5 139v225q0 27 -2 77q0 13 7 13h26q16 0 16 -19v-288q0 -67 40 -109t117 -42
q60 0 109 27t97 74v346q0 11 8 11h31z" />
    <glyph glyph-name="uacute" unicode="&#xfa;" 
d="M150 637l-11 18q-5 7 2 10l211 148q9 6 13 -1l14 -24q6 -7 -4 -12l-214 -143q-8 -5 -11 4zM501 495q8 0 8 -11v-476q0 -8 -7 -8h-28q-4 0 -8 5.5t-4 10.5v69q-99 -92 -208 -92q-85 0 -143.5 48t-58.5 139v225q0 27 -2 77q0 13 7 13h26q16 0 16 -19v-288q0 -67 40 -109
t117 -42q60 0 109 27t97 74v346q0 11 8 11h31z" />
    <glyph glyph-name="ucircumflex" unicode="&#xfb;" 
d="M85 616q-12 -6 -12 5v26q0 6 5 9l184 143q5 4 14 4t14 -4l184 -143q5 -3 5 -9v-26q0 -10 -12 -5l-191 141zM501 495q8 0 8 -11v-476q0 -8 -7 -8h-28q-4 0 -8 5.5t-4 10.5v69q-99 -92 -208 -92q-84 0 -143 48t-59 139v225q0 27 -2 77q0 13 7 13h26q16 0 16 -19v-288
q0 -67 40 -109t117 -42q60 0 109 27t97 74v346q0 11 8 11h31z" />
    <glyph glyph-name="udieresis" unicode="&#xfc;" 
d="M135 732q-14 0 -23 9t-9 23t9 23t23 9t23 -9t9 -23t-9 -23t-23 -9zM417.5 732q-13.5 0 -23 9.5t-9.5 22.5t9.5 22.5t23 9.5t23 -9t9.5 -23t-9.5 -23t-23 -9zM501 495q8 0 8 -11v-476q0 -8 -7 -8h-28q-4 0 -8 5.5t-4 10.5v69q-99 -92 -208 -92q-85 0 -143.5 48t-58.5 139
v225q0 27 -2 77q0 13 7 13h26q16 0 16 -19v-288q0 -67 40 -109t117 -42q60 0 109 27t97 74v346q0 11 8 11h31z" />
    <glyph glyph-name="yacute" unicode="&#xfd;" horiz-adv-x="541" 
d="M378 776q10 5 4 12l-14 24q-4 7 -13 1l-211 -148q-7 -3 -2 -10l11 -18q3 -9 11 -4zM509 495q11 0 6 -10l-211 -436q-104 -213 -238 -358q-7 -6 -15 2l-18 17q-7 7 2 18q59 68 120.5 158t94.5 167l-216 433q-4 9 5 9h40q7 0 8 -6l190 -385l184 383q5 8 11 8h37z" />
    <glyph glyph-name="thorn" unicode="&#xfe;" horiz-adv-x="573" 
d="M282 499q94 0 163 -69.5t69 -179.5t-62.5 -183.5t-166.5 -73.5q-48 0 -93.5 17.5t-80.5 45.5v-330q0 -10 -6.5 -15t-15.5 -5h-18q-8 0 -8 8v1023q0 3 -3 51q0 12 8 12h27q16 0 16 -16v-339q76 54 171 54zM277 38q84 0 137 59.5t53 152.5q0 65 -29.5 113t-72.5 69.5
t-91 21.5q-86 0 -163 -58v-296q81 -62 166 -62z" />
    <glyph glyph-name="ydieresis" unicode="&#xff;" horiz-adv-x="541" 
d="M138 732q-14 0 -23 9t-9 23t9 23t23 9t23 -9t9 -23t-9 -23t-23 -9zM420.5 732q-13.5 0 -23 9.5t-9.5 22.5t9.5 22.5t23 9.5t23 -9t9.5 -23t-9.5 -23t-23 -9zM509 495q11 0 6 -10l-211 -436q-104 -213 -238 -358q-7 -6 -15 2l-18 17q-7 7 2 18q59 68 120.5 158t94.5 167
l-216 433q-4 9 5 9h40q7 0 8 -6l190 -385l184 383q5 8 11 8h37z" />
    <glyph glyph-name="Amacron" unicode="&#x100;" horiz-adv-x="869" 
d="M228 994q-9 0 -9 9v23q0 8 9 8h413q10 0 10 -8v-23q0 -9 -10 -9h-413zM828 10q3 -10 -5 -10h-37q-6 0 -11 7l-77 165h-526l-78 -165q-4 -7 -10 -7h-38q-8 0 -5 10l375 787q3 8 11 8h15q8 0 11 -8zM194 218h482l-241 511z" />
    <glyph glyph-name="amacron" unicode="&#x101;" horiz-adv-x="513" 
d="M50 754q0 8 9 8h413q10 0 10 -8v-23q0 -9 -10 -9h-413q-9 0 -9 9v23zM458 17q-12 126 -5 293q4 88 -41.5 139.5t-135.5 51.5q-54 0 -109.5 -15t-95.5 -37q-11 -5 -6 -15l10 -22q4 -7 15 -3q99 49 186 49q65 0 99 -36.5t31 -107.5q-77 -13 -127.5 -24t-99 -27t-75.5 -34.5
t-43 -45t-16 -60.5q0 -58 42 -93t115 -35q60 0 106.5 16t101.5 48q4 -59 13 -59h27q10 0 8 17zM210 35q-50 0 -83 22t-33 67q0 16 5 29.5t17 24.5t24 19.5t35 17l39 14t47 13t49 11t55 11.5q27 5 41 8q-5 -104 0 -172q-104 -65 -196 -65z" />
    <glyph glyph-name="Abreve" unicode="&#x102;" horiz-adv-x="869" 
d="M435 890q-77 0 -128 47t-57 120q0 16 7 16h27q3 0 7 -13q8 -65 51 -98t93 -33q47 0 91.5 33.5t52.5 95.5q4 15 8 15h26q9 0 7 -17q-7 -72 -58 -119t-127 -47zM828 10q3 -10 -5 -10h-37q-6 0 -11 7l-77 165h-526l-78 -165q-3 -7 -10 -7h-38q-8 0 -5 10l375 787q3 8 11 8
h15q8 0 11 -8zM194 218h482l-241 511z" />
    <glyph glyph-name="abreve" unicode="&#x103;" horiz-adv-x="513" 
d="M81 785q6 -73 57 -120t128 -47q76 0 127 47t58 119q2 17 -7 17h-26q-4 0 -8 -15q-8 -62 -52.5 -95.5t-91.5 -33.5q-50 0 -93 33t-51 98q-4 13 -7 13h-27q-7 0 -7 -16zM458 17q-12 126 -5 293q4 88 -41.5 139.5t-135.5 51.5q-54 0 -109.5 -15t-95.5 -37q-11 -5 -6 -15
l10 -22q4 -7 15 -3q99 49 186 49q65 0 99 -36.5t31 -107.5q-77 -13 -127.5 -24t-99 -27t-75.5 -34.5t-43 -45t-16 -60.5q0 -58 42 -93t115 -35q60 0 106.5 16t101.5 48q4 -59 13 -59h27q10 0 8 17zM210 35q-50 0 -83 22t-33 67q0 16 5 29.5t17 24.5t24 19.5t35 17l39 14
t47 13t49 11t55 11.5q27 5 41 8q-5 -104 0 -172q-104 -65 -196 -65z" />
    <glyph glyph-name="Aogonek" unicode="&#x104;" horiz-adv-x="869" 
d="M858 -204q4 2 8.5 0t4.5 -6v-17q0 -6 -9 -10q-53 -35 -125 -32q-51 3 -83.5 27.5t-32.5 74.5q0 51 49.5 97t120.5 70h-5q-6 0 -11 7l-77 165h-526l-78 -165q-4 -7 -10 -7h-38q-8 0 -5 10l375 787q3 8 11 8h15q8 0 11 -8l375 -787q3 -10 -5 -10h-4q-161 -73 -161 -158
q0 -42 28 -59.5t64 -17.5q57 0 108 31zM194 218h482l-241 511z" />
    <glyph glyph-name="aogonek" unicode="&#x105;" horiz-adv-x="513" 
d="M491 -204q4 2 8.5 0t4.5 -6v-17q0 -6 -9 -10q-53 -35 -125 -32q-51 3 -83.5 27.5t-32.5 74.5t49.5 96.5t120.5 70.5h-1q-9 0 -13 59q-55 -32 -101.5 -48t-106.5 -16q-73 0 -115 35t-42 93q0 34 16 60.5t43 45t75.5 34.5t99 27t127.5 24q3 71 -31 107.5t-99 36.5
q-87 0 -186 -49q-11 -5 -15 3l-10 22q-5 10 6 15q40 22 95.5 37t109.5 15q90 0 135.5 -51.5t41.5 -139.5q-7 -167 5 -293q2 -17 -8 -17h2q-161 -73 -161 -158q0 -42 28 -59.5t64 -17.5q57 0 108 31zM406 100q-5 68 0 172q-14 -3 -41 -8q-37 -8 -55 -11.5t-49 -11t-47 -13
l-39 -14t-35 -17t-24 -20t-17 -24.5t-5 -29q0 -45 33 -67t83 -22q92 0 196 65z" />
    <glyph glyph-name="Cacute" unicode="&#x106;" horiz-adv-x="797" 
d="M552 1039q10 5 4 12l-14 24q-4 7 -13 1l-211 -148q-7 -3 -2 -10l11 -18q3 -9 11 -4zM747 128q7 -7 -7 -21q-119 -114 -285 -114q-111 0 -205.5 53.5t-149.5 147t-55 205.5t55 206t149.5 148t205.5 54q83 0 157 -29.5t130 -83.5q13 -13 6 -19l-24 -20q-7 -8 -16 1
q-40 40 -104 71t-140 31q-71 0 -132.5 -22t-104.5 -58t-73 -83t-44.5 -97t-14.5 -99q0 -50 14.5 -100t44.5 -96.5t73 -82t104 -57t133 -21.5q135 0 241 101q11 11 17 6z" />
    <glyph glyph-name="cacute" unicode="&#x107;" horiz-adv-x="527" 
d="M376 776q10 5 4 12l-14 24q-4 7 -13 1l-211 -148q-7 -3 -2 -10l11 -18q3 -9 11 -4zM483 106q7 -7 1 -14q-85 -99 -192 -99q-105 0 -178.5 73t-73.5 181t73.5 181.5t178.5 73.5q55 0 103 -24.5t79 -62.5q7 -10 0 -15l-17 -18q-6 -5 -14 3q-59 72 -147 72
q-52 0 -93.5 -19.5t-66 -51t-37 -67.5t-12.5 -72t12.5 -71.5t37 -67t66.5 -51t95 -19.5q84 0 154 85q7 7 15 1z" />
    <glyph glyph-name="Cdotaccent" unicode="&#x10a;" horiz-adv-x="797" 
d="M453 997q-13 0 -22 9t-9 22t9 22t22 9t22 -9t9 -22t-9 -22t-22 -9zM747 128q7 -7 -7 -21q-119 -114 -285 -114q-111 0 -205.5 53.5t-149.5 147t-55 205.5t55 206t149.5 148t205.5 54q83 0 157 -29.5t130 -83.5q13 -13 6 -19l-24 -20q-7 -8 -16 1q-40 40 -104 71t-140 31
q-71 0 -132.5 -22t-104.5 -58t-73 -83t-44.5 -97t-14.5 -99q0 -50 14.5 -100t44.5 -96.5t73 -82t104 -57t133 -21.5q135 0 241 101q11 11 17 6z" />
    <glyph glyph-name="cdotaccent" unicode="&#x10b;" horiz-adv-x="527" 
d="M277 734q-13 0 -22 9t-9 22t9 22t22 9t22 -9t9 -22t-9 -22t-22 -9zM483 106q7 -7 1 -14q-85 -99 -192 -99q-105 0 -178.5 73t-73.5 181t73.5 181.5t178.5 73.5q55 0 103 -24.5t79 -62.5q7 -10 0 -15l-17 -18q-6 -5 -14 3q-59 72 -147 72q-101 0 -155 -65t-54 -145
q0 -49 21 -95t70.5 -80t119.5 -34q84 0 154 85q7 7 15 1z" />
    <glyph glyph-name="Ccaron" unicode="&#x10c;" horiz-adv-x="797" 
d="M467 869l184 143q5 3 5 9v26q0 11 -12 4l-191 -140l-191 140q-12 7 -12 -4v-26q0 -6 5 -9l184 -143q5 -5 14 -5t14 5zM747 128q7 -7 -7 -21q-119 -114 -285 -114q-111 0 -205.5 53.5t-149.5 147t-55 205.5t55 206t149.5 148t205.5 54q83 0 157 -29.5t130 -83.5
q13 -13 6 -19l-24 -20q-7 -8 -16 1q-40 40 -104 71t-140 31q-71 0 -132.5 -22t-104 -58t-73 -83t-45 -97t-14.5 -99q0 -50 14.5 -100t44.5 -96.5t73 -82t104 -57t133 -21.5q135 0 241 101q11 11 17 6z" />
    <glyph glyph-name="ccaron" unicode="&#x10d;" horiz-adv-x="527" 
d="M291 606l184 143q5 3 5 9v26q0 11 -12 4l-191 -140l-191 140q-12 7 -12 -4v-26q0 -6 5 -9l184 -143q5 -5 14 -5t14 5zM483 106q7 -7 1 -14q-85 -99 -192 -99q-105 0 -178.5 73t-73.5 181t73.5 181.5t178.5 73.5q55 0 103 -24.5t79 -62.5q7 -10 0 -15l-17 -18q-6 -5 -14 3
q-59 72 -147 72q-52 0 -93.5 -19.5t-66 -51t-37 -67.5t-12.5 -72t12.5 -71.5t37 -67t66.5 -51t95 -19.5q84 0 154 85q7 7 15 1z" />
    <glyph glyph-name="Dcaron" unicode="&#x10e;" horiz-adv-x="804" 
d="M389 866l184 143q5 3 5 9v26q0 11 -12 4l-191 -140l-191 140q-12 7 -12 -4v-26q0 -6 5 -9l184 -143q5 -5 14 -5t14 5zM343 800q81 0 148.5 -22.5t114.5 -60.5t80 -88.5t48 -107t15 -116.5q0 -61 -15.5 -118.5t-48 -110t-79 -91.5t-113.5 -62t-147 -23h-277q-9 0 -9 9v781
q0 10 10 10h273zM352 48q83 0 150.5 30.5t110 81.5t65 114.5t21.5 131.5q0 67 -22 128.5t-64 110.5t-109.5 78t-151.5 29h-243l2 -704h241z" />
    <glyph glyph-name="dcaron" unicode="&#x10f;" horiz-adv-x="669" 
d="M643 757q2 -41 -8 -98q-11 -50 -43 -97q-6 -7 -12 -6l-6 5q-7 2 -3 9q31 46 34 98q1 25 0 48h-3q-40 0 -40 43q0 23 8.5 32.5t31.5 9.5q21 0 29 -7.5t10 -25.5q2 -6 2 -11zM479 800q16 0 16 -16v-776q0 -8 -8 -8h-18q-9 0 -15.5 5t-6.5 15v37q-34 -29 -80.5 -46.5
t-94.5 -17.5q-104 0 -168 74t-64 183q0 110 70.5 179.5t164.5 69.5q96 0 172 -54v292q0 10 -1 26.5t-1 24.5q-2 12 7 12h27zM280 38q87 0 167 63v295q-77 58 -164 58q-35 0 -69 -13t-62.5 -37.5t-46 -64.5t-17.5 -89q0 -93 54 -152.5t138 -59.5z" />
    <glyph glyph-name="Dcroat" unicode="&#x110;" horiz-adv-x="814" 
d="M353 800q81 0 148.5 -22.5t114.5 -60.5t80 -88.5t48 -107t15 -116.5q0 -61 -15.5 -118.5t-48 -110t-79 -91.5t-113.5 -62t-147 -23h-277q-9 0 -9 9v367h-40q-10 0 -10 10v27q0 11 10 11h40v366q0 10 10 10h273zM362 48q83 0 150.5 30.5t110 81.5t65 114.5t21.5 131.5
q0 67 -22 128.5t-64 110.5t-109.5 78t-151.5 29h-243l1 -328h219q9 0 9 -9v-30q0 -9 -9 -9h-219l1 -328h241z" />
    <glyph glyph-name="dcroat" unicode="&#x111;" horiz-adv-x="616" 
d="M587 700q9 0 9 -9v-23q0 -8 -9 -8h-92v-652q0 -8 -8 -8h-18q-9 0 -15.5 5t-6.5 15v37q-34 -29 -80.5 -46.5t-94.5 -17.5q-104 0 -168 74t-64 183q0 110 70.5 179.5t164.5 69.5q96 0 172 -54v215h-274q-9 0 -9 8v23q0 9 9 9h274v37q0 11 -1 27t-1 24q-2 12 7 12h27
q16 0 16 -16v-84h92zM280 38q87 0 167 63v295q-77 58 -164 58q-35 0 -69 -13t-62.5 -37.5t-46 -64.5t-17.5 -89q0 -93 54 -152.5t138 -59.5z" />
    <glyph glyph-name="Emacron" unicode="&#x112;" horiz-adv-x="659" 
d="M133 991q-9 0 -9 9v23q0 8 9 8h413q10 0 10 -8v-23q0 -9 -10 -9h-413zM591 752h-465v-334h300q10 0 10 -11v-25q0 -12 -10 -12h-300v-322h465q11 0 11 -11v-26q0 -11 -11 -11h-507q-9 0 -9 9v781q0 10 11 10h505q11 0 11 -10v-28q0 -10 -11 -10z" />
    <glyph glyph-name="emacron" unicode="&#x113;" horiz-adv-x="566" 
d="M68 753q0 8 9 8h413q10 0 10 -8v-23q0 -9 -10 -9h-413q-9 0 -9 9v23zM490 220q18 0 27.5 7.5t9.5 28.5q0 101 -69.5 173.5t-173.5 72.5q-103 0 -174 -73.5t-71 -180.5q0 -109 73 -181.5t179 -72.5q63 0 114.5 28.5t87.5 76.5q6 7 0 14l-10 11q-6 7 -15 -1
q-73 -85 -174 -85q-89 0 -143 55t-61 127h400zM89 261q0 32 12 65.5t34.5 63t61 48.5t86.5 19t87 -19.5t61.5 -50t34.5 -63t12 -63.5h-389z" />
    <glyph glyph-name="Edotaccent" unicode="&#x116;" horiz-adv-x="659" 
d="M340 1003q-13 0 -22 9t-9 22t9 22t22 9t22 -9t9 -22t-9 -22t-22 -9zM591 752h-465v-334h300q10 0 10 -11v-25q0 -12 -10 -12h-300v-322h465q11 0 11 -11v-26q0 -11 -11 -11h-507q-9 0 -9 9v781q0 10 11 10h505q11 0 11 -10v-28q0 -10 -11 -10z" />
    <glyph glyph-name="edotaccent" unicode="&#x117;" horiz-adv-x="566" 
d="M284 733q-13 0 -22 9t-9 22t9 22t22 9t22 -9t9 -22t-9 -22t-22 -9zM490 220q18 0 27.5 7.5t9.5 28.5q0 101 -69.5 173.5t-173.5 72.5q-103 0 -174 -73.5t-71 -180.5q0 -109 73 -181.5t179 -72.5q63 0 114.5 28.5t87.5 76.5q6 7 0 14l-10 11q-6 7 -15 -1q-73 -85 -174 -85
q-89 0 -143 55t-61 127h400zM89 261q0 32 12 65.5t34.5 63t61 48.5t86.5 19t87 -19.5t61.5 -50t34.5 -63t12 -63.5h-389z" />
    <glyph glyph-name="Eogonek" unicode="&#x118;" horiz-adv-x="659" 
d="M591 752h-465v-334h300q10 0 10 -11v-25q0 -12 -10 -12h-300v-322h465q11 0 11 -11v-26q0 -11 -11 -11h-42q-73 -33 -117 -73.5t-44 -84.5q0 -42 28 -59.5t64 -17.5q57 0 108 31q4 2 8.5 0t4.5 -6v-17q0 -6 -9 -10q-53 -35 -125 -32q-51 3 -83.5 27.5t-32.5 74.5
q0 51 49.5 97t120.5 70h-437q-9 0 -9 9v781q0 10 11 10h505q11 0 11 -10v-28q0 -10 -11 -10z" />
    <glyph glyph-name="eogonek" unicode="&#x119;" horiz-adv-x="566" 
d="M527 256q0 -21 -9.5 -28.5t-27.5 -7.5h-400q7 -72 61 -127t143 -55q101 0 174 85q9 8 15 1l10 -11q6 -7 0 -14q-61 -79 -149 -99h1q-73 -33 -117 -73.5t-44 -84.5q0 -42 28 -59.5t64 -17.5q57 0 108 31q4 2 8.5 0t4.5 -6v-17q0 -5 -9 -10q-53 -35 -125 -32
q-51 3 -83.5 27.5t-32.5 74.5q0 48 44.5 92t110.5 69h-11q-106 0 -179 72.5t-73 181.5q0 107 71 180.5t174 73.5q104 0 173.5 -72.5t69.5 -173.5zM89 261h389q0 31 -12 63.5t-34.5 63t-61.5 50t-87 19.5t-86.5 -19t-61 -48.5t-34.5 -63t-12 -65.5z" />
    <glyph glyph-name="Ecaron" unicode="&#x11a;" horiz-adv-x="659" 
d="M142 1018q-5 3 -5 9v26q0 11 12 4l191 -140l191 140q12 7 12 -4v-26q0 -6 -5 -9l-184 -143q-5 -5 -14 -5t-14 5zM591 752h-465v-334h300q10 0 10 -11v-25q0 -12 -10 -12h-300v-322h465q11 0 11 -11v-26q0 -11 -11 -11h-507q-9 0 -9 9v781q0 10 11 10h505q11 0 11 -10v-28
q0 -10 -11 -10z" />
    <glyph glyph-name="ecaron" unicode="&#x11b;" horiz-adv-x="566" 
d="M298 605l184 143q5 3 5 9v26q0 11 -12 4l-191 -140l-191 140q-12 7 -12 -4v-26q0 -6 5 -9l184 -143q5 -5 14 -5t14 5zM490 220q18 0 27.5 7.5t9.5 28.5q0 101 -69.5 173.5t-173.5 72.5q-103 0 -174 -73.5t-71 -180.5q0 -109 73 -181.5t179 -72.5q63 0 114.5 28.5
t87.5 76.5q6 7 0 14l-10 11q-6 7 -15 -1q-73 -85 -174 -85q-89 0 -143 55t-61 127h400zM89 261q1 72 51.5 134t142.5 62t143 -63.5t52 -132.5h-389z" />
    <glyph glyph-name="Gbreve" unicode="&#x11e;" horiz-adv-x="797" 
d="M439 883q-77 0 -128 47t-57 120q0 16 7 16h27q3 0 7 -13q8 -65 51 -98t93 -33q47 0 91.5 33.5t52.5 95.5q4 15 8 15h26q9 0 7 -17q-7 -72 -58 -119t-127 -47zM739 294q7 0 9 -2t2 -9v-159q0 -7 -10 -17q-119 -114 -285 -114q-111 0 -205.5 53.5t-149.5 147t-55 205
t55 206t149.5 148.5t205.5 54q83 0 157 -29.5t130 -83.5q13 -13 6 -19l-24 -20q-7 -8 -16 1q-40 40 -104 71t-140 31q-71 0 -132.5 -22t-104 -58t-73 -83t-45 -97t-14.5 -99q0 -50 14.5 -100t44.5 -96.5t73 -82t104.5 -57t132.5 -21.5q73 0 133.5 28t102.5 68v109h-234
q-11 0 -11 9v28q0 10 10 10h274z" />
    <glyph glyph-name="gbreve" unicode="&#x11f;" horiz-adv-x="615" 
d="M124 785q6 -73 57 -120t128 -47q76 0 127 47t58 119q2 17 -7 17h-26q-4 0 -8 -15q-8 -62 -52.5 -95.5t-91.5 -33.5q-50 0 -93 33t-51 98q-4 13 -7 13h-27q-7 0 -7 -16zM413 -34q30 -4 51 -9t46 -15t40 -23.5t24 -36.5t7 -52q-5 -60 -46.5 -102.5t-103.5 -62t-136 -19.5
q-106 0 -171.5 45t-62.5 131q3 50 32 83.5t77 49.5q-56 6 -94 30.5t-41 64.5q-3 41 30.5 65.5t79.5 11.5q-25 20 -44 58.5t-20 84.5q-4 97 60 163.5t160 66.5q31 0 87.5 -5.5t132.5 -3.5q9 0 9 -6l-1 -29q-29 -6 -95 -4q31 -20 52 -44.5t29.5 -51.5t11.5 -46.5t3 -43.5
q0 -95 -64.5 -152.5t-158.5 -55.5q-71 1 -132 40q-39 11 -67.5 -1t-25.5 -40q3 -29 37 -44.5t99 -22.5q28 -3 97.5 -11.5t97.5 -12.5zM306 454q-76 0 -128 -51t-51 -128q-1 -69 52.5 -119.5t125.5 -51.5q83 -1 130 46.5t48 124.5q-1 78 -52 128.5t-125 50.5zM301 -308
q94 0 160 37.5t69 98.5q2 38 -21 58.5t-87 31.5q-51 9 -189 24q-39 5 -80 -28t-44 -88q-2 -46 26 -77.5t70.5 -44t95.5 -12.5z" />
    <glyph glyph-name="Gdotaccent" unicode="&#x120;" horiz-adv-x="797" 
d="M439 999q-13 0 -22 9t-9 22t9 22t22 9t22 -9t9 -22t-9 -22t-22 -9zM739 294q7 0 9 -2t2 -9v-159q0 -7 -10 -17q-119 -114 -285 -114q-111 0 -205.5 53.5t-149.5 147t-55 205.5t55 206t149.5 148t205.5 54q83 0 157 -29.5t130 -83.5q13 -13 6 -19l-24 -20q-7 -8 -16 1
q-40 40 -104 71t-140 31q-71 0 -132.5 -22t-104 -58t-73 -83t-45 -97t-14.5 -99q0 -50 14.5 -100t44.5 -96.5t73 -82t104 -57t133 -21.5q73 0 133.5 28t102.5 68v109h-234q-11 0 -11 9v28q0 10 10 10h274z" />
    <glyph glyph-name="gdotaccent" unicode="&#x121;" horiz-adv-x="615" 
d="M309 734q-13 0 -22 9t-9 22t9 22t22 9t22 -9t9 -22t-9 -22t-22 -9zM413 -34q30 -4 51 -9t46 -15t40 -23.5t24 -36.5t7 -52q-5 -60 -46.5 -102.5t-103.5 -62t-136 -19.5q-106 0 -171.5 45t-62.5 131q3 50 32 83.5t77 49.5q-56 6 -94 30.5t-41 64.5q-3 41 30.5 65.5
t79.5 11.5q-25 20 -44 58.5t-20 84.5q-4 97 60 163.5t160 66.5q31 0 87.5 -5.5t132.5 -3.5q9 0 9 -6l-1 -29q-29 -6 -95 -4q31 -20 52 -44.5t29.5 -51.5t11.5 -46.5t3 -43.5q0 -95 -64.5 -152.5t-158.5 -55.5q-71 1 -132 40q-39 11 -67.5 -1t-25.5 -40q3 -29 37 -44.5
t99 -22.5q28 -3 97.5 -11.5t97.5 -12.5zM306 454q-76 0 -128 -51t-51 -128q-1 -69 52.5 -119.5t125.5 -51.5q83 -1 130 46.5t48 124.5q-1 78 -52 128.5t-125 50.5zM301 -308q94 0 160 37.5t69 98.5q2 38 -21 58.5t-87 31.5q-51 9 -189 24q-39 5 -80 -28t-44 -88
q-2 -46 26 -77.5t70.5 -44t95.5 -12.5z" />
    <glyph glyph-name="Gcommaaccent" unicode="&#x122;" horiz-adv-x="797" 
d="M739 294q7 0 9 -2t2 -9v-159q0 -7 -10 -17q-119 -114 -285 -114q-111 0 -205.5 53.5t-149.5 147t-55 205.5t55 206t149.5 148t205.5 54q83 0 157 -29.5t130 -83.5q13 -13 6 -19l-24 -20q-7 -8 -16 1q-40 40 -104 71t-140 31q-71 0 -132.5 -22t-104 -58t-73 -83t-45 -97
t-14.5 -99q0 -50 14.5 -100t44.5 -96.5t73 -82t104 -57t133 -21.5q73 0 133.5 28t102.5 68v109h-234q-11 0 -11 9v28q0 10 10 10h274zM495 -149q3 -5 3 -10q3 -42 -8 -99q-11 -52 -44 -97q-6 -9 -11 -6l-10 5q-8 2 -4 9q32 48 34 98q1 25 0 47h-3q-17 0 -30 13.5t-13 30.5
t13 30t30 13q15 0 27 -9.5t16 -24.5z" />
    <glyph glyph-name="gcommaaccent" unicode="&#x123;" horiz-adv-x="615" 
d="M273 722q-2 3 -2 10q-4 42 8 99q12 55 43 97q6 7 12 6l6 -5q6 -3 2 -9q-31 -49 -33 -99q-1 -25 0 -47h2q41 0 41 -43q0 -24 -8.5 -33.5t-32.5 -9.5q-21 0 -28.5 7.5t-9.5 26.5zM413 -34q30 -4 51 -9t46 -15t40 -23.5t24 -36.5t7 -52q-5 -60 -46.5 -102.5t-103.5 -62
t-136 -19.5q-106 0 -171.5 45t-62.5 131q3 50 32 83.5t77 49.5q-56 6 -94 30.5t-41 64.5q-3 41 30.5 65.5t79.5 11.5q-25 20 -44 58.5t-20 84.5q-4 97 60 163.5t160 66.5q31 0 87.5 -5.5t132.5 -3.5q9 0 9 -6l-1 -29q-29 -6 -95 -4q31 -20 52 -44.5t29.5 -51.5t11.5 -46.5
t3 -43.5q0 -95 -64.5 -152.5t-158.5 -55.5q-71 1 -132 40q-39 11 -67.5 -1t-25.5 -40q3 -29 37 -44.5t99 -22.5q28 -3 97.5 -11.5t97.5 -12.5zM127 275q-1 -69 52 -119.5t126 -51.5q83 -1 130 46.5t48 124.5q-1 78 -52 128.5t-125 50.5q-76 0 -128 -51t-51 -128zM530 -172
q2 38 -21 58.5t-87 31.5q-51 9 -189 24q-40 5 -80.5 -28t-43.5 -88q-2 -46 26 -77.5t70.5 -44t95.5 -12.5q94 0 160 37.5t69 98.5z" />
    <glyph glyph-name="Hbar" unicode="&#x126;" horiz-adv-x="806" 
d="M720 800q11 0 11 -10v-781q0 -9 -9 -9h-24q-16 0 -16 16v354h-558v-359q0 -11 -9 -11h-29q-11 0 -11 11v779q0 10 11 10h28q10 0 10 -10v-160h558v160q0 10 10 10h28zM124 419h558v162h-558v-162z" />
    <glyph glyph-name="hbar" unicode="&#x127;" horiz-adv-x="598" 
d="M547 13q2 -13 -7 -13h-25q-17 0 -17 18v289q0 68 -39.5 109t-116.5 41q-106 0 -206 -98v-348q0 -4 -2 -8q-1 -3 -6 -3h-32q-4 0 -6 2q-2 4 -2 9v643h-47q-11 0 -11 10v26q0 10 11 10h47v39q0 22 -3 49q0 12 8 12h27q16 0 16 -16v-84h163q9 0 9 -10l1 -26q0 -10 -10 -10
h-163v-244q99 92 207 92q85 0 144 -47.5t59 -138.5v-227q0 -13 0.5 -38.5t0.5 -37.5z" />
    <glyph glyph-name="Imacron" unicode="&#x12a;" horiz-adv-x="210" 
d="M-111 1017q0 8 9 8h413q10 0 10 -8v-23q0 -9 -10 -9h-413q-9 0 -9 9v23zM120 800h-30q-10 0 -10 -10v-781q0 -9 9 -9h32q9 0 9 9v781q0 10 -10 10z" />
    <glyph glyph-name="imacron" unicode="&#x12b;" horiz-adv-x="198" 
d="M-116 754q0 8 9 8h413q10 0 10 -8v-23q0 -9 -10 -9h-413q-9 0 -9 9v23zM113 495h-28q-10 0 -10 -10v-468q0 -17 15 -17h25q8 0 8 10v475q0 10 -10 10z" />
    <glyph glyph-name="Iogonek" unicode="&#x12e;" horiz-adv-x="210" 
d="M160 -203q4 2 8.5 0t4.5 -6v-17q0 -6 -9 -10q-53 -35 -125 -32q-51 3 -83.5 27.5t-32.5 74.5t48.5 96.5t118.5 69.5h-1q-9 0 -9 9v781q0 10 10 10h30q10 0 10 -10v-781q0 -9 -9 -9h-2q-72 -33 -115.5 -73.5t-43.5 -83.5q0 -42 28 -59.5t64 -17.5q57 0 108 31z" />
    <glyph glyph-name="iogonek" unicode="&#x12f;" horiz-adv-x="198" 
d="M100 734q-13 0 -22 9t-9 22t9 22t22 9t22 -9t9 -22t-9 -22t-22 -9zM157 -203q4 2 8.5 0t4.5 -6v-17q0 -5 -9 -10q-53 -35 -125 -32q-51 3 -83.5 27.5t-32.5 74.5t48.5 96.5t118.5 69.5q-12 1 -12 17v468q0 10 10 10h28q10 0 10 -10v-475q0 -10 -7 -10q-159 -73 -159 -157
q0 -42 28 -59.5t64 -17.5q57 0 108 31z" />
    <glyph glyph-name="Idotaccent" unicode="&#x130;" horiz-adv-x="210" 
d="M105 997q-13 0 -22 9t-9 22t9 22t22 9t22 -9t9 -22t-9 -22t-22 -9zM120 800h-30q-10 0 -10 -10v-781q0 -9 9 -9h32q9 0 9 9v781q0 10 -10 10z" />
    <glyph glyph-name="dotlessi" unicode="&#x131;" horiz-adv-x="198" 
d="M113 495h-28q-10 0 -10 -10v-468q0 -17 15 -17h25q8 0 8 10v475q0 10 -10 10z" />
    <glyph glyph-name="IJ" unicode="&#x132;" horiz-adv-x="408" 
d="M120 800h-30q-10 0 -10 -10v-781q0 -9 9 -9h32q9 0 9 9v781q0 10 -10 10zM311 800q17 0 17 -17v-880q-2 -71 -39 -126t-96 -85q-10 -7 -15 2l-14 27q-5 9 3 13q110 57 110 177v853q0 9 -2 25q0 11 9 11h27z" />
    <glyph glyph-name="ij" unicode="&#x133;" horiz-adv-x="391" 
d="M100 737q-13 0 -21.5 8.5t-8.5 21.5q0 12 8.5 20.5t21.5 8.5q12 0 20.5 -8.5t8.5 -20.5q0 -13 -8.5 -21.5t-20.5 -8.5zM291 737q-12 0 -20.5 8.5t-8.5 21.5q0 12 8.5 20.5t20.5 8.5q13 0 21.5 -8.5t8.5 -20.5q0 -13 -8.5 -21.5t-21.5 -8.5zM114 495h-28q-10 0 -10 -10
v-468q0 -17 15 -17h25q8 0 8 10v475q0 10 -10 10zM305 495h-28q-10 0 -10 -11v-584q0 -44 -10.5 -61t-47.5 -32q-7 -3 -4 -12l15 -29q2 -7 11 -3q53 21 69 52t16 85l-1 584q0 11 -10 11z" />
    <glyph glyph-name="Kcommaaccent" unicode="&#x136;" horiz-adv-x="627" 
d="M588 17q6 -5 3.5 -11t-10.5 -6h-35q-7 0 -14 7l-424 397v-393q0 -11 -10 -11h-31q-10 0 -10 11v742q0 12 -2 36q0 11 8 11h27q18 0 18 -16v-370l393 380q8 6 12 6h40q7 0 8.5 -6t-3.5 -11l-388 -374zM335 -149q3 -5 3 -10q2 -42 -8 -99q-11 -52 -44 -97q-6 -9 -11 -6
l-10 5q-8 2 -4 9q32 48 34 98q1 25 0 47h-3q-17 0 -30 13.5t-13 30.5t13 30t30 13q15 0 27 -9.5t16 -24.5z" />
    <glyph glyph-name="kcommaaccent" unicode="&#x137;" horiz-adv-x="494" 
d="M451 13q4 -5 2.5 -9t-7.5 -4h-40q-8 0 -14 6l-281 242v-237q0 -11 -11 -11h-27q-10 0 -10 11v728q0 22 -3 49q0 12 8 12h27q16 0 16 -16v-524l251 230q6 5 13 5h39q6 0 7.5 -4.5t-2.5 -8.5l-253 -229zM268 -149q3 -5 3 -10q2 -42 -8 -99q-11 -52 -44 -97q-6 -9 -11 -6
l-10 5q-8 2 -4 9q32 48 34 98q1 25 0 47h-3q-17 0 -30 13.5t-13 30.5t13 30t30 13q15 0 27 -9.5t16 -24.5z" />
    <glyph glyph-name="Lacute" unicode="&#x139;" horiz-adv-x="607" 
d="M308 1036q10 5 4 12l-14 24q-4 7 -13 1l-211 -148q-7 -3 -2 -10l11 -18q3 -9 11 -4zM542 48q10 0 10 -10v-28q0 -10 -10 -10h-467q-10 0 -10 11v779q0 10 11 10h30q10 0 10 -10v-742h426z" />
    <glyph glyph-name="lacute" unicode="&#x13a;" horiz-adv-x="197" 
d="M199 1046q10 5 4 12l-14 24q-4 7 -13 1l-211 -148q-7 -3 -2 -10l11 -18q3 -9 11 -4zM113 800h-28q-10 0 -10 -10v-772q0 -18 17 -18h22q9 0 9 11v779q0 10 -10 10z" />
    <glyph glyph-name="Lcommaaccent" unicode="&#x13b;" horiz-adv-x="607" 
d="M542 48q10 0 10 -10v-28q0 -10 -10 -10h-467q-10 0 -10 11v779q0 10 11 10h30q10 0 10 -10v-742h426zM328 -149q3 -4 3 -10q2 -42 -8 -99q-11 -52 -44 -97q-6 -9 -11 -6l-10 5q-8 2 -4 9q32 48 34 98q1 25 0 47h-3q-17 0 -30 13.5t-13 30.5t13 30t30 13q15 0 27 -9.5
t16 -24.5z" />
    <glyph glyph-name="lcommaaccent" unicode="&#x13c;" horiz-adv-x="197" 
d="M92 0q-17 0 -17 18v772q0 10 10 10h28q10 0 10 -10v-779q0 -11 -9 -11h-22zM136 -159q2 -42 -8 -99q-11 -52 -44 -97q-6 -9 -11 -6l-10 5q-8 2 -4 9q32 48 34 98q1 25 0 47h-3q-17 0 -30 13.5t-13 30.5t13 30t30 13q15 0 27 -9.5t16 -24.5q3 -4 3 -10z" />
    <glyph glyph-name="Lcaron" unicode="&#x13d;" horiz-adv-x="607" 
d="M420 716q-41 0 -41 43q0 23 9 32.5t32 9.5q21 0 28.5 -7.5t9.5 -25.5q2 -3 2 -11q4 -42 -8 -98q-11 -54 -43 -97q-5 -7 -12 -6l-6 5q-6 2 -2 9q31 49 33 98q2 25 0 48h-2zM542 48q10 0 10 -10v-28q0 -10 -10 -10h-467q-10 0 -10 11v779q0 10 11 10h30q10 0 10 -10v-742
h426z" />
    <glyph glyph-name="lcaron" unicode="&#x13e;" horiz-adv-x="336" 
d="M311 757q2 -41 -8 -98q-11 -52 -44 -97q-5 -8 -11 -6l-7 5q-6 2 -2 9q31 49 33 98q1 17 1 48h-3q-40 0 -40 43q0 23 8.5 32.5t31.5 9.5q20 0 28.5 -7t10.5 -26q1 -2 1.5 -5.5t0.5 -5.5zM113 800q10 0 10 -10v-779q0 -11 -9 -11h-22q-17 0 -17 18v772q0 10 10 10h28z" />
    <glyph glyph-name="Ldot" unicode="&#x13f;" horiz-adv-x="607" 
d="M542 48q10 0 10 -10v-28q0 -10 -10 -10h-467q-10 0 -10 11v779q0 10 11 10h30q10 0 10 -10v-742h426zM445 363q-16 0 -27 11t-11 26q0 16 11 27t27 11q15 0 26 -11t11 -27q0 -15 -11 -26t-26 -11z" />
    <glyph glyph-name="ldot" unicode="&#x140;" horiz-adv-x="295" 
d="M113 800h-28q-10 0 -10 -10v-772q0 -18 17 -18h22q9 0 9 11v779q0 10 -10 10zM212 367q-14 0 -23.5 9.5t-9.5 23t9.5 23.5t23.5 10t23.5 -9.5t9.5 -23.5t-9.5 -23.5t-23.5 -9.5z" />
    <glyph glyph-name="Lslash" unicode="&#x141;" horiz-adv-x="644" 
d="M579 48q5 0 7 -2t2 -8v-28q0 -10 -9 -10h-467q-11 0 -11 11v348l-51 -28q-11 -7 -16 4l-7 12q-5 9 5 15l69 38v390q0 10 11 10h30q10 0 10 -10v-361l237 131q10 6 16 -5l7 -11q6 -9 -5 -16l-255 -141v-339h427z" />
    <glyph glyph-name="lslash" unicode="&#x142;" horiz-adv-x="272" 
d="M270 467q5 -10 -4 -17l-93 -51v-388q0 -11 -9 -11h-22q-17 0 -17 18v355l-99 -55q-10 -5 -17 4l-7 11q-5 10 6 17l117 64v376q0 10 10 10h29q9 0 9 -10v-349l75 41q10 5 15 -4z" />
    <glyph glyph-name="Nacute" unicode="&#x143;" horiz-adv-x="830" 
d="M520 1029q10 5 4 12l-14 24q-4 7 -13 1l-211 -148q-7 -3 -2 -10l11 -18q3 -9 11 -4zM748 800q7 0 7 -7v-786q0 -7 -8 -7h-16q-12 0 -28 19l-579 693v-703q0 -9 -9 -9h-31q-9 0 -9 9v782q0 9 8 9h23q6 0 14 -9l586 -704v706q0 7 8 7h34z" />
    <glyph glyph-name="nacute" unicode="&#x144;" horiz-adv-x="570" 
d="M174 637l-11 18q-5 7 2 10l211 148q9 6 13 -1l14 -24q6 -7 -4 -12l-214 -143q-8 -5 -11 4zM520 13q0 -13 -8 -13h-25q-16 0 -16 18v289q0 68 -40 109t-117 41q-106 0 -206 -98v-348q0 -11 -8 -11h-32q-8 0 -8 11v475q0 9 8 9h25q6 0 10.5 -5.5t4.5 -11.5v-68
q99 92 208 92q54 0 98.5 -19t74 -62t29.5 -105v-227q0 -28 2 -76z" />
    <glyph glyph-name="Ncommaaccent" unicode="&#x145;" horiz-adv-x="830" 
d="M748 800q7 0 7 -7v-786q0 -7 -8 -7h-16q-12 0 -28 19l-579 693v-703q0 -9 -9 -9h-31q-9 0 -9 9v782q0 9 8 9h23q6 0 14 -9l586 -704v706q0 7 8 7h34zM454 -149q3 -5 3 -10q2 -42 -8 -99q-11 -52 -44 -97q-6 -9 -11 -6l-10 5q-8 2 -4 9q32 48 34 98q1 25 0 47h-3
q-17 0 -30 13.5t-13 30.5t13 30t30 13q15 0 27 -9.5t16 -24.5z" />
    <glyph glyph-name="ncommaaccent" unicode="&#x146;" horiz-adv-x="570" 
d="M520 13q0 -13 -8 -13h-25q-16 0 -16 18v289q0 68 -40 109t-117 41q-106 0 -206 -98v-348q0 -11 -8 -11h-32q-8 0 -8 11v475q0 9 8 9h25q6 0 10.5 -5.5t4.5 -11.5v-68q99 92 208 92q54 0 98.5 -19t74 -62t29.5 -105v-227q0 -28 2 -76zM339 -149q3 -5 3 -10q2 -42 -8 -99
q-11 -52 -44 -97q-6 -9 -11 -6l-10 5q-8 2 -4 9q32 48 34 98q1 25 0 47h-3q-17 0 -30 13.5t-13 30.5t13 30t30 13q15 0 27 -9.5t16 -24.5z" />
    <glyph glyph-name="Ncaron" unicode="&#x147;" horiz-adv-x="830" 
d="M435 859l184 143q5 3 5 9v26q0 11 -12 4l-191 -140l-191 140q-12 7 -12 -4v-26q0 -6 5 -9l184 -143q5 -5 14 -5t14 5zM748 800q7 0 7 -7v-786q0 -7 -8 -7h-16q-12 0 -28 19l-579 693v-703q0 -9 -9 -9h-31q-9 0 -9 9v782q0 9 8 9h23q7 0 14 -9l586 -704v706q0 7 8 7h34z
" />
    <glyph glyph-name="ncaron" unicode="&#x148;" horiz-adv-x="570" 
d="M101 749q-5 3 -5 9v26q0 11 12 4l191 -140l191 140q12 7 12 -4v-26q0 -6 -5 -9l-184 -143q-5 -5 -14 -5t-14 5zM520 13q0 -13 -8 -13h-25q-16 0 -16 18v289q0 68 -40 109t-117 41q-106 0 -206 -98v-348q0 -11 -8 -11h-32q-8 0 -8 11v475q0 9 8 9h25q6 0 10.5 -5.5
t4.5 -11.5v-68q99 92 208 92q84 0 143 -47.5t59 -138.5v-227q0 -28 2 -76z" />
    <glyph glyph-name="Eng" unicode="&#x14a;" horiz-adv-x="837" 
d="M751 800q7 0 7 -7v-786q0 -2 -1 -3v-101q-2 -72 -37.5 -126.5t-94.5 -84.5q-11 -7 -15 2l-15 27q-3 9 4 13q50 26 80 71t30 106v104l-3 3l-579 693v-702q0 -9 -9 -9h-31q-9 0 -9 9v782q0 9 8 9h24q6 0 11 -7l588 -706v706q0 7 7 7h35z" />
    <glyph glyph-name="eng" unicode="&#x14b;" horiz-adv-x="589" 
d="M518 299l1 -396q0 -53 -15 -83t-66 -51q-9 -1 -11 4l-15 29q-3 7 4 11q36 14 45.5 30.5t9.5 59.5v402q0 66 -40 107.5t-117 41.5q-107 0 -206 -97v-346q0 -11 -8 -11h-32q-8 0 -8 11v475q0 9 8 9h25q6 0 10.5 -5.5t4.5 -11.5v-68q96 90 208 90q85 0 143.5 -47.5
t58.5 -137.5v-16z" />
    <glyph glyph-name="Omacron" unicode="&#x14c;" horiz-adv-x="942" 
d="M256 1027q0 8 9 8h413q10 0 10 -8v-23q0 -9 -10 -9h-413q-9 0 -9 9v23zM472 -7q112 0 206 53.5t149 147.5t55 206t-55 205.5t-149 147.5t-206 54t-207 -54t-150 -147.5t-55 -205.5t55 -206t150 -147.5t207 -53.5zM472 42q-98 0 -181.5 47.5t-132 130t-48.5 180.5
t48.5 180.5t132 130t181.5 47.5t180.5 -47.5t131 -130t48.5 -180.5t-48.5 -180.5t-131 -130t-180.5 -47.5z" />
    <glyph glyph-name="omacron" unicode="&#x14d;" horiz-adv-x="592" 
d="M81 754q0 8 9 8h413q10 0 10 -8v-23q0 -9 -10 -9h-413q-9 0 -9 9v23zM297 -6q105 0 180 73.5t75 179.5q0 108 -75 182t-180 74q-107 0 -182 -74t-75 -182q0 -106 75.5 -179.5t181.5 -73.5zM297 40q-87 0 -147.5 62t-60.5 145q0 85 60 147.5t148 62.5q86 0 146 -62.5
t60 -147.5q0 -83 -60 -145t-146 -62z" />
    <glyph glyph-name="Ohungarumlaut" unicode="&#x150;" horiz-adv-x="942" 
d="M351 933q-3 0 -6 2.5t-2 6.5l32 169q0 8 8 8h29q4 0 6.5 -2t1.5 -6l-38 -170q-2 -8 -9 -8h-22zM532 933q-9 0 -9 9l32 169q2 8 8 8h30q10 0 7 -8l-37 -170q-3 -8 -9 -8h-22zM472 -7q112 0 206 53.5t149 147.5t55 206t-55 205.5t-149 147.5t-206 54t-207 -54t-150 -147.5
t-55 -205.5t55 -206t150 -147.5t207 -53.5zM472 42q-98 0 -181.5 47.5t-132 130t-48.5 180.5t48.5 180.5t132 130t181.5 47.5t180.5 -47.5t131 -130t48.5 -180.5t-48.5 -180.5t-131 -130t-180.5 -47.5z" />
    <glyph glyph-name="ohungarumlaut" unicode="&#x151;" horiz-adv-x="592" 
d="M176 660q-3 0 -6 2.5t-2 6.5l32 169q0 8 8 8h29q10 0 8 -8l-38 -170q-2 -8 -9 -8h-22zM357 660q-9 0 -9 9l32 169q2 8 8 8h30q10 0 7 -8l-37 -170q-3 -8 -9 -8h-22zM297 -6q105 0 180 73.5t75 179.5q0 108 -75 182t-180 74q-107 0 -182 -74t-75 -182q0 -106 75.5 -179.5
t181.5 -73.5zM297 40q-87 0 -147.5 62t-60.5 145q0 85 60 147.5t148 62.5q86 0 146 -62.5t60 -147.5q0 -83 -60 -145t-146 -62z" />
    <glyph glyph-name="OE" unicode="&#x152;" horiz-adv-x="1427" 
d="M1359 752h-465v-334h300q6 0 8 -2t2 -9v-25q0 -12 -10 -12h-300v-322h465q11 0 11 -11v-26q0 -11 -11 -11h-507q-9 0 -9 9v215q-50 -105 -149.5 -168t-221.5 -63q-112 0 -207 53.5t-150 147.5t-55 206t55 205.5t150 147.5t207 54q121 0 221 -63.5t150 -168.5v215
q0 10 11 10h505q11 0 11 -10v-28q0 -10 -11 -10zM472 42q98 0 180.5 47.5t131 130t48.5 180.5t-48.5 180.5t-131 130t-180.5 47.5t-181.5 -47.5t-132 -130t-48.5 -180.5t48.5 -180.5t132 -130t181.5 -47.5z" />
    <glyph glyph-name="oe" unicode="&#x153;" horiz-adv-x="1029" 
d="M989 256q0 -21 -9.5 -28.5t-27.5 -7.5h-400q7 -72 61 -127t144 -55q100 0 173 85q9 8 16 1l9 -11q6 -7 1 -14q-82 -105 -203 -105q-75 0 -136 38.5t-91 102.5q-32 -64 -94 -102.5t-135 -38.5q-106 0 -181.5 73.5t-75.5 179.5q0 108 75 182t182 74q74 0 135.5 -39
t93.5 -103q30 64 89 102.5t131 38.5q104 0 173.5 -72.5t69.5 -173.5zM552 261h388q-1 69 -52 132.5t-142 63.5q-47 0 -85 -18t-60.5 -46.5t-35 -60.5t-14.5 -64q0 -2 0.5 -4t0.5 -3zM297 40q80 0 138 54t67 130q-1 8 -1 24t1 23q-9 77 -67 131.5t-138 54.5q-88 0 -148 -62.5
t-60 -147.5q0 -83 60.5 -145t147.5 -62z" />
    <glyph glyph-name="Racute" unicode="&#x154;" horiz-adv-x="676" 
d="M226 897l-11 18q-5 7 2 10l211 148q9 6 13 -1l14 -24q6 -7 -4 -12l-214 -143q-8 -5 -11 4zM420 287l204 -277q3 -4 1.5 -7t-6.5 -3h-33q-11 0 -21 14l-195 268h-16h-244l1 -271q0 -11 -11 -11h-29q-7 0 -9 2.5t-2 8.5v779q0 10 11 10h283q71 0 126 -23.5t87 -62.5
t48.5 -83t16.5 -90q0 -55 -21 -106t-70.5 -93t-120.5 -55zM110 752v-422h245q56 0 100.5 18t71.5 48.5t41.5 67.5t14.5 78q0 55 -24.5 101.5t-77.5 77.5t-126 31h-245z" />
    <glyph glyph-name="racute" unicode="&#x155;" horiz-adv-x="401" 
d="M88 637l-11 18q-5 7 2 10l211 148q9 6 13 -1l14 -24q6 -7 -4 -12l-214 -143q-8 -5 -11 4zM374 462q8 -5 5 -12l-18 -26q-4 -5 -12 -2q-54 32 -100 32q-77 0 -137 -80v-363q0 -11 -8 -11h-32q-8 0 -8 11v475q0 9 8 9h25q6 0 10.5 -5.5t4.5 -11.5v-47q65 68 147 68
q62 0 115 -37z" />
    <glyph glyph-name="Rcommaaccent" unicode="&#x156;" horiz-adv-x="676" 
d="M420 287l204 -277q3 -4 1.5 -7t-6.5 -3h-33q-11 0 -21 14l-195 268h-16h-244l1 -271q0 -11 -11 -11h-29q-7 0 -9 2.5t-2 8.5v779q0 10 11 10h283q71 0 126 -23.5t87 -62.5t48.5 -83t16.5 -90q0 -55 -21 -106t-70.5 -93t-120.5 -55zM110 752v-422h245q56 0 100.5 18
t71.5 48.5t41.5 67.5t14.5 78q0 55 -24.5 101.5t-77.5 77.5t-126 31h-245zM379 -149q3 -5 3 -10q2 -42 -8 -99q-11 -52 -44 -97q-6 -9 -11 -6l-10 5q-8 2 -4 9q32 48 34 98q1 25 0 47h-3q-17 0 -30 13.5t-13 30.5t13 30t30 13q15 0 27 -9.5t16 -24.5z" />
    <glyph glyph-name="rcommaaccent" unicode="&#x157;" horiz-adv-x="401" 
d="M374 462q8 -5 5 -12l-18 -26q-4 -5 -12 -2q-54 32 -100 32q-77 0 -137 -80v-363q0 -11 -8 -11h-32q-8 0 -8 11v475q0 9 8 9h25q6 0 10.5 -5.5t4.5 -11.5v-47q65 68 147 68q62 0 115 -37zM237 -149q3 -5 3 -10q2 -42 -8 -99q-11 -52 -44 -97q-6 -9 -11 -6l-10 5q-8 2 -4 9
q32 48 34 98q1 25 0 47h-3q-17 0 -30 13.5t-13 30.5t13 30t30 13q15 0 27 -9.5t16 -24.5z" />
    <glyph glyph-name="Rcaron" unicode="&#x158;" horiz-adv-x="676" 
d="M154 1009q-5 3 -5 9v26q0 11 12 4l191 -140l191 140q12 7 12 -4v-26q0 -6 -5 -9l-184 -143q-5 -5 -14 -5t-14 5zM420 287l204 -277q3 -4 1.5 -7t-6.5 -3h-33q-11 0 -21 14l-195 268h-16h-244l1 -271q0 -11 -11 -11h-29q-7 0 -9 2.5t-2 8.5v779q0 10 11 10h283
q71 0 126 -23.5t87 -62.5t48.5 -83t16.5 -90q0 -55 -21 -106t-70.5 -93t-120.5 -55zM110 752v-422h245q56 0 100.5 18t71.5 48.5t41.5 67.5t14.5 78q0 55 -24.5 101.5t-77.5 77.5t-126 31h-245z" />
    <glyph glyph-name="rcaron" unicode="&#x159;" horiz-adv-x="401" 
d="M405 788q12 7 12 -4v-26q0 -6 -5 -9l-184 -143q-5 -5 -14 -5t-14 5l-184 143q-5 3 -5 9v26q0 11 12 4l191 -140zM374 462q8 -5 5 -12l-18 -26q-4 -5 -12 -2q-54 32 -100 32q-77 0 -137 -80v-363q0 -11 -8 -11h-32q-8 0 -8 11v475q0 9 8 9h25q6 0 10.5 -5.5t4.5 -11.5v-47
q65 68 147 68q62 0 115 -37z" />
    <glyph glyph-name="Sacute" unicode="&#x15a;" horiz-adv-x="621" 
d="M406 1040q10 5 4 12l-14 24q-4 7 -13 1l-211 -148q-7 -3 -2 -10l11 -18q3 -9 11 -4zM49 132l16 18q10 10 20 1l12 -11.5l24 -22t34 -25.5t44 -25.5t52.5 -18t60.5 -7.5q57 0 100 15t67 40.5t35.5 53t11.5 57.5q0 19 -4.5 36t-14.5 31t-20.5 25.5t-29 22.5l-31.5 18.5
t-37.5 16.5l-38.5 14l-42 14.5l-40 13.5q-46 16 -79 32.5t-65 40.5t-49 57t-17 74q0 39 14.5 74.5t44 65t79 47t113.5 17.5q116 0 235 -94q10 -9 4 -18l-15 -20q-7 -10 -15 -2q-1 1 -12.5 9.5l-23.5 17t-32 20t-40 19.5t-47 14t-54 6q-95 0 -148 -43.5t-53 -112.5
q0 -18 4 -33.5t14 -29t19.5 -24.5t29 -22l32.5 -18t39.5 -17l42 -16t47.5 -17q11 -3 16 -5l43 -16.5t43 -18.5t43 -23.5t36.5 -28t31 -34.5t19.5 -42t8 -51q0 -89 -73.5 -151t-190.5 -62q-138 0 -255 115l-5 5q-11 10 -3 18z" />
    <glyph glyph-name="sacute" unicode="&#x15b;" horiz-adv-x="460" 
d="M329 776q10 5 4 12l-14 24q-4 7 -13 1l-211 -148q-7 -3 -2 -10l11 -18q3 -9 11 -4zM47 64l16 23q6 8 12 3q5 -5 22 -15.5t54.5 -23t75.5 -12.5q72 0 104 25.5t32 61.5q0 18 -8.5 32.5t-20.5 24t-32.5 18.5t-37 14l-41.5 12q-85 22 -128.5 54.5t-43.5 86.5q0 58 46 96
t128 38q81 0 163 -53q8 -5 4 -11l-15 -24q-5 -7 -14 -3q-43 24 -72.5 34.5t-65.5 10.5q-38 0 -65 -9.5t-39 -25t-16.5 -28.5t-4.5 -26q0 -17 8.5 -31t20 -23t32.5 -18.5t35.5 -14l38.5 -11.5q39 -11 66.5 -21t55.5 -26.5t43 -40t15 -52.5q0 -64 -50.5 -100t-137.5 -36
q-54 0 -102.5 19.5t-74.5 40.5q-7 4 -3 11z" />
    <glyph glyph-name="Scedilla" unicode="&#x15e;" horiz-adv-x="621" 
d="M576 207q0 -88 -72 -150t-187 -63l-40 -63q22 5 40 5q53 0 91 -38t38 -92t-39 -92.5t-93 -38.5q-71 0 -112 54q-3 5 0 8l9 10q10 10 15 3q14 -17 36.5 -30t48.5 -13q48 0 75.5 28.5t27.5 70.5q0 40 -26.5 69t-71.5 29q-25 0 -42.5 -9t-38.5 -31q-9 -9 -13 -3l-12 12
q-3 2 -1 6q0 1 5 8l68 108q-19 2 -37.5 6t-34 9t-31 12.5l-27.5 13.5t-25.5 15t-21.5 15t-18.5 15.5t-14.5 13.5l-11.5 11t-8.5 8q-11 10 -3 18l16 18q10 10 20 1l12 -11.5l24 -22t34 -25.5t44 -25.5t52.5 -18t60.5 -7.5q57 0 100 15t67 40.5t35.5 53t11.5 57.5
q0 19 -4.5 36t-14.5 31t-20.5 25.5t-29 22.5l-31.5 18.5t-37.5 16.5l-38.5 14l-42 14.5l-40 13.5q-46 16 -79 32.5t-65 40.5t-49 57t-17 74q0 39 14.5 74.5t44 65t79 47t113.5 17.5q116 0 235 -94q10 -9 4 -18l-15 -20q-7 -10 -15 -2q-1 1 -12.5 9.5l-23.5 17t-32 20
t-40 19.5t-47 14t-54 6q-95 0 -148 -43.5t-53 -112.5q0 -18 4 -33.5t14 -29t19.5 -24.5t29 -22l32.5 -18t39.5 -17l42 -16t47.5 -17q11 -3 16 -5l43 -16.5t43 -18.5t43 -23.5t36.5 -28t31 -34.5t19.5 -42t8 -51z" />
    <glyph glyph-name="scedilla" unicode="&#x15f;" horiz-adv-x="460" 
d="M415 129q0 -60 -46 -96t-127 -40l-40 -62q22 5 40 5q53 0 91 -38t38 -92q0 -53 -38.5 -92t-93.5 -39q-71 0 -112 54q-3 5 0 8l9 10q10 10 15 3q14 -17 36.5 -30t48.5 -13q48 0 75.5 28.5t27.5 70.5q0 40 -26.5 69t-71.5 29q-25 0 -42.5 -9t-38.5 -31q-9 -9 -13 -3l-12 12
q-3 2 -1 6q0 1 5 8l67 107q-48 4 -90.5 22.5t-65.5 36.5q-7 4 -3 11l16 23q6 8 12 3q5 -5 22 -15.5t54.5 -23t75.5 -12.5q72 0 104 25.5t32 61.5q0 18 -8.5 32.5t-20.5 24t-32.5 18.5t-37 14l-41.5 12q-85 22 -128.5 54.5t-43.5 86.5q0 58 46 96t128 38q81 0 163 -53
q8 -5 4 -11l-15 -24q-5 -7 -14 -3q-43 24 -72.5 34.5t-65.5 10.5q-38 0 -65 -9.5t-39 -25t-16.5 -28.5t-4.5 -26q0 -21 11 -37t34 -27.5t41 -18t49 -15.5q39 -11 66.5 -21t55.5 -26.5t43 -40t15 -52.5z" />
    <glyph glyph-name="Scaron" unicode="&#x160;" horiz-adv-x="621" 
d="M321 870l184 143q5 3 5 9v26q0 11 -12 4l-191 -140l-191 140q-12 7 -12 -4v-26q0 -6 5 -9l184 -143q5 -5 14 -5t14 5zM49 132l16 18q10 10 20 1l12 -11.5l24 -22t34 -25.5t44 -25.5t52.5 -18t60.5 -7.5q57 0 100 15t67 40.5t35.5 53t11.5 57.5q0 19 -4.5 36t-14.5 31
t-20.5 25.5t-29 22.5l-31.5 18.5t-37.5 16.5l-38.5 14l-42 14.5l-40 13.5q-46 16 -79 32.5t-65 40.5t-49 57t-17 74q0 39 14.5 74.5t44 65t79 47t113.5 17.5q116 0 235 -94q10 -9 4 -18l-15 -20q-7 -10 -15 -2q-1 1 -12.5 9.5l-23.5 17t-32 20t-40 19.5t-47 14t-54 6
q-95 0 -148 -43.5t-53 -112.5q0 -18 4 -33.5t14 -29t19.5 -24.5t29 -22l32.5 -18t39.5 -17l42 -16t47.5 -17q11 -3 16 -5l43 -16.5t43 -18.5t43 -23.5t36.5 -28t31 -34.5t19.5 -42t8 -51q0 -89 -73.5 -151t-190.5 -62q-138 0 -255 115l-5 5q-10 10 -3 18z" />
    <glyph glyph-name="scaron" unicode="&#x161;" horiz-adv-x="460" 
d="M244 606l184 143q5 3 5 9v26q0 11 -12 4l-191 -140l-191 140q-12 7 -12 -4v-26q0 -6 5 -9l184 -143q5 -5 14 -5t14 5zM47 64l16 23q6 8 12 3q5 -5 22 -15.5t54.5 -23t75.5 -12.5q72 0 104 25.5t32 61.5q0 18 -8.5 32.5t-20.5 24t-32.5 18.5t-37 14l-41.5 12
q-85 22 -128.5 54.5t-43.5 86.5q0 57 46 95.5t128 38.5q81 0 163 -53q8 -5 4 -11l-15 -24q-5 -7 -14 -3q-43 24 -72.5 34.5t-65.5 10.5q-38 0 -65 -9.5t-39 -25t-16.5 -28.5t-4.5 -26q0 -17 8.5 -31t20 -23t32.5 -18.5t35.5 -14l38.5 -11.5q39 -11 66.5 -21t55.5 -26.5
t43 -40t15 -52.5q0 -64 -50.5 -100t-137.5 -36q-54 0 -102.5 19.5t-74.5 40.5q-7 4 -3 11z" />
    <glyph glyph-name="uni0162" unicode="&#x162;" horiz-adv-x="707" 
d="M653 800q5 0 7 -2t2 -9v-27q0 -10 -9 -10h-274v-741q0 -10 -6 -11l-43 -67q22 5 40 5q53 0 91 -38t38 -92q0 -53 -38.5 -92t-93.5 -39q-71 0 -112 54q-3 5 0 8l9 10q10 10 15 3q14 -17 36.5 -30t48.5 -13q48 0 75.5 28.5t27.5 70.5q0 40 -26.5 69t-71.5 29
q-25 0 -42.5 -9t-38.5 -31q-9 -9 -13 -3l-12 12q-3 2 -1 6q0 1 5 8l71 112q-9 4 -9 17v734h-273q-11 0 -11 10v27q0 11 11 11h597z" />
    <glyph glyph-name="uni0163" unicode="&#x163;" horiz-adv-x="370" 
d="M250 -64q53 0 91 -38t38 -92q0 -53 -38.5 -92t-93.5 -39q-71 0 -112 54q-3 5 0 8l9 10q10 10 15 3q14 -17 36.5 -30t48.5 -13q48 0 75.5 28.5t27.5 70.5q0 40 -26.5 69t-71.5 29q-25 0 -42.5 -9t-38.5 -31q-9 -9 -13 -3l-12 12q-3 2 -1 6q0 1 5 8l68 108q-27 2 -45.5 11
t-29.5 23t-17 38t-8 49t-2 63v270h-64q-9 0 -9 8v12q0 9 7 10q34 8 49 20t24.5 43.5t15.5 99.5q2 9 6 9h14q6 0 6 -9v-147h139q10 0 10 -9v-29q0 -8 -10 -8h-120q-12 0 -20 3v-263q0 -29 0.5 -44t2.5 -35.5t6.5 -30.5t12 -20t20 -14t29.5 -4q40 0 73 11q16 5 18 -2l6 -22
q3 -7 -10 -14q-33 -14 -67 -18l-42 -65q22 5 40 5z" />
    <glyph glyph-name="Tcaron" unicode="&#x164;" horiz-adv-x="707" 
d="M156 1004q-5 3 -5 9v26q0 11 12 4l191 -140l191 140q12 7 12 -4v-26q0 -6 -5 -9l-184 -143q-5 -5 -14 -5t-14 5zM653 800q5 0 7 -2t2 -9v-27q0 -10 -9 -10h-274v-741q0 -11 -9 -11h-24q-17 0 -17 18v734h-273q-11 0 -11 10v27q0 11 11 11h597z" />
    <glyph glyph-name="tcaron" unicode="&#x165;" horiz-adv-x="420" 
d="M414 757q4 -42 -8 -98q-11 -54 -43 -97q-5 -7 -12 -6l-6 5q-6 2 -2 9q31 49 33 98q1 25 0 48h-2q-41 0 -41 43q0 23 9 32.5t32 9.5q21 0 28.5 -7.5t9.5 -25.5q2 -3 2 -11zM323 50l6 -22q3 -7 -10 -14q-42 -19 -91 -19q-30 0 -51 8t-33.5 22t-19.5 38.5t-9 50.5t-2 65v270
h-64q-9 0 -9 8v12q0 9 7 10q34 8 49 20t24.5 43.5t15.5 99.5q2 9 6 9h14q6 0 6 -9v-147h139q10 0 10 -9v-29q0 -8 -10 -8h-120q-13 0 -20 3v-263q0 -29 0.5 -44t2.5 -35.5t6.5 -30.5t12 -20t20 -14t29.5 -4q40 0 73 11q16 5 18 -2z" />
    <glyph glyph-name="Tbar" unicode="&#x166;" horiz-adv-x="707" 
d="M654 499q8 0 8 -10v-27q0 -8 -8 -8h-275v-443q0 -11 -10 -11h-24q-17 0 -17 18v436h-273q-10 0 -10 8v27q0 10 10 10h273v253h-273q-11 0 -11 10v27q0 11 11 11h597q10 0 10 -11v-27q0 -10 -10 -10h-273v-253h275z" />
    <glyph glyph-name="tbar" unicode="&#x167;" horiz-adv-x="370" 
d="M329 28q3 -7 -10 -14q-42 -19 -91 -19q-30 0 -51 8t-33.5 22t-19.5 38.5t-9 50.5t-2 65v133h-62q-10 0 -10 7v24q0 8 10 8h62v98h-64q-9 0 -9 8v12q0 9 7 10q34 8 49 20t24.5 43.5t15.5 99.5q2 9 6 9h14q6 0 6 -9v-147h139q10 0 10 -9v-29q0 -8 -10 -8h-120q-13 0 -20 3
v-101h138q10 0 10 -8v-23q0 -8 -10 -8h-138v-123q0 -35 0.5 -52.5t4 -39.5t11 -32t21 -17t34.5 -7q40 0 73 11q16 5 18 -2z" />
    <glyph glyph-name="Utilde" unicode="&#x168;" horiz-adv-x="768" 
d="M158 961l15 -16q5 -5 11 1q46 52 101 52q25 0 45.5 -9t36 -21.5l31 -25t38 -21.5t50.5 -9q26 0 49 8.5t39.5 22t23.5 21t12 13.5l1 1q4 6 1 10l-17 17q-3 5 -9 -1l-5 -5t-10.5 -9.5t-15 -11t-19.5 -11.5t-24 -8.5t-28 -3.5q-27 0 -52 13.5t-42 30t-45.5 30t-62.5 13.5
q-25 0 -48.5 -9t-39.5 -23.5t-23 -22.5t-12 -15l-1 -1q-5 -5 0 -10zM689 800h-31q-11 0 -11 -10v-479q0 -56 -17 -103t-44 -77t-62 -50.5t-71 -29.5t-71 -9t-70 9t-70 29.5t-61.5 51t-43 77t-16.5 102.5v479q0 10 -11 10h-29q-11 0 -11 -10v-493q0 -59 22 -113.5t60.5 -97
t98.5 -68t131 -25.5t131.5 25.5t100 68t62 97t22.5 113.5v493q0 6 -2 8t-7 2z" />
    <glyph glyph-name="utilde" unicode="&#x169;" 
d="M68 689l-15 16q-5 5 0 10l1 1q5 7 12 15t23 22.5t39.5 23.5t48.5 9q34 0 62.5 -13.5t45.5 -30t42 -30t52 -13.5q14 0 28 3.5t24 8.5t19.5 11.5t15 11t10.5 9.5l5 5q6 6 9 1l17 -17q3 -4 -1 -10l-1 -1q-5 -6 -12 -13.5t-23 -21t-39.5 -22t-49.5 -8.5q-28 0 -50.5 9
t-38 21.5l-31 25t-36 21.5t-45.5 9q-55 0 -101 -52q-6 -6 -11 -1zM501 495q8 0 8 -11v-476q0 -8 -7 -8h-28q-4 0 -8 5.5t-4 10.5v69q-99 -92 -208 -92q-84 0 -143 48t-59 139v225q0 27 -2 77q0 13 7 13h26q16 0 16 -19v-288q0 -67 40 -109t117 -42q60 0 109 27t97 74v346
q0 11 8 11h31z" />
    <glyph glyph-name="Umacron" unicode="&#x16a;" horiz-adv-x="768" 
d="M166 1010q0 8 9 8h413q10 0 10 -8v-23q0 -9 -10 -9h-413q-9 0 -9 9v23zM689 800h-31q-11 0 -11 -10v-479q0 -56 -17 -102.5t-44 -77t-62 -51t-71 -29.5t-71 -9t-70 9t-70 29.5t-61.5 51t-43 77t-16.5 102.5v479q0 10 -11 10h-29q-11 0 -11 -10v-493q0 -59 22 -113.5
t60.5 -97t98.5 -68t131 -25.5t131.5 25.5t100 68t62 97t22.5 113.5v493q0 6 -2 8t-7 2z" />
    <glyph glyph-name="umacron" unicode="&#x16b;" 
d="M70 722q-9 0 -9 9v23q0 8 9 8h413q10 0 10 -8v-23q0 -9 -10 -9h-413zM501 495q8 0 8 -11v-476q0 -8 -7 -8h-28q-4 0 -8 5.5t-4 10.5v69q-99 -92 -208 -92q-85 0 -143.5 48t-58.5 139v225q0 27 -2 77q0 13 7 13h26q16 0 16 -19v-288q0 -67 40 -109t117 -42q60 0 109 27
t97 74v346q0 11 8 11h31z" />
    <glyph glyph-name="Ubreve" unicode="&#x16c;" horiz-adv-x="768" 
d="M197 1041q6 -73 57 -120t128 -47q76 0 127 47t58 119q2 17 -7 17h-26q-4 0 -8 -15q-8 -62 -52.5 -95.5t-91.5 -33.5q-50 0 -93 33t-51 98q-4 13 -7 13h-27q-7 0 -7 -16zM689 800h-31q-11 0 -11 -10v-479q0 -56 -17 -102.5t-44 -77t-62 -51t-71 -29.5t-71 -9t-70 9
t-70 29.5t-61.5 51t-43 77t-16.5 102.5v479q0 10 -11 10h-29q-11 0 -11 -10v-493q0 -59 22 -113.5t60.5 -97t98.5 -68t131 -25.5t131.5 25.5t100 68t62 97t22.5 113.5v493q0 6 -2 8t-7 2z" />
    <glyph glyph-name="ubreve" unicode="&#x16d;" 
d="M277 618q-77 0 -128 47t-57 120q0 16 7 16h27q3 0 7 -13q8 -65 51 -98t93 -33q47 0 91.5 33.5t52.5 95.5q4 15 8 15h26q9 0 7 -17q-7 -72 -58 -119t-127 -47zM501 495q8 0 8 -11v-476q0 -8 -7 -8h-28q-4 0 -8 5.5t-4 10.5v69q-99 -92 -208 -92q-85 0 -143.5 48t-58.5 139
v225q0 27 -2 77q0 13 7 13h26q16 0 16 -19v-288q0 -67 40 -109t117 -42q60 0 109 27t97 74v346q0 11 8 11h31z" />
    <glyph glyph-name="Uring" unicode="&#x16e;" horiz-adv-x="768" 
d="M383 826q-50 0 -85 34.5t-35 85.5q0 49 35 83.5t85 34.5q49 0 83.5 -34.5t34.5 -83.5q0 -51 -34.5 -85.5t-83.5 -34.5zM383 859q36 0 61 25t25 62q0 35 -25 59.5t-61 24.5q-35 0 -60.5 -24.5t-25.5 -59.5q0 -37 25 -62t61 -25zM689 800h-31q-11 0 -11 -10v-479
q0 -56 -17 -103t-44 -77t-62 -50.5t-71 -29.5t-71 -9t-70 9t-70 29.5t-61.5 51t-43 77t-16.5 102.5v479q0 10 -11 10h-29q-11 0 -11 -10v-493q0 -59 22 -113.5t60.5 -97t98.5 -68t131 -25.5t131.5 25.5t100 68t62 97t22.5 113.5v493q0 6 -2 8t-7 2z" />
    <glyph glyph-name="uring" unicode="&#x16f;" 
d="M278 570q-50 0 -85 34.5t-35 85.5q0 49 35 83.5t85 34.5q49 0 83.5 -34.5t34.5 -83.5q0 -51 -34.5 -85.5t-83.5 -34.5zM278 774q-35 0 -60.5 -24.5t-25.5 -59.5q0 -37 25 -62t61 -25t61 25t25 62q0 35 -25 59.5t-61 24.5zM501 495q8 0 8 -11v-476q0 -8 -7 -8h-28
q-4 0 -8 5.5t-4 10.5v69q-99 -92 -208 -92q-85 0 -143.5 48t-58.5 139v225q0 27 -2 77q0 13 7 13h26q16 0 16 -19v-288q0 -67 40 -109t117 -42q60 0 109 27t97 74v346q0 11 8 11h31z" />
    <glyph glyph-name="Uhungarumlaut" unicode="&#x170;" horiz-adv-x="768" 
d="M261 916q-3 0 -6 2.5t-2 6.5l32 169q0 8 8 8h29q10 0 8 -8l-38 -170q-2 -8 -9 -8h-22zM442 916q-9 0 -9 9l32 169q2 8 8 8h30q10 0 7 -8l-37 -170q-3 -8 -9 -8h-22zM689 800h-31q-11 0 -11 -10v-479q0 -56 -17 -103t-44 -77t-62 -50.5t-71 -29.5t-71 -9t-70 9t-70 29.5
t-61.5 50.5t-43 76.5t-16.5 103.5v479q0 10 -11 10h-29q-11 0 -11 -10v-493q0 -59 22 -113.5t60.5 -97t98.5 -68t131 -25.5t131.5 25.5t100 68t62 97t22.5 113.5v493q0 6 -2 8t-7 2z" />
    <glyph glyph-name="uhungarumlaut" unicode="&#x171;" 
d="M156 660q-3 0 -6 2.5t-2 6.5l32 169q0 8 8 8h29q10 0 8 -8l-38 -170q-2 -8 -9 -8h-22zM337 660q-9 0 -9 9l32 169q2 8 8 8h30q10 0 7 -8l-37 -170q-3 -8 -9 -8h-22zM501 495q8 0 8 -11v-476q0 -8 -7 -8h-28q-4 0 -8 5.5t-4 10.5v69q-99 -92 -208 -92q-85 0 -143.5 48
t-58.5 139v225q0 27 -2 77q0 13 7 13h26q16 0 16 -19v-288q0 -67 40 -109t117 -42q60 0 109 27t97 74v346q0 11 8 11h31z" />
    <glyph glyph-name="Uogonek" unicode="&#x172;" horiz-adv-x="768" 
d="M689 800q5 0 7 -2t2 -8v-493q-1 -107 -67 -191t-178 -106q-73 -33 -117 -73.5t-44 -84.5q0 -42 28 -59.5t64 -17.5q57 0 108 31q4 2 8.5 0t4.5 -6v-17q0 -6 -9 -10q-53 -35 -125 -32q-51 3 -83.5 27.5t-32.5 74.5q0 48 44 92t109 69q-9 -1 -26 -1q-71 0 -131 25.5
t-98.5 68t-60.5 97t-22 113.5v493q0 10 11 10h29q11 0 11 -10v-479q0 -56 16.5 -102.5t43 -77t61.5 -51t70 -29.5t70 -9t71 9t71 29.5t62 50.5t44 77t17 103v479q0 10 11 10h31z" />
    <glyph glyph-name="uogonek" unicode="&#x173;" 
d="M542 -203q4 2 8.5 0t4.5 -6v-17q0 -6 -9 -10q-53 -35 -125 -32q-51 3 -83.5 27.5t-32.5 74.5t49 96t119 70q-11 4 -11 16v69q-99 -92 -208 -92q-85 0 -143.5 48t-58.5 139v225q0 27 -2 77q0 13 7 13h26q16 0 16 -19v-288q0 -67 40 -109t117 -42q60 0 109 27t97 74v346
q0 11 8 11h31q8 0 8 -11v-476q0 -8 -7 -8h-1q-72 -33 -115.5 -73.5t-43.5 -83.5q0 -42 28 -59.5t64 -17.5q57 0 108 31z" />
    <glyph glyph-name="Wcircumflex" unicode="&#x174;" horiz-adv-x="1126" 
d="M372 874q-5 -2 -8.5 -0.5t-3.5 5.5v26q0 6 5 9l184 143q5 4 14 4t14 -4l184 -143q5 -3 5 -9v-26q0 -10 -12 -5l-191 141zM1094 802q4 0 6 -4.5t-1 -11.5l-371 -780q-4 -9 -11 -9h-10q-7 0 -12 9l-132 279l-132 -281q-6 -8 -12 -8h-10q-7 0 -11 8l-371 781q-3 7 -1 11t6 4
h40q5 0 7 -3t6 -11l329 -708l122 264l-209 444q-3 7 -1 11.5t6 4.5h40q6 0 11 -11l2 -4l178 -386l178 385l2.5 5l2 4t2 2.5t3 2t3.5 0.5h41q4 0 5.5 -4t-1.5 -11l-209 -443l122 -262l329 707q2 6 3.5 8.5t4 4.5t5.5 2h40z" />
    <glyph glyph-name="wcircumflex" unicode="&#x175;" horiz-adv-x="786" 
d="M202 616q-5 -2 -8.5 -0.5t-3.5 5.5v26q0 6 5 9l184 143q5 4 14 4t14 -4l184 -143q5 -3 5 -9v-26q0 -10 -12 -5l-191 141zM756 495q7 0 4 -7l-174 -481q-4 -7 -12 -7h-8q-8 0 -11 7l-162 406l-162 -406q-3 -7 -10 -7h-9q-7 0 -10 7l-176 481q-3 7 5 7h39q5 0 8 -6
l143 -414l153 410q4 6 10 6h19q5 0 9 -6l154 -410l142 414q1 6 8 6h40z" />
    <glyph glyph-name="Ycircumflex" unicode="&#x176;" horiz-adv-x="740" 
d="M365 1056l-184 -143q-5 -3 -5 -9v-26q0 -11 12 -5l191 141l191 -141q12 -5 12 5v26q0 6 -5 9l-184 143q-5 4 -14 4t-14 -4zM721 800q2 0 3.5 -2.5t-0.5 -4.5l-329 -458v-324q0 -11 -10 -11h-24q-16 0 -16 18v317l-329 458q-2 2 -0.5 4.5t3.5 2.5h44q5 0 8 -7l299 -410
l298 410q5 7 9 7h44z" />
    <glyph glyph-name="ycircumflex" unicode="&#x177;" horiz-adv-x="541" 
d="M265 799l-184 -143q-5 -3 -5 -9v-26q0 -4 3.5 -5.5t8.5 0.5l191 141l191 -141q12 -5 12 5v26q0 6 -5 9l-184 143q-5 4 -14 4t-14 -4zM509 495q11 0 6 -10l-211 -436q-104 -213 -238 -358q-7 -6 -15 2l-18 17q-7 7 2 18q59 68 120.5 158t94.5 167l-216 433q-4 9 5 9h40
q7 0 8 -6l190 -385l184 383q5 8 11 8h37z" />
    <glyph glyph-name="Ydieresis" unicode="&#x178;" horiz-adv-x="740" 
d="M238 989q-14 0 -23 9t-9 22.5t9 23t23 9.5t23 -9t9 -23t-9 -23t-23 -9zM520.5 989q-13.5 0 -23 9.5t-9.5 22.5t9.5 22.5t23 9.5t23 -9.5t9.5 -22.5t-9.5 -22.5t-23 -9.5zM721 800q2 0 3.5 -2.5t-0.5 -4.5l-329 -458v-324q0 -11 -10 -11h-24q-16 0 -16 18v317l-329 458
q-2 2 -0.5 4.5t3.5 2.5h44q4 0 8 -7l299 -410l298 410q5 7 9 7h44z" />
    <glyph glyph-name="Zacute" unicode="&#x179;" horiz-adv-x="636" 
d="M190 895l-11 18q-5 7 2 10l211 148q9 6 13 -1l14 -24q6 -7 -4 -12l-214 -143q-8 -5 -11 4zM591 49q10 0 10 -10v-22q0 -17 -17 -17h-538q-6 0 -8.5 2t-2.5 9v15l2 2h-1l486 723h-474q-11 0 -11 10v29q0 10 11 10h538q10 0 10 -11v-14l-1 -1h1l-487 -725h482z" />
    <glyph glyph-name="zacute" unicode="&#x17a;" horiz-adv-x="474" 
d="M345 776q10 5 4 12l-14 24q-4 7 -13 1l-211 -148q-7 -3 -2 -10l11 -18q3 -9 11 -4zM128 48h282q9 0 9 -8v-32q0 -8 -9 -8h-350q-6 0 -8.5 5t0.5 10l16 24l280 408h-281q-8 0 -8 8v32q0 8 8 8h348q12 0 8 -15l-13 -20z" />
    <glyph glyph-name="Zdotaccent" unicode="&#x17b;" horiz-adv-x="636" 
d="M316 992q-13 0 -22 9t-9 22t9 22t22 9t22 -9t9 -22t-9 -22t-22 -9zM591 49q10 0 10 -10v-22q0 -17 -17 -17h-538q-6 0 -8.5 2t-2.5 9v15l2 2h-1l486 723h-474q-11 0 -11 10v29q0 10 11 10h538q10 0 10 -11v-14l-1 -1h1l-487 -725h482z" />
    <glyph glyph-name="zdotaccent" unicode="&#x17c;" horiz-adv-x="474" 
d="M246 734q-13 0 -22 9t-9 22t9 22t22 9t22 -9t9 -22t-9 -22t-22 -9zM128 48h282q9 0 9 -8v-32q0 -8 -9 -8h-350q-6 0 -8.5 5t0.5 10l16 24l280 408h-281q-8 0 -8 8v32q0 8 8 8h348q12 0 8 -15l-13 -20z" />
    <glyph glyph-name="Zcaron" unicode="&#x17d;" horiz-adv-x="636" 
d="M118 1007q-5 3 -5 9v26q0 11 12 4l191 -140l191 140q12 7 12 -4v-26q0 -6 -5 -9l-184 -143q-5 -5 -14 -5t-14 5zM591 49q10 0 10 -10v-22q0 -17 -17 -17h-538q-6 0 -8.5 2t-2.5 9v15l2 2h-1l486 723h-474q-11 0 -11 10v29q0 10 11 10h538q10 0 10 -11v-14l-1 -1h1
l-487 -725h482z" />
    <glyph glyph-name="zcaron" unicode="&#x17e;" horiz-adv-x="474" 
d="M260 606l184 143q5 3 5 9v26q0 11 -12 4l-191 -140l-191 140q-12 7 -12 -4v-26q0 -6 5 -9l184 -143q5 -5 14 -5t14 5zM128 48h282q9 0 9 -8v-32q0 -8 -9 -8h-350q-6 0 -8.5 5t0.5 10l16 24l280 408h-281q-8 0 -8 8v32q0 8 8 8h348q12 0 8 -15l-13 -20z" />
    <glyph glyph-name="florin" unicode="&#x192;" horiz-adv-x="702" 
d="M656 784q8 -5 4 -13l-12 -22q-5 -8 -12 -4q-45 30 -95 30q-20 0 -40 -3t-43.5 -13.5t-41 -26.5t-30 -45.5t-12.5 -67.5l1 -120h114q10 0 10 -10v-23q0 -10 -10 -10h-114v-632v-2v-8q-3 -93 -60 -141.5t-147 -48.5q-66 0 -122 35q-9 6 -5 13l12 23q5 8 13 4q42 -30 94 -30
q20 0 39 3t42.5 12.5t41 24.5t30 42.5t14.5 62.5h-1v642h-96q-10 0 -10 10v22q0 11 10 11h96v121q1 98 58 149t150 51q65 0 122 -36z" />
    <glyph glyph-name="uni01CD" unicode="&#x1cd;" horiz-adv-x="869" 
d="M237 1020q-5 3 -5 9v26q0 11 12 4l191 -140l191 140q12 7 12 -4v-26q0 -6 -5 -9l-184 -143q-5 -5 -14 -5t-14 5zM828 10q3 -10 -5 -10h-37q-6 0 -11 7l-77 165h-526l-78 -165q-4 -7 -10 -7h-38q-8 0 -5 10l375 787q3 8 11 8h15q8 0 11 -8zM194 218h482l-241 511z" />
    <glyph glyph-name="uni01CE" unicode="&#x1ce;" horiz-adv-x="513" 
d="M280 606l184 143q5 3 5 9v26q0 11 -12 4l-191 -140l-191 140q-12 7 -12 -4v-26q0 -6 5 -9l184 -143q5 -5 14 -5t14 5zM458 17q-12 126 -5 293q4 88 -41.5 139.5t-135.5 51.5q-54 0 -109.5 -15t-95.5 -37q-11 -5 -6 -15l10 -22q4 -7 15 -3q99 49 186 49q65 0 99 -36.5
t31 -107.5q-77 -13 -127.5 -24t-99 -27t-75.5 -34.5t-43 -45t-16 -60.5q0 -58 42 -93t115 -35q60 0 106.5 16t101.5 48q4 -59 13 -59h27q10 0 8 17zM210 35q-50 0 -83 22t-33 67q0 16 5 29.5t17 24.5t24 19.5t35 17l39 14t47 13t49 11t55 11.5q27 5 41 8q-5 -104 0 -172
q-104 -65 -196 -65z" />
    <glyph glyph-name="uni01CF" unicode="&#x1cf;" horiz-adv-x="210" 
d="M119 868l184 143q5 3 5 9v26q0 11 -12 4l-191 -140l-191 140q-12 7 -12 -4v-26q0 -6 5 -9l184 -143q5 -4 14 -4t14 4zM120 800h-30q-10 0 -10 -10v-781q0 -9 9 -9h32q9 0 9 9v781q0 10 -10 10z" />
    <glyph glyph-name="uni01D0" unicode="&#x1d0;" horiz-adv-x="198" 
d="M114 606l184 143q5 3 5 9v26q0 11 -12 4l-191 -140l-191 140q-12 7 -12 -4v-26q0 -6 5 -9l184 -143q5 -5 14 -5t14 5zM113 495h-28q-10 0 -10 -10v-468q0 -17 15 -17h25q8 0 8 10v475q0 10 -10 10z" />
    <glyph glyph-name="uni01D1" unicode="&#x1d1;" horiz-adv-x="942" 
d="M486 879l184 143q5 3 5 9v26q0 11 -12 4l-191 -140l-191 140q-12 7 -12 -4v-26q0 -6 5 -9l184 -143q5 -5 14 -5t14 5zM472 -7q112 0 206 53.5t149 147.5t55 206t-55 205.5t-149 147.5t-206 54t-207 -54t-150 -147.5t-55 -205.5t55 -206t150 -147.5t207 -53.5zM472 42
q-98 0 -181.5 47.5t-132 130t-48.5 180.5t48.5 180.5t132 130t181.5 47.5t180.5 -47.5t131 -130t48.5 -180.5t-48.5 -180.5t-131 -130t-180.5 -47.5z" />
    <glyph glyph-name="uni01D2" unicode="&#x1d2;" horiz-adv-x="592" 
d="M311 606l184 143q5 3 5 9v26q0 11 -12 4l-191 -140l-191 140q-12 7 -12 -4v-26q0 -6 5 -9l184 -143q5 -5 14 -5t14 5zM297 -6q105 0 180 73.5t75 179.5q0 108 -75 182t-180 74q-107 0 -182 -74t-75 -182q0 -106 75.5 -179.5t181.5 -73.5zM297 40q-87 0 -147.5 62
t-60.5 145q0 85 60 147.5t148 62.5q86 0 146 -62.5t60 -147.5q0 -83 -60 -145t-146 -62z" />
    <glyph glyph-name="uni01D3" unicode="&#x1d3;" horiz-adv-x="768" 
d="M396 861l184 143q5 3 5 9v26q0 11 -12 4l-191 -140l-191 140q-12 7 -12 -4v-26q0 -6 5 -9l184 -143q5 -5 14 -5t14 5zM689 800h-31q-11 0 -11 -10v-479q0 -56 -17 -102.5t-44 -77t-62 -51t-71 -29.5t-71 -9t-70 9t-70 29.5t-61.5 51t-43 77t-16.5 102.5v479q0 10 -11 10
h-29q-11 0 -11 -10v-493q0 -59 22 -113.5t60.5 -97t98.5 -68t131 -25.5t131.5 25.5t100 68t62 97t22.5 113.5v493q0 10 -9 10z" />
    <glyph glyph-name="uni01D4" unicode="&#x1d4;" 
d="M78 749q-5 3 -5 9v26q0 11 12 4l191 -140l191 140q12 7 12 -4v-26q0 -6 -5 -9l-184 -143q-5 -5 -14 -5t-14 5zM501 495q8 0 8 -11v-476q0 -8 -7 -8h-28q-4 0 -8 5.5t-4 10.5v69q-99 -92 -208 -92q-85 0 -143.5 48t-58.5 139v225q0 27 -2 77q0 13 7 13h26q16 0 16 -19
v-288q0 -67 40 -109t117 -42q60 0 109 27t97 74v346q0 11 8 11h31z" />
    <glyph glyph-name="Gcaron" unicode="&#x1e6;" horiz-adv-x="797" 
d="M241 1014q-5 3 -5 9v26q0 11 12 4l191 -140l191 140q12 7 12 -4v-26q0 -6 -5 -9l-184 -143q-5 -5 -14 -5t-14 5zM739 294q7 0 9 -2t2 -9v-159q0 -7 -10 -17q-119 -114 -285 -114q-111 0 -205.5 53.5t-149.5 147t-55 205.5t55 206t149.5 148t205.5 54q83 0 157 -29.5
t130 -83.5q13 -13 6 -19l-24 -20q-7 -8 -16 1q-40 40 -104 71t-140 31q-71 0 -132.5 -22t-104 -58t-73 -83t-45 -97t-14.5 -99q0 -50 14.5 -100t44.5 -96.5t73 -82t104 -57t133 -21.5q73 0 133.5 28t102.5 68v109h-234q-11 0 -11 9v28q0 10 10 10h274z" />
    <glyph glyph-name="gcaron" unicode="&#x1e7;" horiz-adv-x="615" 
d="M323 606l184 143q5 3 5 9v26q0 11 -12 4l-191 -140l-191 140q-12 7 -12 -4v-26q0 -6 5 -9l184 -143q5 -5 14 -5t14 5zM413 -34q30 -4 51 -9t46 -15t40 -23.5t24 -36.5t7 -52q-5 -60 -46.5 -102.5t-103.5 -62t-136 -19.5q-106 0 -171.5 45t-62.5 131q3 50 32 83.5t77 49.5
q-56 6 -94 30.5t-41 64.5q-3 41 30.5 65.5t79.5 11.5q-25 20 -44 58.5t-20 84.5q-4 97 60 163.5t160 66.5q31 0 87.5 -5.5t132.5 -3.5q9 0 9 -6l-1 -29q-29 -6 -95 -4q31 -20 52 -44.5t29.5 -51.5t11.5 -46.5t3 -43.5q0 -95 -64.5 -152.5t-158.5 -55.5q-71 1 -132 40
q-39 11 -67.5 -1t-25.5 -40q3 -29 37 -44.5t99 -22.5q28 -3 97.5 -11.5t97.5 -12.5zM306 454q-76 0 -128 -51t-51 -128q-1 -69 52.5 -119.5t125.5 -51.5q83 -1 130 46.5t48 124.5q-1 78 -52 128.5t-125 50.5zM301 -308q94 0 160 37.5t69 98.5q2 38 -21 58.5t-87 31.5
q-51 9 -189 24q-39 5 -80 -28t-44 -88q-2 -46 26 -77.5t70.5 -44t95.5 -12.5z" />
    <glyph glyph-name="Scommaaccent" unicode="&#x218;" horiz-adv-x="621" 
d="M352 421l43 -16.5t43 -18.5t43 -23.5t36.5 -28t31 -34.5t19.5 -42t8 -51q0 -89 -73.5 -151t-190.5 -62q-138 0 -255 115l-5 5q-11 10 -3 18l16 18q10 10 20 1l12 -11.5l24 -22t34 -25.5t44 -25.5t52.5 -18t60.5 -7.5q57 0 100 15t67 40.5t35.5 53t11.5 57.5q0 19 -4.5 36
t-14.5 31t-20.5 25.5t-29 22.5l-31.5 18.5t-37.5 16.5l-38.5 14l-42 14.5l-40 13.5q-46 16 -79 32.5t-65 40.5t-49 57t-17 74q0 39 14.5 74.5t44 65t79 47t113.5 17.5q116 0 235 -94q10 -9 4 -18l-15 -20q-7 -10 -15 -2q-1 1 -12.5 9.5l-23.5 17t-32 20t-40 19.5t-47 14
t-54 6q-95 0 -148 -43.5t-53 -112.5q0 -18 4 -33.5t14 -29t19.5 -24.5t29 -22l32.5 -18t39.5 -17l42 -16t47.5 -17q11 -3 16 -5zM343 -149q3 -5 3 -10q2 -42 -8 -99q-11 -52 -44 -97q-6 -9 -11 -6l-10 5q-8 2 -4 9q32 48 34 98q1 25 0 47h-3q-17 0 -30 13.5t-13 30.5t13 30
t30 13q15 0 27 -9.5t16 -24.5z" />
    <glyph glyph-name="scommaaccent" unicode="&#x219;" horiz-adv-x="460" 
d="M235 269q39 -11 66.5 -21t55.5 -26.5t43 -40t15 -52.5q0 -64 -50.5 -100t-137.5 -36q-54 0 -102.5 19.5t-74.5 40.5q-7 4 -3 11l16 23q6 8 12 3q5 -5 22 -15.5t54.5 -23t75.5 -12.5q72 0 104 25.5t32 61.5q0 18 -8.5 32.5t-20.5 24t-32.5 18.5t-37 14l-41.5 12
q-85 22 -128.5 54.5t-43.5 86.5q0 57 46 95.5t128 38.5q81 0 163 -53q8 -5 4 -11l-15 -24q-5 -7 -14 -3q-43 24 -72.5 34.5t-65.5 10.5q-38 0 -65 -9.5t-39 -25t-16.5 -28.5t-4.5 -26q0 -17 8.5 -31t20 -23t32.5 -18.5t35.5 -14zM267 -149q3 -5 3 -10q3 -42 -8 -99
q-11 -52 -44 -97q-6 -9 -11 -6l-10 5q-8 2 -4 9q32 48 34 98q1 25 0 47h-3q-17 0 -30 13.5t-13 30.5t13 30t30 13q15 0 27 -9.5t16 -24.5z" />
    <glyph glyph-name="uni021A" unicode="&#x21a;" horiz-adv-x="707" 
d="M653 800q5 0 7 -2t2 -9v-27q0 -10 -9 -10h-274v-741q0 -11 -9 -11h-24q-17 0 -17 18v734h-273q-11 0 -11 10v27q0 11 11 11h597zM396 -147q3 -5 3 -10q2 -42 -8 -99q-11 -52 -44 -97q-6 -9 -11 -6l-10 5q-8 2 -4 9q32 48 34 98q1 25 0 47h-3q-17 0 -30 13.5t-13 30.5
t13 30t30 13q15 0 27 -9.5t16 -24.5z" />
    <glyph glyph-name="uni021B" unicode="&#x21b;" horiz-adv-x="370" 
d="M329 28q3 -7 -10 -14q-42 -19 -91 -19q-30 0 -51 8t-33.5 22t-19.5 38.5t-9 50.5t-2 65v270h-64q-9 0 -9 8v12q0 9 7 10q34 8 49 20t24.5 43.5t15.5 99.5q2 9 6 9h14q6 0 6 -9v-147h139q10 0 10 -9v-29q0 -8 -10 -8h-120q-13 0 -20 3v-263q0 -35 0.5 -52.5t4 -39.5
t11 -32t21 -17t34.5 -7q40 0 73 11q16 5 18 -2zM276 -149q3 -4 3 -10q2 -42 -8 -99q-11 -52 -44 -97q-6 -9 -11 -6l-10 5q-8 2 -4 9q32 48 34 98q1 25 0 47h-3q-17 0 -30 13.5t-13 30.5t13 30t30 13q15 0 27 -9.5t16 -24.5z" />
    <glyph glyph-name="uni0228" unicode="&#x228;" horiz-adv-x="659" 
d="M591 752h-465v-334h300q10 0 10 -11v-25q0 -12 -10 -12h-300v-322h465q11 0 11 -11v-26q0 -11 -11 -11h-242l-44 -69q22 5 40 5q53 0 91 -38t38 -92t-39 -92.5t-93 -38.5q-71 0 -112 54q-3 5 0 8l9 10q10 10 15 3q14 -17 36.5 -30t48.5 -13q48 0 75.5 28.5t27.5 70.5
q0 40 -26.5 69t-71.5 29q-25 0 -42.5 -9t-38.5 -31q-9 -9 -13 -3l-12 12q-3 2 -1 6q0 1 5 8l71 113h-229q-9 0 -9 9v781q0 10 11 10h505q11 0 11 -10v-28q0 -10 -11 -10z" />
    <glyph glyph-name="uni0229" unicode="&#x229;" horiz-adv-x="566" 
d="M527 256q0 -21 -9.5 -28.5t-27.5 -7.5h-400q7 -72 61 -127t143 -55q101 0 174 85q9 8 15 1l10 -11q6 -7 0 -14q-70 -89 -169 -103l2 4h-36l-4 -6q-104 2 -175.5 74t-71.5 180q0 107 71 180.5t174 73.5q104 0 173.5 -72.5t69.5 -173.5zM89 261h389q0 31 -12 63.5t-34.5 63
t-61.5 50t-87 19.5t-86.5 -19t-61 -48.5t-34.5 -63t-12 -65.5zM286 -6h5q11 0 33 2l-42 -65q22 5 40 5q53 0 91 -38t38 -92q0 -53 -38.5 -92t-93.5 -39q-71 0 -112 54q-3 5 0 8l9 10q10 10 15 3q14 -17 36.5 -30t48.5 -13q48 0 75.5 28.5t27.5 70.5q0 40 -26.5 69t-71.5 29
q-25 0 -42.5 -9t-38.5 -31q-9 -9 -13 -3l-12 12q-3 2 -1 6q0 1 5 8z" />
    <glyph glyph-name="uni0237" unicode="&#x237;" horiz-adv-x="182" 
d="M101 495h-28q-10 0 -10 -11v-584q0 -44 -10.5 -61t-47.5 -32q-7 -3 -4 -12l15 -29q2 -7 11 -3q53 21 69 52t16 85l-1 584q0 11 -10 11z" />
    <glyph glyph-name="circumflex" unicode="&#x2c6;" horiz-adv-x="506" 
d="M239 801l-184 -143q-5 -3 -5 -9v-26q0 -4 4 -5.5t8 0.5l191 141l191 -141q12 -5 12 5v26q0 6 -5 9l-184 143q-5 5 -14 5t-14 -5z" />
    <glyph glyph-name="caron" unicode="&#x2c7;" horiz-adv-x="506" 
d="M267 612l184 143q5 3 5 9v26q0 11 -12 4l-191 -140l-191 140q-12 7 -12 -4v-26q0 -6 5 -9l184 -143q5 -5 14 -5t14 5z" />
    <glyph glyph-name="breve" unicode="&#x2d8;" horiz-adv-x="447" 
d="M39 785q6 -73 57 -120t128 -47q76 0 127 47t58 119q2 17 -7 17h-26q-4 0 -8 -15q-8 -62 -52.5 -95.5t-91.5 -33.5q-50 0 -93 33t-51 98q-4 13 -7 13h-27q-7 0 -7 -16z" />
    <glyph glyph-name="dotaccent" unicode="&#x2d9;" horiz-adv-x="222" 
d="M111 734q-13 0 -22 9t-9 22t9 22t22 9t22 -9t9 -22t-9 -22t-22 -9z" />
    <glyph glyph-name="ring" unicode="&#x2da;" horiz-adv-x="352" 
d="M177 570q-50 0 -85 34.5t-35 85.5q0 49 35 83.5t85 34.5q49 0 83.5 -34.5t34.5 -83.5q0 -51 -34.5 -85.5t-83.5 -34.5zM177 603q36 0 61 25t25 62q0 35 -25 59.5t-61 24.5q-35 0 -60.5 -24.5t-25.5 -59.5q0 -37 25 -62t61 -25z" />
    <glyph glyph-name="ogonek" unicode="&#x2db;" horiz-adv-x="330" 
d="M210 0q-71 -24 -120.5 -70t-49.5 -97q0 -50 32.5 -74.5t83.5 -27.5q72 -3 125 32q9 5 9 10v17q0 4 -4.5 6t-8.5 0q-51 -31 -108 -31q-36 0 -64 17.5t-28 59.5q0 44 44 84.5t117 73.5h-28z" />
    <glyph glyph-name="tilde" unicode="&#x2dc;" horiz-adv-x="537" 
d="M42 705l15 -16q5 -5 11 1q46 52 101 52q25 0 45.5 -9t36 -21.5l31 -25t38 -21.5t50.5 -9q26 0 49 8.5t39.5 22t23.5 21t12 13.5l1 1q4 6 1 10l-17 17q-3 5 -9 -1l-5 -5t-10.5 -9.5t-15 -11t-19.5 -11.5t-24 -8.5t-28 -3.5q-27 0 -52 13.5t-42 30t-45.5 30t-62.5 13.5
q-25 0 -48.5 -9t-39.5 -23.5t-23 -22.5t-12 -15l-1 -1q-5 -5 0 -10z" />
    <glyph glyph-name="hungarumlaut" unicode="&#x2dd;" horiz-adv-x="338" 
d="M48 660q-3 0 -6 2.5t-2 6.5l32 169q0 8 8 8h29q10 0 8 -8l-38 -170q-2 -8 -9 -8h-22zM229 660q-9 0 -9 9l32 169q2 8 8 8h30q10 0 7 -8l-37 -170q-3 -8 -9 -8h-22z" />
    <glyph glyph-name="uni0326" unicode="&#x326;" horiz-adv-x="0" 
d="M-71 -159q2 -42 -8 -99q-11 -52 -44 -97q-6 -9 -11 -6l-10 5q-8 2 -4 9q32 48 34 98q1 25 0 47h-3q-17 0 -30 13.5t-13 30.5t13 30t30 13q16 0 28 -10t15 -25q3 -4 3 -9z" />
    <glyph glyph-name="Delta" unicode="&#x394;" horiz-adv-x="854" 
d="M819 7q4 -7 -4 -7h-774q-8 0 -5 8l374 789q4 8 8 8h20q5 0 8 -8zM107 50h640l-319 679z" />
    <glyph glyph-name="Omega" unicode="&#x3a9;" horiz-adv-x="865" 
d="M24 40v-32q0 -8 8 -8h333q8 0 8 8v26q0 8 -7 11q-2 1 -3 2q-48 15 -98.5 48t-94.5 78t-72 105t-28 121q0 98 47.5 181.5t131 133t184.5 49.5q100 0 183.5 -49.5t131 -133t47.5 -181.5q0 -61 -28 -121t-72 -105t-94.5 -78t-98.5 -48q-1 -1 -3 -2q-7 -3 -7 -11v-26
q0 -8 7 -8h335q7 0 7 8v32q0 7 -7 7h-257q31 11 65.5 31.5t71 54t65.5 73t47.5 93t18.5 110.5q0 112 -55 205t-149.5 145.5t-207.5 52.5q-114 0 -208.5 -53t-149.5 -145.5t-55 -204.5q0 -57 18.5 -110.5t47 -93t64.5 -73t70 -54t65 -31.5h-253q-8 0 -8 -7z" />
    <glyph glyph-name="mu" unicode="&#x3bc;" horiz-adv-x="551" 
d="M499 500q12 0 12 -11v-276q0 -98 -54 -162t-149 -64q-94 -1 -189 72l-1 -248q0 -11 -11 -11h-26q-11 0 -11 11v678q0 11 11 11h27q11 0 11 -11v-374q60 -50 115.5 -69.5t96 -11t71 33.5t46 61.5t15.5 75.5v284q0 11 10 11h26z" />
    <glyph glyph-name="pi" unicode="&#x3c0;" horiz-adv-x="720" 
d="M669 501q11 0 11 -11v-23q0 -12 -11 -12h-131v-322q0 -44 10 -61t47 -32q7 -3 4 -11l-14 -29q-3 -6 -11 -3q-51 19 -67.5 48t-17.5 77v6v5l1 322h-257l1 -444q0 -11 -11 -11h-27q-11 0 -11 11v444h-134q-11 0 -11 12v22q0 11 11 11z" />
    <glyph glyph-name="uni0401" unicode="&#x401;" horiz-adv-x="659" 
d="M199 1001q-14 0 -23 9t-9 23t9 23t23 9t23 -9t9 -23t-9 -23t-23 -9zM482 1001q-14 0 -23.5 9.5t-9.5 22.5t9.5 22.5t23.5 9.5t23 -9.5t9 -23t-9 -22.5t-23 -9zM591 752h-465v-334h300q10 0 10 -11v-25q0 -12 -10 -12h-300v-322h465q11 0 11 -11v-26q0 -11 -11 -11h-507
q-9 0 -9 9v781q0 10 11 10h505q11 0 11 -10v-28q0 -10 -11 -10z" />
    <glyph glyph-name="uni0403" unicode="&#x403;" horiz-adv-x="651" 
d="M203 878l-11 18q-5 7 2 10l211 148q9 6 13 -1l14 -24q6 -7 -4 -12l-214 -143q-8 -5 -11 4zM584 800q16 0 16 -17v-25q0 -10 -11 -8q-24 2 -36 2h-447v-743q0 -9 -9 -9h-33q-9 0 -9 9v781q0 10 10 10h519z" />
    <glyph glyph-name="uni0404" unicode="&#x404;" horiz-adv-x="797" 
d="M747 128q7 -7 -7 -21q-119 -114 -285 -114q-111 0 -205.5 53.5t-149.5 147t-55 205.5t55 206t149.5 148t205.5 54q83 0 157 -29.5t130 -83.5q13 -13 6 -19l-24 -20q-7 -8 -16 1q-40 40 -104 71t-140 31q-84 0 -154 -30t-114 -79t-69.5 -107t-30.5 -118h424q10 0 10 -10
v-28q0 -10 -10 -10h-424q4 -61 29 -119t69.5 -107t114.5 -78.5t155 -29.5q135 0 241 101q11 11 17 6z" />
    <glyph glyph-name="uni0406" unicode="&#x406;" horiz-adv-x="210" 
d="M120 800h-30q-10 0 -10 -10v-781q0 -9 9 -9h32q9 0 9 9v781q0 10 -10 10z" />
    <glyph glyph-name="uni0407" unicode="&#x407;" horiz-adv-x="210" 
d="M-36 995q-14 0 -23 9.5t-9 22.5q0 14 9 23t23 9t23 -9t9 -23t-9 -23t-23 -9zM247 995q-14 0 -23.5 9.5t-9.5 22.5t9.5 22.5t23.5 9.5t23 -9t9 -23q0 -13 -9.5 -22.5t-22.5 -9.5zM120 800h-30q-10 0 -10 -10v-781q0 -9 9 -9h32q9 0 9 9v781q0 10 -10 10z" />
    <glyph glyph-name="uni0408" unicode="&#x408;" horiz-adv-x="271" 
d="M174 800q17 0 17 -17v-880q-2 -72 -38.5 -126.5t-95.5 -84.5q-11 -6 -16 2l-14 27q-5 9 3 13q51 26 81 70.5t30 106.5v853q0 5 -0.5 13t-1.5 12q-2 11 9 11h26z" />
    <glyph glyph-name="uni040C" unicode="&#x40c;" horiz-adv-x="600" 
d="M174 877l-11 18q-5 7 2 10l211 148q9 6 13 -1l14 -24q6 -7 -4 -12l-214 -143q-8 -5 -11 4zM570 17q6 -5 3.5 -11t-10.5 -6h-35q-7 0 -14 7l-423 410v-406q0 -11 -10 -11h-29q-10 0 -10 11v742q0 12 -2 36q0 11 8 11h26q17 0 17 -16v-360l394 370q8 6 12 6h40q7 0 9 -6
t-4 -11l-387 -362z" />
    <glyph glyph-name="uni040D" unicode="&#x40d;" horiz-adv-x="830" 
d="M288 1016l214 -143q8 -5 11 4l11 18q5 7 -2 10l-211 148q-9 6 -13 -1l-14 -24q-6 -7 4 -12zM83 800h34q7 0 7 -7v-706l586 704q7 9 14 9h23q8 0 8 -9v-782q0 -9 -9 -9h-31q-9 0 -9 9v703l-579 -693q-16 -19 -28 -19h-16q-8 0 -8 7v786q0 7 8 7z" />
    <glyph glyph-name="uni040E" unicode="&#x40e;" horiz-adv-x="620" 
d="M125 1025q6 -73 57 -120t128 -47q76 0 127 47t58 119q2 17 -7 17h-26q-4 0 -8 -15q-8 -62 -52.5 -95.5t-91.5 -33.5q-50 0 -93 33t-51 98q-4 13 -7 13h-27q-7 0 -7 -16zM598 800q10 0 5 -10l-259 -495q-83 -157 -223 -304q-6 -7 -12 1l-19 21q-6 7 1 14q128 138 191 253
l-266 511q-2 4 -0.5 6.5t4.5 2.5h40q5 0 8 -6l242 -464l240 462q5 8 11 8h37z" />
    <glyph glyph-name="uni0410" unicode="&#x410;" horiz-adv-x="869" 
d="M828 10q3 -10 -5 -10h-37q-6 0 -11 7l-77 165h-526l-78 -165q-4 -7 -10 -7h-38q-8 0 -5 10l375 787q3 8 11 8h15q8 0 11 -8zM194 218h482l-241 511z" />
    <glyph glyph-name="uni0411" unicode="&#x411;" horiz-adv-x="677" 
d="M367 425q115 0 187 -61.5t72 -152.5t-71 -151t-181 -60h-310q-9 0 -9 9v781q0 10 10 10h521q16 0 16 -17v-25q0 -10 -11 -8q-24 2 -37 2h-448v-327h261zM370 48q50 0 90 14t65 37.5t38.5 53t13.5 60t-13.5 60t-38.5 53t-65 37.5t-90 14h-264v-329h264z" />
    <glyph glyph-name="uni0412" unicode="&#x412;" horiz-adv-x="678" 
d="M467 410q75 -19 117.5 -73.5t42.5 -126.5q0 -92 -71 -151t-178 -59h-314q-9 0 -9 9v781q0 10 10 10h305q96 0 157 -58.5t61 -144.5q0 -69 -34 -118t-87 -69zM355 427q108 0 157 79q41 65 17 138q-25 75 -104 99q-29 9 -64 9h-255v-325h249zM373 48q44 0 81 11.5t61 30.5
t40.5 44t20 52.5t0 55t-20.5 52.5t-41.5 44t-61.5 30.5t-82 11.5h-264v-332h267z" />
    <glyph glyph-name="uni0413" unicode="&#x413;" horiz-adv-x="651" 
d="M584 800q16 0 16 -17v-25q0 -10 -11 -8q-24 2 -36 2h-447v-743q0 -9 -9 -9h-33q-9 0 -9 9v781q0 10 10 10h519z" />
    <glyph glyph-name="uni0414" unicode="&#x414;" horiz-adv-x="798" 
d="M747 48q11 0 11 -10v-122q0 -10 -10 -10h-29q-5 0 -7 2t-2 8v84h-622v-84q0 -6 -2 -8t-7 -2h-29q-10 0 -10 10v122q0 10 10 10h68q26 69 42.5 155.5t24 190.5t9.5 186t2 199v1q0 20 20 20h436q20 0 20 -20v-732h75zM245 752q0 -120 -1.5 -188.5t-7.5 -174.5t-22 -189.5
t-42 -151.5h452v704h-379z" />
    <glyph glyph-name="uni0415" unicode="&#x415;" horiz-adv-x="659" 
d="M591 752h-465v-334h300q10 0 10 -11v-25q0 -12 -10 -12h-300v-322h465q11 0 11 -11v-26q0 -11 -11 -11h-507q-9 0 -9 9v781q0 10 11 10h505q11 0 11 -10v-28q0 -10 -11 -10z" />
    <glyph glyph-name="uni0416" unicode="&#x416;" horiz-adv-x="1090" 
d="M1050 17q6 -5 3.5 -11t-10.5 -6h-34q-7 0 -15 7l-424 397v-393q0 -11 -9 -11h-32q-9 0 -9 11v399l-424 -403q-8 -7 -15 -7h-34q-8 0 -10.5 6t2.5 11l418 398l-388 368q-5 5 -3.5 11t8.5 6h40q5 0 13 -6l393 -374v333q0 6 -0.5 18t-1.5 18q-2 11 8 11h27q17 0 17 -16v-370
l393 380q8 6 13 6h39q7 0 9 -6t-3 -11l-388 -374z" />
    <glyph glyph-name="uni0417" unicode="&#x417;" horiz-adv-x="622" 
d="M379 415q91 -25 144.5 -84t53.5 -132q0 -90 -79.5 -148.5t-188.5 -58.5q-89 0 -157 34t-104 104q-5 9 1 15l22 17q10 7 15 -2q28 -59 88 -89.5t137 -30.5q88 0 151.5 45t63.5 114q0 78 -70.5 135.5t-200.5 58.5v44q127 1 191.5 50.5t64.5 117.5q0 66 -58 110.5t-142 44.5
q-72 0 -130.5 -31t-85.5 -90q-5 -8 -15 -1l-22 18q-7 4 -1 14q36 69 102.5 103.5t149.5 34.5q107 0 180 -58.5t73 -144.5q0 -63 -47.5 -114.5t-135.5 -75.5z" />
    <glyph glyph-name="uni0418" unicode="&#x418;" horiz-adv-x="830" 
d="M83 800h34q7 0 7 -7v-706l586 704q7 9 14 9h23q8 0 8 -9v-782q0 -9 -9 -9h-31q-9 0 -9 9v703l-579 -693q-16 -19 -28 -19h-16q-8 0 -8 7v786q0 7 8 7z" />
    <glyph glyph-name="uni0419" unicode="&#x419;" horiz-adv-x="838" 
d="M243 967q6 -73 57 -120t128 -47q76 0 127 47t58 119q2 17 -7 17h-22q-4 0 -8 -15q-7 -63 -50.5 -97.5t-97.5 -34.5q-56 0 -98.5 34t-49.5 100q-4 13 -7 13h-23q-7 0 -7 -16zM83 800h34q7 0 7 -7v-706l586 704q7 9 14 9h23q8 0 8 -9v-782q0 -9 -9 -9h-31q-9 0 -9 9v703
l-579 -693q-16 -19 -28 -19h-16q-8 0 -8 7v786q0 7 8 7z" />
    <glyph glyph-name="uni041A" unicode="&#x41a;" horiz-adv-x="600" 
d="M570 17q6 -5 3.5 -11t-10.5 -6h-35q-7 0 -14 7l-423 410v-406q0 -11 -10 -11h-29q-10 0 -10 11v742q0 12 -2 36q0 11 8 11h26q17 0 17 -16v-360l394 370q8 6 12 6h40q8 0 9.5 -6t-4.5 -11l-387 -362z" />
    <glyph glyph-name="uni041B" unicode="&#x41b;" horiz-adv-x="751" 
d="M671 800q20 0 20 -20v-772q0 -8 -8 -8h-32q-8 0 -8 8v744h-441v-597q0 -87 -38.5 -123.5t-111.5 -36.5q-16 0 -21.5 2t-5.5 8v25q0 12 13 12q65 0 90.5 26.5t25.5 90.5l-1 621q0 20 20 20h498z" />
    <glyph glyph-name="uni041C" unicode="&#x41c;" horiz-adv-x="1070" 
d="M987 800q8 0 8 -11v-778q0 -11 -11 -11h-29q-11 0 -11 11v688l-395 -680q-6 -9 -13 -9h-3q-8 0 -12 9l-395 680v-688q0 -11 -11 -11h-28q-12 0 -12 11v779q0 10 8 10h31q8 0 12 -7l409 -705l408 705q4 7 13 7h31z" />
    <glyph glyph-name="uni041D" unicode="&#x41d;" horiz-adv-x="806" 
d="M720 800q11 0 11 -10v-781q0 -9 -9 -9h-24q-16 0 -16 16v354h-558v-359q0 -11 -9 -11h-29q-11 0 -11 11v779q0 10 11 10h28q10 0 10 -10v-371h558v371q0 10 10 10h28z" />
    <glyph glyph-name="uni041E" unicode="&#x41e;" horiz-adv-x="942" 
d="M472 -7q112 0 206 53.5t149 147.5t55 206t-55 205.5t-149 147.5t-206 54t-207 -54t-150 -147.5t-55 -205.5t55 -206t150 -147.5t207 -53.5zM472 42q-98 0 -181.5 47.5t-132 130t-48.5 180.5t48.5 180.5t132 130t181.5 47.5t180.5 -47.5t131 -130t48.5 -180.5
t-48.5 -180.5t-131 -130t-180.5 -47.5z" />
    <glyph glyph-name="uni041F" unicode="&#x41f;" horiz-adv-x="754" 
d="M684 790v-781q0 -9 -9 -9h-30q-10 0 -10 9v742h-517v-742q0 -9 -8 -9h-31q-9 0 -9 9v781q0 10 10 10h594q10 0 10 -10z" />
    <glyph glyph-name="uni0420" unicode="&#x420;" horiz-adv-x="669" 
d="M365 800q68 0 122.5 -23.5t86.5 -62t48.5 -83t16.5 -89.5q0 -47 -16.5 -91.5t-48.5 -83t-86.5 -62t-122.5 -23.5h-244v-271q0 -11 -10 -11h-31q-10 0 -10 11v779q0 10 11 10h284zM367 330q70 0 121.5 31.5t76 79t24.5 101.5q0 85 -59 147.5t-163 62.5h-246v-422h246z" />
    <glyph glyph-name="uni0421" unicode="&#x421;" horiz-adv-x="797" 
d="M747 128q7 -7 -7 -21q-119 -114 -285 -114q-111 0 -205.5 53.5t-149.5 147t-55 205.5t55 206t149.5 148t205.5 54q83 0 157 -29.5t130 -83.5q13 -13 6 -19l-24 -20q-7 -8 -16 1q-40 40 -104 71t-140 31q-71 0 -132.5 -22t-104 -58t-73 -83t-45 -97t-14.5 -99
q0 -50 14.5 -100t44.5 -96.5t73 -82t104 -57t133 -21.5q135 0 241 101q11 11 17 6z" />
    <glyph glyph-name="uni0422" unicode="&#x422;" horiz-adv-x="707" 
d="M653 800q5 0 7 -2t2 -9v-27q0 -10 -9 -10h-274v-741q0 -11 -9 -11h-24q-17 0 -17 18v734h-273q-11 0 -11 10v27q0 11 11 11h597z" />
    <glyph glyph-name="uni0423" unicode="&#x423;" horiz-adv-x="620" 
d="M598 800q10 0 5 -10l-259 -495q-83 -157 -223 -304q-6 -7 -12 1l-19 21q-6 7 1 14q128 138 191 253l-266 511q-2 4 -0.5 6.5t4.5 2.5h40q5 0 8 -6l242 -464l240 462q5 8 11 8h37z" />
    <glyph glyph-name="uni0424" unicode="&#x424;" horiz-adv-x="839" 
d="M474 700q74 0 134 -25.5t98 -68t58 -95t20 -109.5q0 -56 -20 -108.5t-57.5 -96t-97.5 -69.5t-133 -26h-30v-96q0 -7 -7 -7h-34q-6 0 -6 7v96h-31q-73 0 -133 26t-97.5 69.5t-57.5 96t-20 108.5q0 57 20 109.5t58 95t98 68t134 25.5h29v95q0 7 7 7h31q9 0 9 -7v-95h28z
M363 149h36v504h-36q-78 0 -136.5 -36.5t-87 -92.5t-28.5 -120q0 -65 29 -122.5t88 -95t135 -37.5zM481 149q76 0 135 37.5t88.5 95t29.5 122.5q0 64 -28.5 120t-87.5 92.5t-137 36.5h-35v-504h35z" />
    <glyph glyph-name="uni0425" unicode="&#x425;" horiz-adv-x="708" 
d="M673 800q8 0 4 -7l-293 -394l289 -388q7 -11 -1 -11h-47q-5 0 -13 11l-258 348l-259 -348q-8 -11 -13 -11h-47q-6 0 -1 11l290 388l-293 394q-5 7 3 7h47q5 0 9 -7l264 -354l263 354q6 7 9 7h47z" />
    <glyph glyph-name="uni0426" unicode="&#x426;" horiz-adv-x="723" 
d="M692 -56q1 -11 -8 -11h-26q-16 0 -16 16v51h-568v1h-24q-10 0 -10 10v781q0 9 9 9h30q9 0 9 -9v-743h497v743q0 9 9 9h31q9 0 9 -9v-743h45q12 0 12 -12l-1 -57q0 -12 2 -36z" />
    <glyph glyph-name="uni0427" unicode="&#x427;" horiz-adv-x="583" 
d="M533 13q0 -12 -10 -12h-23q-10 0 -14 3.5t-5 12.5v368q-100 -71 -197 -71q-109 0 -177.5 61.5t-69.5 155.5v218q0 14 -2 40q0 12 10 12h24q17 0 17 -18v-247q0 -70 54.5 -122.5t140.5 -52.5q97 0 200 80v349q0 6 2 8.5t9 2.5h27q12 0 12 -11v-737q0 -14 2 -40z" />
    <glyph glyph-name="uni0428" unicode="&#x428;" horiz-adv-x="1199" 
d="M1140 800q9 0 9 -9v-781q0 -10 -9 -10h-1080q-10 0 -10 10v781q0 9 9 9h30q9 0 9 -9v-742h478l-1 742q0 9 9 9h31q9 0 9 -9v-742h477v742q0 9 9 9h30z" />
    <glyph glyph-name="uni0429" unicode="&#x429;" horiz-adv-x="1239" 
d="M1208 -56q0 -11 -9 -11h-25q-17 0 -17 16v51h-1097q-10 0 -10 10v781q0 9 9 9h30q9 0 9 -9v-742h478l-1 742q0 9 9 9h31q9 0 9 -9v-742h477v743q0 9 9 9h30q9 0 9 -9v-743h45q12 0 12 -12v-57q0 -12 2 -36z" />
    <glyph glyph-name="uni042A" unicode="&#x42a;" horiz-adv-x="801" 
d="M488 424q115 0 187 -61t72 -152t-71 -151t-181 -60h-308q-9 0 -9 9v742h-116q-12 0 -36 -2q-11 -2 -11 8v26q0 17 16 17h185q10 0 10 -10v-366h262zM491 48q50 0 90 14t65 37.5t38.5 53t13.5 60t-13.5 60t-38.5 53t-65 37.5t-90 14h-265v-329h265z" />
    <glyph glyph-name="uni042B" unicode="&#x42b;" horiz-adv-x="884" 
d="M360 424q115 0 187 -61t72 -152t-71 -151t-180 -60h-309q-9 0 -9 9v781q0 10 10 10h29q9 0 9 -10v-366h262zM804 790v-781q0 -9 -9 -9h-30q-9 0 -9 9v781q0 10 9 10h29q10 0 10 -10zM364 48q50 0 90 14t64.5 37.5t38 53t13.5 60t-13.5 60t-38 53t-64.5 37.5t-90 14h-266
v-329h266z" />
    <glyph glyph-name="uni042C" unicode="&#x42c;" horiz-adv-x="676" 
d="M363 424q114 0 186.5 -61t72.5 -152t-71 -151t-181 -60h-309q-9 0 -9 9v781q0 10 10 10h29q9 0 9 -10v-366h263zM366 48q44 0 81 11.5t61 30.5t41 43.5t20.5 51.5t0 54.5t-20.5 52t-40.5 43.5t-61 30.5t-81.5 11.5h-266l1 -329h265z" />
    <glyph glyph-name="uni042D" unicode="&#x42d;" horiz-adv-x="797" 
d="M341 807q111 0 205.5 -54t149.5 -148t55 -205.5t-55 -205.5t-149.5 -147.5t-205.5 -53.5q-166 0 -285 114q-14 14 -7 21l25 21q6 6 17 -6q106 -101 241 -101q85 0 154.5 29.5t114 78.5t70 107t29.5 119h-424q-10 0 -10 10v28q0 10 10 10h424q-5 60 -30.5 118t-69.5 107
t-114 79t-154 30q-76 0 -140 -31t-104 -71q-9 -9 -16 -1l-25 20q-6 6 7 19q56 54 130 83.5t157 29.5z" />
    <glyph glyph-name="uni042E" unicode="&#x42e;" horiz-adv-x="1185" 
d="M715 807q111 0 205.5 -54t149.5 -148t55 -205q0 -112 -55 -206t-149 -147.5t-206 -53.5q-108 0 -200.5 50t-148.5 138t-62 195h-174v-367q0 -9 -9 -9h-32q-9 0 -9 9v781q0 10 10 10h30q10 0 10 -10v-366h174q6 106 62 194t148.5 138.5t200.5 50.5zM715 42
q98 0 180.5 47.5t131 130t48.5 180.5t-48.5 180.5t-131 130t-180.5 47.5t-181.5 -47.5t-132 -130t-48.5 -180.5t48.5 -180.5t132 -130t181.5 -47.5z" />
    <glyph glyph-name="uni042F" unicode="&#x42f;" horiz-adv-x="681" 
d="M611 800q10 0 10 -10v-779q0 -6 -2 -8.5t-9 -2.5h-28q-11 0 -11 11v271h-253h-8l-195 -268q-10 -14 -20 -14h-33q-5 0 -6.5 3t1.5 7l202 276q-70 12 -119 54t-70 93.5t-21 107.5q0 46 16 90t47 83t84.5 62.5t121.5 23.5h293zM317 330h254l1 422h-255q-69 0 -120 -31
t-74 -77.5t-24 -101.5t22.5 -102t74.5 -78.5t121 -31.5z" />
    <glyph glyph-name="uni0430" unicode="&#x430;" horiz-adv-x="518" 
d="M458 17q-12 126 -5 293q4 88 -41.5 139.5t-135.5 51.5q-54 0 -109.5 -15t-95.5 -37q-11 -5 -6 -15l10 -22q4 -7 15 -3q99 49 186 49q65 0 99 -36.5t31 -107.5q-77 -13 -127.5 -24t-99 -27t-75.5 -34.5t-43 -45t-16 -60.5q0 -58 42 -93t115 -35q60 0 106.5 16t101.5 48
q4 -59 13 -59h27q10 0 8 17zM210 35q-50 0 -83 22t-33 67q0 16 5 29.5t17 24.5t24 19.5t35 17l39 14t47 13t49 11t55 11.5q27 5 41 8q-5 -104 0 -172q-104 -65 -196 -65z" />
    <glyph glyph-name="uni0431" unicode="&#x431;" horiz-adv-x="616" 
d="M317 503q106 0 181 -74t75 -182q0 -106 -75 -179.5t-181 -73.5q-97 0 -169 62.5t-85 157.5q-18 59 -18 151q0 67 11 127.5t37 117.5t65 98.5t99.5 66.5t135.5 25h69q13 0 37 2q11 0 11 -8v-24q0 -17 -16 -17h-99q-64 0 -114.5 -20t-84.5 -54.5t-56.5 -83t-33 -103.5
t-12.5 -119q33 60 92.5 95t130.5 35zM317 40q87 0 147 62t60 145q0 85 -60 147.5t-147 62.5q-88 0 -148 -62.5t-60 -147.5q0 -83 60.5 -145t147.5 -62z" />
    <glyph glyph-name="uni0432" unicode="&#x432;" horiz-adv-x="545" 
d="M361 262q59 -11 96 -46.5t37 -83.5q0 -59 -51.5 -95.5t-133.5 -36.5h-247q-7 0 -7 6v481q0 8 7 8h239q75 0 121.5 -33.5t46.5 -85.5q0 -42 -31.5 -74t-76.5 -40zM299 275q52 0 87 29.5t35 65.5q0 34 -32.5 59t-94.5 25h-191v-179h196zM305 41q67 0 103.5 28.5t36.5 66.5
q0 41 -41.5 71.5t-102.5 30.5h-198v-197h202z" />
    <glyph glyph-name="uni0433" unicode="&#x433;" horiz-adv-x="506" 
d="M439 495q15 0 15 -17v-24q0 -9 -11 -8q-22 2 -36 2h-308v-439q0 -9 -9 -9h-30q-9 0 -9 9v476q0 10 10 10h378z" />
    <glyph glyph-name="uni0434" unicode="&#x434;" horiz-adv-x="689" 
d="M639 47q11 0 11 -10v-111q0 -10 -10 -10h-29q-6 0 -7.5 2t-1.5 8v74h-515v-74q0 -6 -2 -8t-7 -2h-29q-10 0 -10 10v111q0 10 10 10h74q25 44 40.5 96t21.5 113t8 106t2 112v1q0 20 20 20h329q20 0 20 -20v-428h75zM243 448q0 -62 -1.5 -100.5t-7.5 -97t-21.5 -109
t-39.5 -94.5h342v401h-272z" />
    <glyph glyph-name="uni0435" unicode="&#x435;" horiz-adv-x="566" 
d="M490 220q18 0 27.5 7.5t9.5 28.5q0 101 -69.5 173.5t-173.5 72.5q-103 0 -174 -73.5t-71 -180.5q0 -109 73 -181.5t179 -72.5q63 0 114.5 28.5t87.5 76.5q6 7 0 14l-10 11q-6 7 -15 -1q-73 -85 -174 -85q-89 0 -143 55t-61 127h400zM89 261q0 32 12 65.5t34.5 63t61 48.5
t86.5 19t87 -19.5t61.5 -50t34.5 -63t12 -63.5h-389z" />
    <glyph glyph-name="uni0436" unicode="&#x436;" horiz-adv-x="859" 
d="M820 15q5 -4 3 -9.5t-9 -5.5h-37q-3 0 -13 6l-310 234v-229q0 -11 -10 -11h-29q-10 0 -10 11v229l-311 -234q-10 -6 -13 -6h-36q-7 0 -9 5.5t3 9.5l313 232l-284 234q-5 4 -3.5 9t7.5 5h38q8 0 14 -6l281 -235v194q0 12 -2 36q-2 11 8 11h26q17 0 17 -16v-224l280 234
q6 6 14 6h39q6 0 7.5 -5t-3.5 -9l-284 -234z" />
    <glyph glyph-name="uni0437" unicode="&#x437;" horiz-adv-x="461" 
d="M285 257q62 -12 96.5 -47t34.5 -79q0 -58 -54 -97t-135 -39q-56 0 -106.5 25.5t-73.5 69.5q-4 6 0 10l25 19q6 4 11 -4q18 -35 58.5 -54.5t87.5 -19.5q62 0 100 28.5t38 69.5q0 35 -41.5 66t-118.5 32l-1 40q77 2 117 29.5t40 59.5q0 37 -38 64.5t-96 27.5q-46 0 -85 -20
t-57 -55q-4 -8 -12 -2l-22 18q-5 3 -2 10q24 44 73 69.5t103 25.5q80 0 132 -37.5t52 -92.5q0 -42 -32 -73.5t-94 -43.5z" />
    <glyph glyph-name="uni0438" unicode="&#x438;" horiz-adv-x="599" 
d="M527 495q7 0 7 -7v-480q0 -8 -9 -8h-31q-8 0 -8 8v412l-382 -412q-7 -8 -13 -8h-17q-9 0 -9 8v479q0 8 7 8h34q7 0 7 -8v-411l379 412q7 7 12 7h23z" />
    <glyph glyph-name="uni0439" unicode="&#x439;" horiz-adv-x="599" 
d="M114 780q6 -73 57 -120t128 -47q76 0 127 47t58 119q2 17 -7 17h-26q-4 0 -8 -15q-8 -62 -52.5 -95.5t-91.5 -33.5q-50 0 -93 33t-51 98q-4 13 -7 13h-27q-7 0 -7 -16zM527 495q7 0 7 -7v-480q0 -8 -9 -8h-31q-8 0 -8 8v412l-382 -412q-7 -8 -13 -8h-17q-9 0 -9 8v479
q0 8 7 8h34q7 0 7 -8v-411l379 412q7 7 12 7h23z" />
    <glyph glyph-name="uni043A" unicode="&#x43a;" horiz-adv-x="501" 
d="M462 15q5 -4 3 -9.5t-9 -5.5h-37q-3 0 -13 6l-310 234v-229q0 -11 -10 -11h-29q-10 0 -10 11v437q0 12 -2 36q0 11 8 11h26q17 0 17 -16v-225l280 235q6 6 14 6h39q6 0 7.5 -5t-3.5 -9l-284 -234z" />
    <glyph glyph-name="uni043B" unicode="&#x43b;" horiz-adv-x="591" 
d="M522 495q20 0 20 -20v-467q0 -8 -8 -8h-32q-8 0 -8 8v441h-317l1 -306q0 -146 -144 -148q-9 0 -9 9v28q0 9 9 9q53 1 74.5 26.5t21.5 84.5l-1 323q0 20 20 20h373z" />
    <glyph glyph-name="uni043C" unicode="&#x43c;" horiz-adv-x="775" 
d="M702 495q8 0 8 -8v-479q0 -8 -8 -8h-31q-9 0 -9 8v408l-264 -405q-5 -8 -10 -8h-2q-7 0 -10 8l-263 402v-405q0 -8 -8 -8h-31q-9 0 -9 8v479q0 8 7 8h36q6 0 10 -7l269 -410l268 410q3 7 11 7h36z" />
    <glyph glyph-name="uni043D" unicode="&#x43d;" horiz-adv-x="605" 
d="M532 495q8 0 8 -8v-480q0 -7 -7 -7h-35q-6 0 -6 7v218h-379v-217q0 -8 -8 -8h-32q-8 0 -8 8v479q0 8 8 8h32q8 0 8 -8v-216h379v216q0 8 7 8h33z" />
    <glyph glyph-name="uni043E" unicode="&#x43e;" horiz-adv-x="590" 
d="M297 -6q105 0 180 73.5t75 179.5q0 108 -75 182t-180 74q-107 0 -182 -74t-75 -182q0 -106 75.5 -179.5t181.5 -73.5zM297 40q-87 0 -147.5 62t-60.5 145q0 85 60 147.5t148 62.5q86 0 146 -62.5t60 -147.5q0 -83 -60 -145t-146 -62z" />
    <glyph glyph-name="uni043F" unicode="&#x43f;" horiz-adv-x="551" 
d="M491 9q0 -9 -9 -9h-30q-9 0 -9 9v439h-335v-439q0 -9 -9 -9h-30q-9 0 -9 9v476q0 10 10 10h411q10 0 10 -10v-476z" />
    <glyph glyph-name="uni0440" unicode="&#x440;" 
d="M282 500q94 0 163 -69.5t69 -179.5t-62.5 -183.5t-166.5 -73.5q-48 0 -93.5 17.5t-80.5 45.5v-331q0 -20 -22 -20h-18q-8 0 -8 8v718q0 3 -3 51q0 12 8 12h27q16 0 16 -16v-33q76 54 171 54zM277 39q84 0 137 59.5t53 152.5q0 65 -29.5 113t-72.5 69.5t-91 21.5
q-86 0 -163 -58v-296q81 -62 166 -62z" />
    <glyph glyph-name="uni0441" unicode="&#x441;" horiz-adv-x="527" 
d="M483 106q7 -7 1 -14q-85 -99 -192 -99q-105 0 -178.5 73t-73.5 181t73.5 181.5t178.5 73.5q55 0 103 -24.5t79 -62.5q7 -10 0 -15l-17 -18q-6 -5 -14 3q-59 72 -147 72q-52 0 -93.5 -19.5t-66 -51t-37 -67.5t-12.5 -72t12.5 -71.5t37 -67t66.5 -51t95 -19.5q84 0 154 85
q7 7 15 1z" />
    <glyph glyph-name="uni0442" unicode="&#x442;" horiz-adv-x="546" 
d="M493 495q8 0 8 -8v-32q0 -7 -8 -7h-196v-440q0 -8 -7 -8h-33q-8 0 -8 8v440h-196q-8 0 -8 7v32q0 8 8 8h440z" />
    <glyph glyph-name="uni0443" unicode="&#x443;" horiz-adv-x="541" 
d="M509 495q11 0 6 -10l-211 -436q-104 -213 -238 -358q-7 -6 -15 2l-18 17q-7 7 2 18q59 68 120.5 158t94.5 167l-216 433q-4 9 5 9h40q7 0 8 -6l190 -385l184 383q5 8 11 8h37z" />
    <glyph glyph-name="uni0444" unicode="&#x444;" horiz-adv-x="948" 
d="M666 499q94 0 163 -69.5t69 -179.5t-62.5 -183.5t-166.5 -73.5q-48 0 -93.5 17.5t-80.5 45.5v-330q0 -10 -6.5 -15t-15.5 -5h-18q-8 0 -8 8v341q-34 -28 -80 -45t-93 -17q-104 0 -166.5 73.5t-62.5 183.5t69.5 179.5t162.5 69.5q94 0 170 -52v211q0 6 -3 51q0 12 8 12h27
q16 0 16 -16v-260q76 54 171 54zM282 38q85 0 165 61v299q-76 56 -162 56q-49 0 -91.5 -21.5t-71.5 -69.5t-29 -113q0 -93 52.5 -152.5t136.5 -59.5zM661 38q84 0 137 59.5t53 152.5q0 65 -29 113t-72 69.5t-92 21.5q-86 0 -163 -58v-296q81 -62 166 -62z" />
    <glyph glyph-name="uni0445" unicode="&#x445;" horiz-adv-x="523" 
d="M471 11q3 -5 1.5 -8t-5.5 -3h-38q-6 0 -10 7l-158 208l-156 -208q-5 -7 -11 -7h-37q-4 0 -6 3.5t1 7.5l179 236l-179 237q-3 4 -1 7.5t6 3.5h36q7 0 12 -7l156 -209l158 209q4 7 10 7h38q4 0 6 -3.5t-1 -7.5l-180 -237z" />
    <glyph glyph-name="uni0446" unicode="&#x446;" horiz-adv-x="553" 
d="M521 -56q1 -11 -8 -11h-25q-17 0 -17 16v51h-398v1h-23q-10 0 -10 10v475q0 9 9 9h30q9 0 9 -9v-439h327v439q0 9 9 9h30q9 0 9 -9v-439h45q12 0 12 -12l-1 -55q2 -28 2 -36z" />
    <glyph glyph-name="uni0447" unicode="&#x447;" horiz-adv-x="567" 
d="M491 13q1 -12 -9 -12h-23q-19 0 -19 16v207q-95 -70 -189 -70q-88 0 -146 60.5t-58 152.5v76q0 14 -2 40q0 7 2 9.5t8 2.5h24q17 0 17 -18v-105q0 -68 45.5 -118.5t113.5 -51.5q84 -2 185 79l1 203q0 11 10 11h27q12 0 12 -11v-431q0 -7 0.5 -20.5t0.5 -19.5z" />
    <glyph glyph-name="uni0448" unicode="&#x448;" horiz-adv-x="898" 
d="M839 495q9 0 9 -9v-476q0 -10 -10 -10h-778q-10 0 -10 10v476q0 9 9 9h30q9 0 9 -9v-439h327v439q0 9 9 9h30q9 0 9 -9v-439h327v439q0 9 9 9h30z" />
    <glyph glyph-name="uni0449" unicode="&#x449;" horiz-adv-x="947" 
d="M916 -56q1 -11 -8 -11h-25q-17 0 -17 16v51h-796q-10 0 -10 10v476q0 9 9 9h30q9 0 9 -9v-439h327v439q0 9 9 9h30q9 0 9 -9v-439h327v439q0 9 9 9h30q9 0 9 -9v-439h45q12 0 12 -12l-1 -55q2 -28 2 -36z" />
    <glyph glyph-name="uni044A" unicode="&#x44a;" horiz-adv-x="702" 
d="M419 368q103 0 166 -54.5t63 -129.5q0 -78 -62.5 -131t-166.5 -53h-241q-9 0 -9 9v439h-107q-12 0 -36 -2q-11 -2 -11 8v24q0 17 16 17h176q10 0 10 -10v-117h202zM421 47q43 0 77.5 12t55.5 31t32.5 43.5t11.5 50.5t-11.5 50.5t-32.5 43.5t-55.5 31t-77.5 12h-204v-274
h204z" />
    <glyph glyph-name="uni044B" unicode="&#x44b;" horiz-adv-x="767" 
d="M300 368q103 0 166 -54.5t63 -129.5q0 -78 -62.5 -131t-166.5 -53h-241q-9 0 -9 9v476q0 10 10 10h28q10 0 10 -10v-117h202zM677 495q10 0 10 -10v-476q0 -9 -9 -9h-30q-9 0 -9 9v476q0 10 9 10h29zM302 47q43 0 77.5 12t55.5 31t32.5 43.5t11.5 50.5t-11.5 50.5
t-32.5 43.5t-55.5 31t-77.5 12h-204v-274h204z" />
    <glyph glyph-name="uni044C" unicode="&#x44c;" horiz-adv-x="587" 
d="M302 368q103 0 166 -54.5t63 -129.5q0 -78 -62.5 -131t-166.5 -53h-241q-9 0 -9 9v476q0 10 10 10h28q10 0 10 -10v-117h202zM304 47q43 0 77.5 12t55.5 31t32.5 43.5t11.5 50.5t-11.5 50.5t-32.5 43.5t-55.5 31t-77.5 12h-204v-274h204z" />
    <glyph glyph-name="uni044D" unicode="&#x44d;" horiz-adv-x="538" 
d="M241 502q105 0 178.5 -73.5t73.5 -181.5t-73.5 -181t-178.5 -73q-107 0 -192 99q-6 7 1 14l16 18q8 6 15 -1q70 -85 154 -85q49 0 89 16.5t64.5 44.5t38.5 60t18 67h-269q-10 0 -10 10v22q0 10 10 10h269q-4 35 -18 67.5t-38.5 60t-64 44.5t-87.5 17q-88 0 -147 -72
q-8 -8 -14 -3l-17 18q-7 5 0 15q31 38 79 62.5t103 24.5z" />
    <glyph glyph-name="uni044E" unicode="&#x44e;" horiz-adv-x="802" 
d="M493 503q105 0 180 -74t75 -182q0 -106 -75 -179.5t-180 -73.5q-100 0 -173.5 66t-82.5 164h-109v-215q0 -10 -8 -10h-25q-15 0 -15 17v468q0 10 10 10h28q10 0 10 -10v-214h109q9 100 82.5 166.5t173.5 66.5zM493 40q87 0 147 62t60 145q0 85 -60 147.5t-147 62.5
q-88 0 -148 -62.5t-60 -147.5q0 -83 60.5 -145t147.5 -62z" />
    <glyph glyph-name="uni044F" unicode="&#x44f;" horiz-adv-x="559" 
d="M510 495q9 0 9 -9v-476q0 -10 -9 -10h-29q-10 0 -10 10v117h-202q-12 0 -38 2l-117 -119q-8 -10 -13 -10h-42q-4 0 -5 3t2 7l129 129q-67 19 -106 66.5t-39 105.5q0 78 62.5 131t166.5 53h241zM268 174h203v274h-203q-43 0 -77.5 -12t-56 -31t-33 -43.5t-11.5 -50.5
t11.5 -50.5t33 -43.5t56 -31t77.5 -12z" />
    <glyph glyph-name="uni0451" unicode="&#x451;" horiz-adv-x="566" 
d="M143 731q-13 0 -22.5 9.5t-9.5 22.5t9.5 22.5t22.5 9.5q14 0 23.5 -9t9.5 -23t-9.5 -23t-23.5 -9zM426 731q-13 0 -22.5 9.5t-9.5 22.5t9.5 22.5t22.5 9.5t22.5 -9.5t9.5 -22.5t-9.5 -22.5t-22.5 -9.5zM490 220q18 0 27.5 7.5t9.5 28.5q0 101 -69.5 173.5t-173.5 72.5
q-103 0 -174 -73.5t-71 -180.5q0 -109 73 -181.5t179 -72.5q63 0 114.5 28.5t87.5 76.5q6 7 0 14l-10 11q-6 7 -15 -1q-73 -85 -174 -85q-89 0 -143 55t-61 127h400zM89 261q0 32 12 65.5t34.5 63t61 48.5t86.5 19t87 -19.5t61.5 -50t34.5 -63t12 -63.5h-389z" />
    <glyph glyph-name="uni0453" unicode="&#x453;" horiz-adv-x="506" 
d="M129 632l-11 18q-5 7 2 10l211 148q9 6 13 -1l14 -24q6 -7 -4 -12l-214 -143q-8 -5 -11 4zM439 495q15 0 15 -17v-24q0 -9 -11 -8q-22 2 -36 2h-308v-439q0 -9 -9 -9h-30q-9 0 -9 9v476q0 10 10 10h378z" />
    <glyph glyph-name="uni0454" unicode="&#x454;" horiz-adv-x="538" 
d="M488 106q7 -7 1 -14q-85 -99 -192 -99q-105 0 -178.5 73t-73.5 181t73.5 181.5t178.5 73.5q55 0 103 -24.5t79 -62.5q7 -10 0 -15l-17 -18q-6 -5 -14 3q-59 72 -147 72q-48 0 -87.5 -17t-64 -44.5t-38.5 -60t-18 -67.5h269q10 0 10 -10v-22q0 -10 -10 -10h-269
q4 -35 18 -67t38.5 -60t64.5 -44.5t89 -16.5q84 0 154 85q7 7 15 1z" />
    <glyph glyph-name="uni0456" unicode="&#x456;" horiz-adv-x="199" 
d="M100 737q-13 0 -21.5 8.5t-8.5 21.5q0 12 8.5 20.5t21.5 8.5q12 0 20.5 -8.5t8.5 -20.5q0 -13 -8.5 -21.5t-20.5 -8.5zM114 495h-28q-10 0 -10 -10v-468q0 -17 15 -17h25q8 0 8 10v475q0 10 -10 10z" />
    <glyph glyph-name="uni0457" unicode="&#x457;" horiz-adv-x="307" 
d="M12 732q-13 0 -22.5 9.5t-9.5 22.5t9.5 22.5t22.5 9.5q14 0 23 -9t9 -23t-9 -23t-23 -9zM295 732q-14 0 -23.5 9.5t-9.5 22.5t9.5 22.5t23.5 9.5t23 -9t9 -23t-9 -23t-23 -9zM168 495h-28q-10 0 -10 -10v-468q0 -17 15 -17h25q8 0 8 10v475q0 10 -10 10z" />
    <glyph glyph-name="uni0458" unicode="&#x458;" horiz-adv-x="192" 
d="M92 737q-12 0 -20.5 8.5t-8.5 21.5q0 12 8.5 20.5t20.5 8.5q13 0 21.5 -8.5t8.5 -20.5q0 -13 -8.5 -21.5t-21.5 -8.5zM106 495h-28q-10 0 -10 -11v-584q0 -44 -10.5 -61t-47.5 -32q-7 -3 -4 -12l15 -29q2 -7 11 -3q53 21 69 52t16 85l-1 584q0 11 -10 11z" />
    <glyph glyph-name="uni045C" unicode="&#x45c;" horiz-adv-x="501" 
d="M118 632l-11 18q-5 7 2 10l211 148q9 6 13 -1l14 -24q6 -7 -4 -12l-214 -143q-8 -5 -11 4zM462 15q5 -4 3 -9.5t-9 -5.5h-37q-3 0 -13 6l-310 234v-229q0 -11 -10 -11h-29q-10 0 -10 11v437q0 12 -2 36q0 11 8 11h26q17 0 17 -16v-225l280 235q6 6 14 6h39q6 0 7.5 -5
t-3.5 -9l-284 -234z" />
    <glyph glyph-name="uni045D" unicode="&#x45d;" horiz-adv-x="599" 
d="M183 771l214 -143q8 -5 11 4l11 18q5 7 -2 10l-211 148q-9 6 -13 -1l-14 -24q-6 -7 4 -12zM527 495q7 0 7 -7v-480q0 -8 -9 -8h-31q-8 0 -8 8v412l-382 -412q-7 -8 -13 -8h-17q-9 0 -9 8v479q0 8 7 8h34q7 0 7 -8v-411l379 412q7 7 12 7h23z" />
    <glyph glyph-name="uni045E" unicode="&#x45e;" horiz-adv-x="541" 
d="M94 785q6 -73 57 -120t128 -47q76 0 127 47t58 119q2 17 -7 17h-26q-4 0 -8 -15q-8 -62 -52.5 -95.5t-91.5 -33.5q-50 0 -93 33t-51 98q-4 13 -7 13h-27q-7 0 -7 -16zM509 495q11 0 6 -10l-211 -436q-104 -213 -238 -358q-7 -6 -15 2l-18 17q-7 7 2 18q59 68 120.5 158
t94.5 167l-216 433q-4 9 5 9h40q7 0 8 -6l190 -385l184 383q5 8 11 8h37z" />
    <glyph glyph-name="uni0490" unicode="&#x490;" horiz-adv-x="653" 
d="M593 867q9 0 8 -11q-2 -24 -2 -36l1 -56q0 -12 -12 -12h-483v-743q0 -9 -9 -9h-32q-9 0 -9 9v781q0 10 10 10h486v51q0 16 16 16h26z" />
    <glyph glyph-name="uni0491" unicode="&#x491;" horiz-adv-x="512" 
d="M447 562q9 0 9 -11q-2 -24 -2 -36v-55q0 -12 -12 -12h-343v-439q0 -9 -9 -9h-30q-9 0 -9 9v476q0 10 10 10h344v51q0 16 17 16h25z" />
    <glyph glyph-name="uni04C0" unicode="&#x4c0;" horiz-adv-x="210" 
d="M120 800h-30q-10 0 -10 -10v-781q0 -9 9 -9h32q9 0 9 9v781q0 10 -10 10z" />
    <glyph glyph-name="uni04E2" unicode="&#x4e2;" horiz-adv-x="830" 
d="M187 994q0 8 9 8h413q10 0 10 -8v-23q0 -9 -10 -9h-413q-9 0 -9 9v23zM83 800h34q7 0 7 -7v-706l586 704q7 9 14 9h23q8 0 8 -9v-782q0 -9 -9 -9h-31q-9 0 -9 9v703l-579 -693q-16 -19 -28 -19h-16q-8 0 -8 7v786q0 7 8 7z" />
    <glyph glyph-name="uni04E3" unicode="&#x4e3;" horiz-adv-x="599" 
d="M82 749q0 8 9 8h413q10 0 10 -8v-23q0 -9 -10 -9h-413q-9 0 -9 9v23zM527 495q7 0 7 -7v-480q0 -8 -9 -8h-31q-8 0 -8 8v412l-382 -412q-7 -8 -13 -8h-17q-9 0 -9 8v479q0 8 7 8h34q7 0 7 -8v-411l379 412q7 7 12 7h23z" />
    <glyph glyph-name="uni04EC" unicode="&#x4ec;" horiz-adv-x="797" 
d="M225 1002q-14 0 -23 9.5t-9 22.5t9 22.5t23 9.5t23 -9t9 -23t-9 -23t-23 -9zM507 1002q-13 0 -22.5 9.5t-9.5 22.5t9.5 22.5t22.5 9.5q14 0 23 -9t9 -23t-9 -23t-23 -9zM341 807q111 0 205.5 -54t149.5 -148t55 -205.5t-55 -205.5t-149.5 -147.5t-205.5 -53.5
q-166 0 -285 114q-14 14 -7 21l25 21q5 6 17 -6q106 -101 241 -101q85 0 154.5 29.5t114 78.5t70 107t29.5 119h-424q-10 0 -10 10v28q0 10 10 10h424q-5 60 -30.5 118t-69.5 107t-114 79t-154 30q-76 0 -140 -31t-104 -71q-9 -8 -16 -1l-25 20q-6 6 7 19q56 54 130 83.5
t157 29.5z" />
    <glyph glyph-name="uni04ED" unicode="&#x4ed;" horiz-adv-x="538" 
d="M128 774q-14 0 -23 9t-9 23t9 23t23 9t23 -9t9 -23t-9 -23t-23 -9zM410.5 774q-13.5 0 -23 9.5t-9.5 22.5t9.5 22.5t23 9.5t23 -9.5t9.5 -22.5t-9.5 -22.5t-23 -9.5zM241 502q105 0 178.5 -73.5t73.5 -181.5t-73.5 -181t-178.5 -73q-107 0 -192 99q-6 7 1 14l16 18
q8 6 15 -1q70 -85 154 -85q49 0 89 16.5t64.5 44.5t38.5 60t18 67h-269q-10 0 -10 10v22q0 10 10 10h269q-4 35 -18 67.5t-38.5 60t-64 44.5t-87.5 17q-88 0 -147 -72q-8 -8 -14 -3l-17 18q-7 5 0 15q31 38 79 62.5t103 24.5z" />
    <glyph glyph-name="uni04EE" unicode="&#x4ee;" horiz-adv-x="620" 
d="M94 994q0 8 9 8h413q10 0 10 -8v-23q0 -9 -10 -9h-413q-9 0 -9 9v23zM598 800q10 0 5 -10l-259 -495q-83 -157 -223 -304q-6 -7 -12 1l-19 21q-6 7 1 14q128 138 191 253l-266 511q-5 9 4 9h40q5 0 8 -6l242 -464l240 462q5 8 11 8h37z" />
    <glyph glyph-name="uni04EF" unicode="&#x4ef;" horiz-adv-x="541" 
d="M63 754q0 8 9 8h413q10 0 10 -8v-23q0 -9 -10 -9h-413q-9 0 -9 9v23zM509 495q11 0 6 -10l-211 -436q-104 -213 -238 -358q-7 -6 -15 2l-18 17q-7 7 2 18q59 68 120.5 158t94.5 167l-216 433q-4 9 5 9h40q7 0 8 -6l190 -385l184 383q5 8 11 8h37z" />
    <glyph glyph-name="uni1E3E" unicode="&#x1e3e;" horiz-adv-x="1070" 
d="M627 1033q10 5 4 12l-14 24q-4 7 -13 1l-211 -148q-7 -3 -2 -10l11 -18q3 -9 11 -4zM987 800q8 0 8 -11v-778q0 -11 -11 -11h-29q-11 0 -11 11v688l-395 -680q-6 -9 -13 -9h-3q-8 0 -12 9l-395 680v-688q0 -11 -11 -11h-28q-12 0 -12 11v779q0 10 8 10h31q8 0 12 -7
l409 -705l408 705q4 7 13 7h31z" />
    <glyph glyph-name="uni1E3F" unicode="&#x1e3f;" horiz-adv-x="985" 
d="M377 637l-11 18q-5 7 2 10l211 148q9 6 13 -1l14 -24q6 -7 -4 -12l-214 -143q-8 -5 -11 4zM935 13q0 -13 -8 -13h-25q-16 0 -16 18v289q0 66 -40.5 108t-116.5 42q-107 0 -209 -104q3 -18 3 -38v-226q0 -28 2 -76q0 -13 -8 -13h-25q-16 0 -16 18v289q0 65 -40.5 107.5
t-116.5 42.5q-60 0 -109.5 -26.5t-96.5 -73.5v-346q0 -11 -8 -11h-32q-8 0 -8 11v475q0 9 8 9h25q6 0 10.5 -5.5t4.5 -11.5v-68q99 92 208 92q62 0 113 -27t73 -80q21 21 40 36t48 33t63.5 28t71.5 10q85 0 144 -48t59 -139v-226q0 -28 2 -76z" />
    <glyph glyph-name="Wgrave" unicode="&#x1e80;" horiz-adv-x="1126" 
d="M448 1034q-10 5 -4 12l14 24q4 7 13 1l211 -148q7 -3 2 -10l-11 -18q-3 -9 -11 -4zM1094 802q4 0 6 -4.5t-1 -11.5l-371 -780q-4 -9 -11 -9h-10q-7 0 -12 9l-132 279l-132 -281q-6 -8 -12 -8h-10q-7 0 -11 8l-371 781q-3 7 -1 11t6 4h40q5 0 7 -3t6 -11l329 -708l122 264
l-209 444q-3 8 -1 12t6 4h40q6 0 11 -11l2 -4l178 -386l178 385l2.5 5l2 4t2 2.5t3 2t3.5 0.5h41q4 0 5.5 -4t-1.5 -11l-209 -443l122 -262l329 707q2 6 3.5 8.5t4 4.5t5.5 2h40z" />
    <glyph glyph-name="wgrave" unicode="&#x1e81;" horiz-adv-x="786" 
d="M278 776q-10 5 -4 12l14 24q4 7 13 1l211 -148q7 -3 2 -10l-11 -18q-3 -9 -11 -4zM756 495q7 0 4 -7l-174 -481q-4 -7 -12 -7h-8q-8 0 -11 7l-162 406l-162 -406q-3 -7 -10 -7h-9q-7 0 -10 7l-176 481q-3 7 5 7h39q5 0 8 -6l143 -414l153 410q4 6 10 6h19q5 0 9 -6
l154 -410l142 414q1 6 8 6h40z" />
    <glyph glyph-name="Wacute" unicode="&#x1e82;" horiz-adv-x="1126" 
d="M437 895l-11 18q-5 7 2 10l211 148q9 6 13 -1l14 -24q6 -7 -4 -12l-214 -143q-8 -5 -11 4zM1094 802q4 0 6 -4.5t-1 -11.5l-371 -780q-4 -9 -11 -9h-10q-7 0 -12 9l-132 279l-132 -281q-6 -8 -12 -8h-10q-7 0 -11 8l-371 781q-3 7 -1 11t6 4h40q5 0 7 -3t6 -11l329 -708
l122 264l-209 444q-3 7 -1 11.5t6 4.5h40q6 0 11 -11l2 -4l178 -386l178 385l2.5 5l2 4t2 2.5t3 2t3.5 0.5h41q4 0 5.5 -4t-1.5 -11l-209 -443l122 -262l329 707q2 6 3.5 8.5t4 4.5t5.5 2h40z" />
    <glyph glyph-name="wacute" unicode="&#x1e83;" horiz-adv-x="786" 
d="M267 637l-11 18q-5 7 2 10l211 148q9 6 13 -1l14 -24q6 -7 -4 -12l-214 -143q-8 -5 -11 4zM756 495q7 0 4 -7l-174 -481q-4 -7 -12 -7h-8q-8 0 -11 7l-162 406l-162 -406q-3 -7 -10 -7h-9q-7 0 -10 7l-176 481q-3 7 5 7h39q5 0 8 -6l143 -414l153 410q4 6 10 6h19
q5 0 9 -6l154 -410l142 414q1 6 8 6h40z" />
    <glyph glyph-name="Wdieresis" unicode="&#x1e84;" horiz-adv-x="1126" 
d="M423 990q-14 0 -23 9t-9 23t9 23t23 9t23 -9t9 -23t-9 -23t-23 -9zM705.5 990q-13.5 0 -23 9.5t-9.5 22.5t9.5 22.5t23 9.5t23 -9.5t9.5 -22.5t-9.5 -22.5t-23 -9.5zM1094 802q4 0 6 -4.5t-1 -11.5l-371 -780q-4 -9 -11 -9h-10q-7 0 -12 9l-132 279l-132 -281
q-6 -8 -12 -8h-10q-7 0 -11 8l-371 781q-3 7 -1 11t6 4h40q5 0 7 -3t6 -11l329 -708l122 264l-209 444q-3 8 -1 12t6 4h40q6 0 11 -11l2 -4l178 -386l178 385l2.5 5l2 4t2 2.5t3 2t3.5 0.5h41q4 0 5.5 -4t-1.5 -11l-209 -443l122 -262l329 707q2 6 3.5 8.5t4 4.5t5.5 2h40z
" />
    <glyph glyph-name="wdieresis" unicode="&#x1e85;" horiz-adv-x="786" 
d="M252 732q-14 0 -23 9t-9 23t9 23t23 9t23 -9t9 -23t-9 -23t-23 -9zM534.5 732q-13.5 0 -23 9.5t-9.5 22.5t9.5 22.5t23 9.5t23 -9t9.5 -23t-9.5 -23t-23 -9zM756 495q7 0 4 -7l-174 -481q-4 -7 -12 -7h-8q-8 0 -11 7l-162 406l-162 -406q-3 -7 -10 -7h-9q-7 0 -10 7
l-176 481q-3 7 5 7h39q5 0 8 -6l143 -414l153 410q4 6 10 6h19q5 0 9 -6l154 -410l142 414q1 6 8 6h40z" />
    <glyph glyph-name="Ygrave" unicode="&#x1ef2;" horiz-adv-x="740" 
d="M264 1033l214 -143q8 -5 11 4l11 18q5 7 -2 10l-211 148q-9 6 -13 -1l-14 -24q-6 -7 4 -12zM721 800q2 0 3.5 -2.5t-0.5 -4.5l-329 -458v-324q0 -11 -10 -11h-24q-16 0 -16 18v317l-329 458q-2 2 -0.5 4.5t3.5 2.5h44q4 0 8 -7l299 -410l298 410q5 7 9 7h44z" />
    <glyph glyph-name="ygrave" unicode="&#x1ef3;" horiz-adv-x="541" 
d="M164 776l214 -143q8 -5 11 4l11 18q5 7 -2 10l-211 148q-9 6 -13 -1l-14 -24q-6 -7 4 -12zM509 495q11 0 6 -10l-211 -436q-104 -213 -238 -358q-7 -6 -15 2l-18 17q-7 7 2 18q59 68 120.5 158t94.5 167l-216 433q-4 9 5 9h40q7 0 8 -6l190 -385l184 383q5 8 11 8h37z
" />
    <glyph glyph-name="endash" unicode="&#x2013;" horiz-adv-x="700" 
d="M620 305q0 -10 -10 -10h-520q-10 0 -10 10v17q0 10 10 10h520q10 0 10 -9v-18z" />
    <glyph glyph-name="emdash" unicode="&#x2014;" horiz-adv-x="932" 
d="M872 305q0 -10 -11 -10h-791q-10 0 -10 10v17q0 10 10 10h791q11 0 11 -9v-18z" />
    <glyph glyph-name="quoteleft" unicode="&#x2018;" horiz-adv-x="163" 
d="M78 663q41 0 41 -44q0 -23 -9 -32.5t-32 -9.5q-21 0 -28.5 7.5t-9.5 25.5q-2 6 -2 11q-4 42 8 98q11 54 43 97q6 9 12 6l6 -5q6 -2 2 -9q-31 -49 -33 -98q-2 -26 0 -48z" />
    <glyph glyph-name="quoteright" unicode="&#x2019;" horiz-adv-x="143" 
d="M105 776q2 -41 -8 -99q-11 -53 -44 -97q-6 -7 -11 -6l-7 6q-6 1 -2 8q31 46 33 99q1 17 1 47h-3q-40 0 -40 43q0 24 8.5 33.5t31.5 9.5q20 0 28.5 -7t10.5 -26q2 -6 2 -11z" />
    <glyph glyph-name="quotesinglbase" unicode="&#x201a;" horiz-adv-x="372" 
d="M144 35q2 -6 2 -11q4 -42 -8 -99q-12 -55 -43 -97q-6 -7 -12 -6l-6 6q-7 2 -3 8q30 46 34 99q1 25 0 47h-3q-40 0 -40 43q0 24 8.5 33.5t31.5 9.5q21 0 29 -7.5t10 -25.5zM311 24q4 -42 -8 -99q-12 -55 -43 -97q-6 -7 -12 -6l-6 6q-7 2 -3 8q32 48 34 99q1 25 0 47h-3
q-40 0 -40 43q0 24 8.5 33.5t31.5 9.5q21 0 29 -7t10 -26q2 -6 2 -11z" />
    <glyph glyph-name="quotedblleft" unicode="&#x201c;" horiz-adv-x="331" 
d="M83 660q40 0 40 -43q0 -24 -8.5 -33.5t-31.5 -9.5q-21 0 -29 7.5t-10 25.5q-2 6 -2 11q-4 42 8 98q11 54 43 97q6 9 12 6l6 -5q7 -2 3 -9q-32 -48 -34 -98q-2 -26 0 -47h3zM248 660q40 0 40 -43q0 -24 -8.5 -33.5t-31.5 -9.5q-21 0 -29 7.5t-10 25.5q-2 6 -2 11
q-2 41 8 98q11 52 44 97q6 9 11 6l6 -5q7 -2 3 -9q-31 -46 -33 -98q-3 -23 -1 -47h3z" />
    <glyph glyph-name="quotedblright" unicode="&#x201d;" horiz-adv-x="331" 
d="M125 787q2 -6 2 -11q2 -41 -8 -99q-11 -53 -44 -97q-6 -7 -11 -6l-7 6q-6 1 -2 8q31 46 33 99q1 17 1 47h-3q-40 0 -40 43q0 24 8.5 33.5t31.5 9.5q21 0 29 -7.5t10 -25.5zM292 776q2 -41 -8 -99q-11 -51 -43 -97q-7 -7 -12 -6l-6 6q-7 2 -3 8q30 46 34 99q1 25 0 47h-3
q-40 0 -40 43q0 24 8.5 33.5t31.5 9.5q21 0 29 -7.5t10 -25.5q2 -6 2 -11z" />
    <glyph glyph-name="quotedblbase" unicode="&#x201e;" horiz-adv-x="377" 
d="M144 35q2 -6 2 -11q4 -42 -8 -99q-12 -55 -43 -97q-6 -7 -12 -6l-6 6q-7 2 -3 8q30 46 34 99q1 25 0 47h-3q-40 0 -40 43q0 24 8.5 33.5t31.5 9.5q21 0 29 -7.5t10 -25.5zM311 24q4 -42 -8 -99q-12 -55 -43 -97q-6 -7 -12 -6l-6 6q-7 2 -3 8q32 48 34 99q1 25 0 47h-3
q-40 0 -40 43q0 24 8.5 33.5t31.5 9.5q21 0 29 -7t10 -26q2 -6 2 -11z" />
    <glyph glyph-name="dagger" unicode="&#x2020;" horiz-adv-x="514" 
d="M464 482q6 0 8 -2t2 -8v-28q0 -6 -2 -8t-8 -2h-184l-1 -627q0 -7 -7 -7h-32q-7 0 -7 7v627h-182q-11 0 -11 10v28q0 10 11 10h182v311q0 7 7 7h34q7 0 7 -7l-1 -311h184z" />
    <glyph glyph-name="daggerdbl" unicode="&#x2021;" horiz-adv-x="514" 
d="M464 435h-184v-148h184q6 0 8 -2t2 -8v-28q0 -6 -2 -8t-8 -2h-184l-1 -432q0 -7 -7 -7h-32q-7 0 -7 7v432h-182q-11 0 -11 10v28q0 10 11 10h182v148h-182q-11 0 -11 10v28q0 10 11 10h182v310q0 7 7 7h34q7 0 7 -7l-1 -310h184q6 0 8 -2t2 -8v-28q0 -6 -2 -8t-8 -2z" />
    <glyph glyph-name="bullet" unicode="&#x2022;" horiz-adv-x="227" 
d="M115 185q-26 0 -45.5 19.5t-19.5 46.5q0 25 20 44.5t45 19.5t43.5 -19.5t18.5 -44.5q0 -27 -18.5 -46.5t-43.5 -19.5z" />
    <glyph glyph-name="ellipsis" unicode="&#x2026;" horiz-adv-x="661" 
d="M81 -1q-13 0 -22 9t-9 22t9 22t22 9t22.5 -9t9.5 -22t-9.5 -22t-22.5 -9zM331 -1q-13 0 -22 9t-9 22t9 22t22 9t22 -9t9 -22q0 -14 -8.5 -22.5t-22.5 -8.5zM580 -1q-13 0 -22.5 9t-9.5 22t9.5 22t22.5 9t22 -9t9 -22t-9 -22t-22 -9z" />
    <glyph glyph-name="perthousand" unicode="&#x2030;" horiz-adv-x="701" 
d="M455 764q5 11 15 11h22q14 0 8 -12l-432 -748q-6 -11 -15 -11h-22q-14 0 -7 13zM55 727q-4 0 -7 3t-3 7q0 3 3 5.5t7 2.5q9 0 9 -8q0 -10 -9 -10zM475 35q-10 0 -10 9q0 4 3 6.5t7 2.5q9 0 9 -9t-9 -9zM647 35q-10 0 -10 9q0 4 3 6.5t7 2.5q9 0 9 -9t-9 -9z" />
    <glyph glyph-name="guilsinglleft" unicode="&#x2039;" horiz-adv-x="314" 
d="M55 215l158 -201q3 -5 7 -5h36q12 0 5 10l-160 212l161 204q4 11 -5 11h-32q-7 0 -10 -5l-160 -197q-5 -4 -5 -13.5t5 -15.5z" />
    <glyph glyph-name="guilsinglright" unicode="&#x203a;" horiz-adv-x="313" 
d="M259 215q5 6 5 15t-5 14l-160 197q-5 5 -10 5h-32q-9 0 -5 -11l160 -204l-159 -212q-7 -10 5 -10h36q4 0 7 5z" />
    <glyph glyph-name="fraction" unicode="&#x2044;" horiz-adv-x="217" 
d="M302 789q6 11 13 11h15q13 0 9 -12l-425 -777q-3 -5 -3.5 -6.5t-3 -3t-6.5 -1.5h-14q-15 0 -9 13z" />
    <glyph glyph-name="Euro" unicode="&#x20ac;" horiz-adv-x="804" 
d="M741 144l19 -20q8 -7 -6 -21q-119 -111 -281 -111q-142 0 -253 87t-146 221h-56q-8 0 -8 8v28q0 10 8 10h47q-4 24 -4 57q0 34 4 59h-47q-8 0 -8 9v28q0 9 8 9h56q36 134 146.5 220.5t252.5 86.5q80 0 152.5 -29.5t129.5 -82.5q12 -12 6 -19l-18 -20q-6 -8 -16 1
q-40 40 -104.5 71t-138.5 31q-70 0 -131 -21.5t-104.5 -58.5t-74 -82.5t-46.5 -96.5h344q8 0 8 -9v-28q0 -9 -8 -9h-355q-6 -30 -6 -59t6 -57h355q8 0 8 -9v-29q0 -8 -8 -8h-344q16 -52 46 -97.5t73.5 -82.5t105 -59t131.5 -22q133 0 239 99q11 13 18 6z" />
    <glyph glyph-name="trademark" unicode="&#x2122;" horiz-adv-x="672" 
d="M252 800q8 0 8 -9v-14q0 -9 -8 -9h-91v-259q0 -9 -8 -9h-14q-9 0 -9 9v259h-91q-9 0 -9 9v14q0 9 9 9h213zM635 800q7 0 7 -8v-283q0 -9 -10 -9h-12q-10 0 -10 9v228l-127 -226q-5 -8 -11 -8h-2q-6 0 -11 8l-121 225v-227q0 -9 -9 -9h-12q-11 0 -11 9v283q0 8 7 8h19
q6 0 9 -6l130 -241l134 241q3 6 11 6h19z" />
    <glyph glyph-name="oneeighth" unicode="&#x215b;" horiz-adv-x="745" 
d="M581 800q15 0 9 -12l-425 -777q-5 -11 -12 -11h-15q-14 0 -9 13l424 776q5 11 14 11h14zM136 456v238l-76 -23q-6 -1 -7 3l-3 18q0 5 4 6q34 14 56 41.5t29 54.5v2q2 3 7 3h20q7 0 7 -6v-337q0 -8 -8 -8h-20q-9 0 -9 8zM615 180q26 -3 53 -28.5t27 -62.5
q0 -43 -31.5 -69.5t-85.5 -26.5q-56 0 -87 26.5t-31 69.5q0 37 26.5 63t52.5 28h-3q-26 8 -47.5 30.5t-21.5 55.5q0 44 31 70t80 26t79.5 -26t30.5 -70q0 -63 -67 -86h-6zM500 265q0 -30 22.5 -49t55.5 -19q32 0 54 19.5t22 48.5q0 66 -76 66q-37 0 -57.5 -16.5t-20.5 -49.5
zM579 23q83 0 83 67q0 30 -22.5 50.5t-60.5 20.5q-40 0 -63 -20.5t-23 -50.5q0 -36 22 -51.5t64 -15.5z" />
    <glyph glyph-name="threeeighths" unicode="&#x215c;" horiz-adv-x="736" 
d="M250 481q-24 -29 -62 -39t-78.5 5t-67.5 54q-3 4 0 6l18 16q2 4 5 0q29 -44 76.5 -51.5t80.5 28.5q14 15 15 41.5t-12 48.5t-40.5 32.5t-69.5 -5.5q-1 0 -3 2l-15 16q-4 4 0 5l126 126h-168q-5 0 -5 4v24q0 6 5 6h207q4 0 4 -6v-27q0 -2 -1 -4l-111 -108q35 4 63 -13.5
t41.5 -45t12 -59.5t-20.5 -56zM582 800q15 0 9 -12l-425 -777q-1 -1 -2 -3q-3 -8 -10 -8h-15q-14 0 -9 13l424 776q6 11 14 11h14zM616 180q26 -3 53 -28.5t27 -62.5q0 -43 -31.5 -69.5t-85.5 -26.5q-56 0 -87 26.5t-31 69.5q0 37 26.5 63t53.5 28h-4q-26 8 -47.5 30.5
t-21.5 55.5q0 44 31 70t80 26t79.5 -26t30.5 -70q0 -63 -67 -86h-6zM501 265q0 -30 22.5 -49t55.5 -19q32 0 54 19.5t22 48.5q0 66 -76 66q-37 0 -57.5 -16.5t-20.5 -49.5zM580 23q83 0 83 67q0 30 -22.5 50.5t-60.5 20.5q-40 0 -63 -20.5t-23 -50.5q0 -67 86 -67z" />
    <glyph glyph-name="fiveeighths" unicode="&#x215d;" horiz-adv-x="746" 
d="M251 478q-45 -48 -110 -41t-99 62q-2 4 -1 5l18 17q4 2 5 1q29 -46 77.5 -53t80.5 28q33 36 11 80q-21 40 -65 44q-39 3 -75 -31h-1l-29 3q-4 0 -4 7v169v1v26q0 4 4 4h188q5 0 5 -4v-25q0 -4 -5 -4h-159v-140q32 21 62.5 24.5t53 -6.5t39.5 -30t23.5 -43.5t2 -49
t-21.5 -44.5zM593 800q15 0 9 -12l-425 -777q-5 -11 -13 -11h-14q-15 0 -9 13l424 776q5 11 14 11h14zM627 180q26 -3 52.5 -28.5t26.5 -62.5q0 -43 -31 -69.5t-85 -26.5q-56 0 -87 26.5t-31 69.5q0 37 26.5 63t52.5 28h-4q-26 8 -47 30.5t-21 55.5q0 44 31 70t80 26t79 -26
t30 -70q0 -62 -66 -86h-6zM511 265q0 -30 23 -49t56 -19q32 0 54 19.5t22 48.5q0 66 -76 66q-79 0 -79 -66zM590 23q84 0 84 67q0 30 -22.5 50.5t-61.5 20.5q-40 0 -62.5 -20.5t-22.5 -50.5q0 -67 85 -67z" />
    <glyph glyph-name="seveneighths" unicode="&#x215e;" horiz-adv-x="717" 
d="M272 785q0 -1 -0.5 -2.5l-0.5 -1.5l-185 -329q-2 -3 -4 -3h-30q-2 0 -3 1.5t1 3.5l174 312h-180q-4 0 -4 4v26q0 4 3 4h226q3 0 3 -4v-8v-3zM564 800q14 0 8 -12l-424 -777q-1 -1 -2 -4q-4 -7 -11 -7h-15q-15 0 -8 13l423 776q7 11 14 11h15zM597 180q26 -3 53 -28.5
t27 -62.5q0 -43 -31 -69.5t-86 -26.5t-86.5 26.5t-31.5 69.5q0 37 26.5 63t53.5 28h-4q-26 8 -47.5 30.5t-21.5 55.5q0 43 31.5 69.5t79.5 26.5q49 0 79.5 -26t30.5 -70q0 -63 -67 -86h-6zM482 265q0 -30 22.5 -49t56.5 -19q32 0 54 19.5t22 48.5q0 66 -76 66q-79 0 -79 -66
zM561 23q83 0 83 67q0 30 -22.5 50.5t-60.5 20.5q-40 0 -63 -20.5t-23 -50.5q0 -67 86 -67z" />
    <glyph glyph-name="partialdiff" unicode="&#x2202;" horiz-adv-x="599" 
d="M460 645q59 -71 79.5 -150t19.5 -172q0 -95 -24 -157q-23 -80 -89 -131t-151 -51q-106 0 -180.5 74.5t-74.5 178.5q0 103 71.5 174t175.5 71q69 0 129 -36t95 -93q0 82 -27.5 154.5t-71.5 121.5t-101.5 77t-117.5 28q-5 0 -7 1.5t-1 5.5l2 32q1 7 9 7q86 -1 155.5 -43.5
t108.5 -91.5zM500 234q1 80 -64 141.5t-149 61.5q-81 0 -140.5 -60t-59.5 -143q0 -82 64.5 -143t145.5 -61q82 0 142 61.5t61 142.5z" />
    <glyph glyph-name="emptyset" unicode="&#x2205;" horiz-adv-x="933" 
d="M890 801q6 -6 -1 -14l-110 -111q103 -116 103 -273q0 -112 -55 -207t-150 -150t-207 -55q-156 0 -273 103l-117 -117q-8 -6 -14 0l-21 22q-8 8 0 13l117 117q-104 117 -104 274q0 112 55 207t150 150t207 55q157 0 274 -104l110 111q7 7 14 0zM107 404q0 -136 90 -239
l512 511q-103 90 -238 90q-98 0 -182 -48.5t-133 -132t-49 -181.5zM833 404q0 134 -89 238l-511 -512q103 -90 238 -90q98 0 181.5 49t132 133t48.5 182z" />
    <glyph glyph-name="product" unicode="&#x220f;" horiz-adv-x="768" 
d="M712 793l1 -786q0 -7 -7 -7h-35q-7 0 -7 7l1 745h-562l1 -745q0 -7 -6 -7h-35q-7 0 -7 7v786q0 7 6 7h644q6 0 6 -7z" />
    <glyph glyph-name="summation" unicode="&#x2211;" horiz-adv-x="676" 
d="M636 761q0 -10 -10 -10h-513l409 -339q1 -1 4 -3t3.5 -3l1.5 -3t1 -4v-2q0 -6 -10 -13l-409 -336h513q10 0 10 -11v-26q0 -12 -10 -12l-576 1q-10 0 -10 9v33q0 7 7 11l417 345l-417 345q-7 6 -7 13v34q0 9 10 9h576q10 0 10 -10v-28z" />
    <glyph glyph-name="minus" unicode="&#x2212;" horiz-adv-x="552" 
d="M512 368q0 -9 -10 -9h-451q-11 0 -11 9v26q0 10 11 10h451q10 0 10 -10v-26z" />
    <glyph glyph-name="radical" unicode="&#x221a;" horiz-adv-x="713" 
d="M286 -13q-6 0 -11 7l-249 499q-2 2 -0.5 4.5t4.5 2.5h39q5 0 8 -6l212 -430l348 730q5 6 10 6h35q3 0 4.5 -2.5t0.5 -5.5l-384 -798q-3 -7 -10 -7h-7z" />
    <glyph glyph-name="infinity" unicode="&#x221e;" horiz-adv-x="858" 
d="M425 386q2 -56 57.5 -106.5t136.5 -50.5q94 0 151.5 58.5t57.5 173.5q0 114 -57 171.5t-152 57.5q-78 0 -134 -51t-60 -103l-2 11q-8 26 -22 49.5t-36 45.5t-55 35t-73 13q-93 0 -150 -63.5t-57 -166.5t57 -166.5t150 -63.5q38 0 71 14t55 36t37 46.5t23 49.5zM784 461
q0 -85 -42.5 -136t-121.5 -51q-67 0 -118 49t-51 139q0 88 51 135.5t118 47.5q79 0 121.5 -50t42.5 -134zM239 645q67 0 114 -52t47 -131t-46.5 -132.5t-114.5 -53.5q-72 0 -118.5 51.5t-46.5 132.5q0 83 46 134t119 51z" />
    <glyph glyph-name="integral" unicode="&#x222b;" horiz-adv-x="702" 
d="M656 784q8 -5 4 -13l-12 -22q-5 -8 -12 -4q-45 30 -95 30q-20 0 -40 -3t-43.5 -13.5t-41 -26.5t-30 -45.5t-12.5 -67.5l1 -795v-2v-8q-3 -93 -60 -141.5t-147 -48.5q-66 0 -122 35q-9 6 -5 13l12 23q5 8 13 4q42 -30 94 -30q20 0 39 3t42.5 12.5t41 24.5t30 42.5
t14.5 62.5h-1v806q1 98 58 149t150 51q65 0 122 -36z" />
    <glyph glyph-name="approxequal" unicode="&#x2248;" horiz-adv-x="603" 
d="M76 416l19 -19q4 -6 10 1q13 15 22 24.5t32 22t47 12.5q14 0 27 -3.5t24 -10.5t17.5 -12t16 -14.5l11.5 -11.5q1 -1 13 -11.5t18 -14l19.5 -11t28 -10.5t32.5 -3q21 0 42.5 7.5t36 18t26.5 21t18 18.5l6 7q4 4 -1 7l-17 18q-5 5 -9 0l-3.5 -4.5t-8 -9l-11.5 -11
t-15.5 -12t-18 -10.5t-21 -8t-23.5 -3q-13 0 -25 3t-19.5 6.5t-17.5 10.5t-14 10.5t-13 12.5l-10 10q-16 15 -28 24t-34 17.5t-46 8.5q-22 0 -43.5 -7.5t-36.5 -18.5t-27.5 -22t-18.5 -18l-6 -8q-4 -4 1 -7zM74 227l19 -19q5 -5 10 1q10 12 15.5 18t19.5 18t30.5 18t35.5 6
q14 0 27 -3.5t24 -10.5t17.5 -12.5t16 -14.5l11.5 -11q1 -1 9 -8l11.5 -10t12.5 -9t16 -9l17 -7t21 -5.5t24 -1.5q21 0 42.5 7t36 17.5t26.5 21t18 18.5l6 7q3 5 -1 8l-17 18q-5 5 -9 0q-47 -59 -101 -58q-13 0 -24.5 3t-20 6.5t-18 10.5t-13.5 10.5t-12.5 12l-10.5 10.5
q-17 15 -28.5 23.5t-33.5 17.5t-46 9q-22 0 -43.5 -7.5t-36.5 -18.5t-27.5 -22t-18.5 -18l-6 -8q-3 -3 1 -8z" />
    <glyph glyph-name="notequal" unicode="&#x2260;" horiz-adv-x="600" 
d="M527 480h-174l-63 -223h237q10 0 10 -10v-25q0 -10 -10 -10h-250l-58 -204q-3 -11 -11 -10l-28 2q-11 4 -7 12l56 200h-155q-11 0 -11 9v26q0 10 11 10h168l62 223h-230q-11 0 -11 10v25q0 10 11 10h243l63 222q3 10 11 8l28 -1q10 -3 8 -11l-61 -218h161q10 0 10 -10
v-25q0 -10 -10 -10z" />
    <glyph glyph-name="lessequal" unicode="&#x2264;" horiz-adv-x="506" 
d="M40 455q0 -4 7 -8l389 -236q4 -3 7 -1.5t3 6.5v31q0 5 -6 9l-338 205l340 209q4 1 4 6v32q0 5 -2.5 6.5t-6.5 -1.5l-390 -237q-7 -4 -7 -9v-12zM56 10v25q0 10 10 10h370q10 0 10 -10v-25q0 -10 -10 -10h-370q-10 0 -10 10z" />
    <glyph glyph-name="greaterequal" unicode="&#x2265;" horiz-adv-x="506" 
d="M466 455v12q0 4 -7 9l-390 237q-4 3 -6.5 1.5t-2.5 -6.5v-32q0 -5 4 -6l340 -209l-338 -205q-6 -4 -6 -9v-31q0 -5 2.5 -6.5t7.5 1.5l389 236q7 5 7 8zM450 10q0 -10 -10 -10h-370q-10 0 -10 10v25q0 10 10 10h370q10 0 10 -10v-25z" />
    <glyph glyph-name="lozenge" unicode="&#x25ca;" horiz-adv-x="869" 
d="M427 794q8 8 16 0l393 -394q8 -8 0 -16l-393 -394q-8 -8 -16 0l-394 394q-8 8 0 16zM435 733l-341 -341l341 -341l341 341z" />
    <glyph glyph-name="i.loclTRK" horiz-adv-x="198" 
d="M100 734q-13 0 -22 9t-9 22t9 22t22 9t22 -9t9 -22t-9 -22t-22 -9zM113 495h-28q-10 0 -10 -10v-468q0 -17 15 -17h25q8 0 8 10v475q0 10 -10 10z" />
    <glyph glyph-name="zero.osf" horiz-adv-x="609" 
d="M304 -13q-109 0 -186 77t-77 186t77 186t186 77t186 -77t77 -186t-77 -186t-186 -77zM305 35q89 0 152 63.5t63 153.5q0 88 -63 150.5t-152 62.5q-90 0 -153 -62.5t-63 -150.5q0 -90 63 -153.5t153 -63.5z" />
    <glyph glyph-name="one.osf" horiz-adv-x="248" 
d="M171 498q9 0 9 -9v-480q0 -9 -10 -9h-29q-10 0 -10 9v367l-84 -23q-8 -2 -9 5l-3 23q0 6 5 8q37 15 61 44t34 58v3q2 4 8 4h28z" />
    <glyph glyph-name="two.osf" horiz-adv-x="593" 
d="M538 46q10 0 10 -9v-27q0 -10 -10 -10h-469q-9 0 -9 8v15q0 7 9 12l279 133q3 2 10 5q26 12 38.5 18.5t31.5 19.5t28 26t16.5 32.5t7.5 43.5q0 27 -9 51.5t-28.5 47.5t-56.5 36.5t-88 13.5q-96 0 -149 -49.5t-55 -117.5q-2 -11 -12 -11h-27q-10 0 -10 11q2 40 17.5 76.5
t45 68t81 50t117.5 18.5q103 0 163.5 -58t60.5 -135q0 -43 -20.5 -79.5t-60.5 -57.5l-272 -132h361z" />
    <glyph glyph-name="three.osf" horiz-adv-x="593" 
d="M76 495h446q10 0 10 -10v-37q0 -6 -6 -14l-267 -275q43 13 99 5q83 -7 136.5 -71t53.5 -146q0 -102 -70 -167t-177 -65q-75 0 -140.5 35t-112.5 104q-5 9 0 13l23 21q7 5 12 -1q36 -56 96 -89.5t124 -33.5q51 0 90.5 17.5t60.5 45.5t31.5 58.5t10.5 62.5q0 71 -46.5 125
t-125.5 54q-50 0 -112 -25q-8 -3 -14 3l-17 22q-6 7 0 14l296 306h-401q-10 0 -10 9v29q0 10 10 10z" />
    <glyph glyph-name="four.osf" horiz-adv-x="600" 
d="M535 4q10 0 10 -11v-26q0 -11 -9 -11h-107v-231q0 -10 -10 -10h-27q-11 0 -11 10v231h-326q-10 0 -10 10v28q0 5 4 7v1q66 46 118.5 111.5t79.5 139.5q20 57 32 122.5t12 112.5q0 7 7 7h37q6 0 6 -7q0 -78 -20 -162t-51 -147q-47 -94 -142 -175h253v69q0 7 7 10l33 8
q4 1 6 -1.5t2 -6.5v-79h106z" />
    <glyph glyph-name="five.osf" horiz-adv-x="580" 
d="M126 121q83 72 185 72q94 0 159 -73t65 -171q0 -96 -69.5 -163.5t-167.5 -67.5q-76 0 -142 35.5t-108 99.5q-6 7 -1 13l24 23q5 5 11 -1q35 -57 93 -89t124 -32q59 0 102.5 29t62.5 70t19 86q0 80 -53 136t-126 56q-51 0 -93.5 -19t-84.5 -60l-40 8q-11 2 -11 12v403
q0 10 10 10q93 -4 203 -4q109 0 197 4q11 0 11 -10v-27q0 -11 -11 -11q-110 -5 -189 -5q-82 0 -170 5v-329z" />
    <glyph glyph-name="six.osf" horiz-adv-x="610" 
d="M318 482q104 0 175.5 -71t71.5 -174q0 -104 -73.5 -175.5t-182.5 -71.5q-86 0 -147 46.5t-89 122t-28 172.5q0 67 15 131.5t45.5 121.5t73.5 100.5t102.5 69t127.5 26.5q10 0 10 -7v-32q0 -6 -8 -6q-67 0 -123 -27t-91.5 -69.5t-59.5 -96.5t-34 -107t-8 -101
q27 64 87 106t136 42zM308 34q83 0 146 59t63 142q0 85 -57.5 143.5t-142.5 58.5q-82 0 -147 -58.5t-65 -132.5q0 -86 58.5 -149t144.5 -63z" />
    <glyph glyph-name="seven.osf" horiz-adv-x="588" 
d="M544 466q0 -3 -4 -13l-402 -720q-3 -6 -11 -6h-39q-4 0 -5 4t1 6l400 710h-440q-9 0 -9 9v31q0 8 9 8h492q8 0 8 -8v-21z" />
    <glyph glyph-name="eight.osf" horiz-adv-x="594" 
d="M222 395q-26 -1 -56 -15t-57.5 -38t-45.5 -61t-18 -79q0 -92 67.5 -152t184.5 -60t184.5 60t67.5 152q0 42 -18 79t-45.5 60.5t-57 37.5t-56.5 16l11 2q25 7 50 21.5t48 36t37 53t14 67.5q0 90 -66.5 147.5t-168.5 57.5t-168.5 -57.5t-66.5 -147.5q0 -36 14 -68t37 -53.5
t48 -36t51 -21.5zM485 575q0 -61 -55.5 -108.5t-133 -47.5t-132.5 47t-55 109q0 69 53 115t135 46t135 -46t53 -115zM297 34q-87 0 -145.5 45t-58.5 124q0 66 56 117t148 51t148 -51t56 -117q0 -79 -58.5 -124t-145.5 -45z" />
    <glyph glyph-name="nine.osf" horiz-adv-x="615" 
d="M292 8q-104 0 -175.5 71t-71.5 174t73.5 175t182.5 72q86 0 147 -46.5t89 -122t28 -172.5q0 -67 -15 -131.5t-45.5 -121.5t-73.5 -100.5t-102.5 -69t-127.5 -26.5q-10 0 -10 7v32q0 6 8 6q67 0 123 27t91.5 69.5t59.5 97t34 107t8 100.5q-27 -64 -87 -106t-136 -42z
M302 456q-83 0 -146 -59t-63 -142q0 -85 57.5 -143.5t142.5 -58.5q82 0 147 58.5t65 132.5q0 86 -58.5 149t-144.5 63z" />
    <glyph glyph-name="zero.dnom" horiz-adv-x="354" 
d="M177 -6q-70 0 -103.5 49.5t-33.5 129.5t33.5 130.5t103.5 50.5q69 0 103 -50.5t34 -130.5t-34 -129.5t-103 -49.5zM177 28q53 0 78.5 41t25.5 104q0 64 -25 104.5t-79 40.5t-79 -40.5t-25 -104.5q0 -63 25.5 -104t78.5 -41z" />
    <glyph glyph-name="one.dnom" horiz-adv-x="223" 
d="M166 351q7 0 7 -6v-338q0 -7 -8 -7h-20q-9 0 -9 7v238l-76 -22q-6 -1 -7 3l-3 18q0 4 4 6q34 14 56 41.5t29 54.5v2q1 3 7 3h20z" />
    <glyph glyph-name="two.dnom" horiz-adv-x="309" 
d="M263 35q4 0 4 -3v-27q0 -5 -4 -5h-216q-4 0 -4 5v14l9 9h-1l140 148q2 2 8 8.5t7.5 8.5t6.5 8t6.5 8.5l5 8t4.5 9t3 8.5t2.5 10t0.5 11q0 30 -24.5 51.5t-59.5 21.5q-50 0 -86 -49q-2 -3 -5 0l-18 15q-2 4 -1 6q34 50 87.5 60t95.5 -22q39 -30 42.5 -75.5t-34.5 -86.5
l-132 -142h163z" />
    <glyph glyph-name="three.dnom" horiz-adv-x="311" 
d="M153 210q35 4 63.5 -13.5t42 -45t12 -59.5t-20.5 -56q-25 -29 -63 -39t-78.5 5t-66.5 54q-4 4 0 6l17 16q3 3 5 0q29 -44 76.5 -51.5t81.5 28.5q14 15 15 41.5t-12.5 48.5t-40.5 32.5t-69 -5.5q-2 -1 -3 2l-16 16q-2 4 0 5l126 126h-168q-4 0 -4 4v24q0 6 4 6h207
q5 0 5 -6v-27q0 -2 -1 -4z" />
    <glyph glyph-name="four.dnom" horiz-adv-x="310" 
d="M266 135q4 0 4 -5v-23q0 -6 -4 -6h-49v-97q0 -4 -5 -4h-24q-5 0 -5 4v97h-139q-4 0 -4 6v23q0 2 2 4q66 45 91 115q18 56 18 106q0 4 5 4h26q4 0 4 -4q-2 -72 -35 -145q-20 -40 -63 -75h95v30q0 4 3 4l27 5q4 0 4 -4v-35h49z" />
    <glyph glyph-name="five.dnom" horiz-adv-x="314" 
d="M92 186q32 21 62.5 24.5t53 -6.5t39.5 -30t23.5 -43.5t2 -49t-21.5 -44.5q-45 -48 -110 -41t-99 62q-2 4 -1 5l18 17q4 2 5 1q29 -46 77.5 -53t80.5 28q33 36 11 80q-21 40 -65 44q-39 3 -75 -31h-1l-29 3q-4 0 -4 7v169v1v26q0 4 4 4h188q5 0 5 -4v-25q0 -4 -5 -4h-159
v-140z" />
    <glyph glyph-name="six.dnom" horiz-adv-x="304" 
d="M158 224q48 0 82 -33.5t34 -80.5q0 -49 -35 -83t-85 -34q-38 0 -68 21.5t-42 55.5q-14 32 -14 80q-2 90 47 150q18 22 50.5 42t72.5 20q4 0 4 -3l1 -26q0 -4 -4 -4q-52 0 -91 -42t-44 -105q35 42 92 42zM154 25q37 0 62 23.5t25 60.5q0 38 -23.5 61t-59.5 23
q-38 0 -63.5 -24t-24.5 -60q0 -37 24 -60.5t60 -23.5z" />
    <glyph glyph-name="seven.dnom" horiz-adv-x="312" 
d="M272 347v-8v-3q0 -1 -0.5 -2.5l-0.5 -1.5l-185 -329q-2 -3 -4 -3h-30q-2 0 -3 2t1 3l174 312h-180q-4 0 -4 4v26q0 4 3 4h226q3 0 3 -4z" />
    <glyph glyph-name="eight.dnom" horiz-adv-x="294" 
d="M109 180q-26 -2 -52.5 -28t-26.5 -63q0 -43 31 -69.5t87 -26.5q54 0 85 26.5t31 69.5q0 37 -26.5 62.5t-52.5 28.5h6q66 24 66 86q0 44 -30 70t-79 26t-80 -26t-31 -70q0 -33 21 -55.5t47 -30.5h4zM224 265q0 -29 -22 -48.5t-54 -19.5q-33 0 -56 19t-23 49q0 66 79 66
q76 0 76 -66zM148 23q-85 0 -85 67q0 30 22.5 50.5t62.5 20.5q39 0 61.5 -20.5t22.5 -50.5q0 -67 -84 -67z" />
    <glyph glyph-name="nine.dnom" horiz-adv-x="301" 
d="M271 204q2 -90 -45 -148q-18 -23 -50.5 -42.5t-72.5 -20.5q-4 0 -5 4l-1 26q0 3 4 3q51 0 89 40t46 101q-34 -36 -91 -36q-47 0 -81 33t-34 80q0 48 35 82.5t84 34.5q39 0 69 -22.5t41 -58.5q12 -29 12 -76zM145 162q38 0 63 23.5t25 60.5q-1 37 -23 60t-60 23
q-36 0 -61.5 -23.5t-25.5 -60.5t23.5 -60t58.5 -23z" />
    <glyph glyph-name="zero.numr" horiz-adv-x="354" 
d="M177 441q-70 0 -103.5 50t-33.5 129q0 80 33.5 130.5t103.5 50.5q69 0 103 -50.5t34 -130.5q0 -79 -34 -129t-103 -50zM177 476q53 0 78.5 40.5t25.5 103.5q0 64 -25 105t-79 41t-79 -41t-25 -105q0 -63 25.5 -103.5t78.5 -40.5z" />
    <glyph glyph-name="one.numr" horiz-adv-x="223" 
d="M166 800q7 0 7 -6v-338q0 -7 -8 -7h-20q-9 0 -9 7v238l-76 -22q-6 -1 -7 3l-3 18q0 4 4 6q34 14 56 41.5t29 54.5v2q2 3 7 3h20z" />
    <glyph glyph-name="two.numr" horiz-adv-x="309" 
d="M263 482q4 0 4 -3v-28q0 -4 -4 -4h-215q-4 0 -4 4v15l8 9h-1l140 147q2 3 8.5 10t8.5 9.5l7 9t7 10t5 9.5t4.5 10.5t2.5 10.5t1 12q0 30 -25 51.5t-59 21.5q-49 0 -86 -50q-2 -3 -5 0l-18 16q-2 4 -1 5q34 50 88 60.5t95 -21.5q39 -30 42.5 -76t-33.5 -87l-133 -141h163z
" />
    <glyph glyph-name="three.numr" horiz-adv-x="312" 
d="M154 655q35 4 63 -13.5t41.5 -45t12 -59.5t-20.5 -56q-24 -29 -62 -39t-78.5 5t-67.5 54q-3 4 0 6l18 16q2 4 5 0q29 -44 76.5 -51.5t80.5 28.5q14 15 15 41.5t-12 48.5t-40.5 32.5t-69.5 -5.5q-1 0 -3 2l-15 16q-4 4 0 5l126 126h-168q-5 0 -5 4v24q0 6 5 6h207
q4 0 4 -6v-27q0 -2 -1 -4z" />
    <glyph glyph-name="four.numr" horiz-adv-x="310" 
d="M266 576q4 0 4 -5v-23q0 -6 -4 -6h-49v-97q0 -4 -5 -4h-24q-5 0 -5 4v97h-139q-4 0 -4 6v23q0 2 2 4q66 45 91 115q18 56 18 106q0 4 5 4h26q4 0 4 -4q-2 -72 -35 -145q-20 -40 -63 -75h95v30q0 4 3 4l27 5q4 0 4 -4v-35h49z" />
    <glyph glyph-name="five.numr" horiz-adv-x="314" 
d="M92 627q32 21 62.5 24.5t53 -6.5t39.5 -30t23.5 -43.5t2 -49t-21.5 -44.5q-45 -48 -110 -41t-99 62q-2 4 -1 5l18 17q4 2 5 1q29 -46 77.5 -53t80.5 28q33 36 11 80q-21 40 -65 44q-39 3 -75 -31h-1l-29 3q-4 0 -4 7v169v1v26q0 4 4 4h188q5 0 5 -4v-25q0 -4 -5 -4h-159
v-140z" />
    <glyph glyph-name="six.numr" horiz-adv-x="304" 
d="M158 673q48 0 82 -33.5t34 -80.5q0 -49 -35 -83t-85 -34q-38 0 -68 21.5t-42 55.5q-14 32 -14 80q-2 90 47 150q18 22 50.5 42t72.5 20q4 0 4 -3l1 -26q0 -4 -4 -4q-51 0 -90.5 -42t-45.5 -105q37 42 93 42zM154 474q37 0 61.5 23t24.5 61t-23 61t-59 23
q-38 0 -63.5 -23.5t-25.5 -60.5q1 -37 25 -60.5t60 -23.5z" />
    <glyph glyph-name="seven.numr" horiz-adv-x="312" 
d="M272 796v-8v-3q0 -1 -0.5 -2.5l-0.5 -1.5l-185 -329q-2 -3 -4 -3h-30q-2 0 -3 1.5t1 3.5l174 312h-180q-4 0 -4 4v26q0 4 3 4h226q3 0 3 -4z" />
    <glyph glyph-name="eight.numr" horiz-adv-x="294" 
d="M109 622q-26 -2 -52.5 -28t-26.5 -63q0 -43 31 -69.5t87 -26.5q54 0 85 26.5t31 69.5q0 37 -26.5 62.5t-52.5 28.5h6q66 24 66 86q0 44 -30 70t-79 26t-80 -26t-31 -70q0 -33 21 -55.5t47 -30.5h4zM224 707q0 -29 -22 -48.5t-54 -19.5q-33 0 -56 19t-23 49q0 66 79 66
q76 0 76 -66zM148 465q-85 0 -85 67q0 30 22.5 50.5t62.5 20.5q39 0 61.5 -20.5t22.5 -50.5q0 -67 -84 -67z" />
    <glyph glyph-name="nine.numr" horiz-adv-x="301" 
d="M271 648q2 -89 -45 -147q-18 -23 -50.5 -43t-72.5 -20q-4 0 -5 3l-1 26q0 4 4 4q51 0 89 40t46 101q-34 -36 -91 -36q-47 0 -81 33t-34 80q0 48 35 82.5t84 34.5q39 0 69 -22.5t41 -58.5q12 -31 12 -77zM145 606q38 0 63 24t25 61q-1 37 -23 60t-60 23q-36 0 -61.5 -23.5
t-25.5 -60.5t24 -60.5t58 -23.5z" />
    <glyph glyph-name="ligaf" horiz-adv-x="498" 
d="M342 808q56 0 105.5 -24.5t85.5 -59.5l-17 -38q-76 76 -173 76q-18 0 -36.5 -3.5t-41.5 -14t-40 -27.5t-28.5 -47.5t-11.5 -69.5v-105h165q8 0 8 -9v-27q0 -9 -8 -9h-165v-438q0 -12 -9 -12h-25q-14 0 -14 19v431h-93q-9 0 -9 8v23q0 14 14 14h88v105q0 101 56.5 154.5
t148.5 53.5z" />
    <glyph glyph-name="ligafex" horiz-adv-x="498" 
d="M342 808q56 0 105.5 -24.5t85.5 -59.5l-17 -38q-76 76 -173 76q-18 0 -36.5 -3.5t-41.5 -14t-40 -27.5t-28.5 -47.5t-11.5 -69.5v-105h248q8 0 8 -9v-27q0 -9 -8 -9h-248v-438q0 -12 -9 -12h-25q-14 0 -14 19v431h-93q-9 0 -9 8v23q0 14 14 14h88v105q0 101 56.5 154.5
t148.5 53.5z" />
    </font>
</defs>
</svg>
