<?xml version="1.0" standalone="no"?>
<!DOCTYPE svg PUBLIC "-//W3C//DTD SVG 20010904//EN"
 "http://www.w3.org/TR/2001/REC-SVG-20010904/DTD/svg10.dtd">
<svg version="1.0" xmlns="http://www.w3.org/2000/svg"
 width="256.000000pt" height="256.000000pt" viewBox="0 0 256.000000 256.000000"
 preserveAspectRatio="xMidYMid meet">
<metadata>
Created by potrace 1.11, written by Peter Selinger 2001-2013
</metadata>
<g transform="translate(0.000000,256.000000) scale(0.100000,-0.100000)"
fill="#000000" stroke="none">
<path d="M1172 2549 c-566 -43 -1047 -481 -1147 -1044 -21 -117 -21 -333 0
-450 92 -518 512 -938 1030 -1030 53 -9 145 -16 225 -16 80 0 172 7 225 16
518 92 938 512 1030 1030 21 117 21 333 0 450 -68 384 -322 727 -672 908 -211
109 -445 155 -691 136z m-360 -448 c41 -17 118 -42 173 -56 88 -22 106 -24
152 -14 l54 11 124 -61 c68 -34 128 -61 131 -61 10 0 106 -61 329 -211 90 -60
179 -163 222 -259 19 -41 50 -96 69 -122 25 -35 33 -56 31 -80 -2 -20 10 -62
30 -108 37 -85 41 -105 16 -96 -20 8 -35 -12 -24 -33 5 -9 11 -38 14 -66 5
-48 5 -49 -9 -23 -21 40 -64 80 -80 74 -8 -3 -11 1 -8 12 2 9 -3 2 -11 -16
-13 -27 -18 -31 -34 -23 -10 6 -22 7 -27 3 -5 -4 -3 0 4 9 10 13 9 19 -6 31
-9 9 -28 18 -42 22 -14 3 -19 3 -12 0 10 -5 10 -9 0 -22 -8 -9 -8 -13 -2 -9 7
4 15 0 18 -9 11 -30 0 -25 -37 16 l-36 40 27 14 27 14 -27 7 c-15 4 -40 3 -56
-3 -25 -9 -30 -7 -47 18 -10 15 -24 26 -31 23 -6 -2 -14 3 -17 11 -4 11 -1 16
11 16 13 0 12 3 -6 16 -14 10 -34 14 -50 11 -17 -3 -39 2 -57 13 -30 18 -115
36 -149 31 -10 -1 -15 2 -12 7 4 6 -5 9 -20 7 -15 -1 -31 -10 -36 -19 -8 -14
-13 -15 -24 -5 -8 6 -14 16 -14 21 0 6 5 6 14 -1 11 -9 12 -6 8 14 -2 14 -7
25 -11 25 -4 0 -7 9 -8 20 -2 17 3 19 25 15 24 -5 23 -4 -8 14 -22 12 -39 16
-46 10 -6 -5 -13 -6 -16 -3 -3 2 -8 -2 -11 -11 -4 -8 -2 -15 4 -15 6 0 8 -4 4
-9 -3 -5 -1 -12 5 -16 5 -3 10 -1 10 4 0 6 8 11 18 10 9 0 12 -3 5 -5 -7 -3
-9 -12 -6 -20 3 -7 10 -11 17 -7 6 3 5 0 -2 -8 -11 -12 -14 -12 -22 1 -5 8
-10 11 -10 6 0 -5 -7 -3 -15 4 -8 7 -15 8 -15 3 0 -5 10 -14 23 -20 12 -6 29
-23 37 -39 8 -16 22 -34 30 -41 18 -15 44 -17 35 -3 -3 6 -2 10 3 10 17 0 21
-13 11 -33 -7 -11 -14 -15 -18 -9 -3 6 -14 -1 -25 -15 -18 -25 -18 -25 4 -18
l22 7 -21 -21 c-26 -26 -27 -38 0 -46 27 -9 33 -1 20 23 -9 17 -7 21 16 27 15
3 23 9 17 13 -10 7 -13 31 -4 33 12 1 40 -14 40 -22 0 -5 -14 -18 -31 -28 -33
-20 -28 -29 18 -37 15 -3 30 -8 33 -11 3 -3 -5 -3 -17 0 -13 3 -23 1 -23 -4 0
-5 -3 -8 -7 -7 -5 1 -22 -6 -40 -15 -43 -23 -60 -22 -42 1 13 16 12 16 -4 3
-17 -14 -17 -16 -3 -27 9 -6 16 -17 16 -23 0 -7 5 -9 10 -6 6 4 8 10 5 15 -7
12 41 40 75 45 27 3 29 2 19 -16 -8 -16 -14 -18 -24 -9 -8 7 -15 7 -19 1 -3
-5 -1 -11 6 -13 21 -7 0 -41 -22 -35 -26 7 -33 -6 -15 -29 17 -22 19 -38 5
-29 -5 3 -10 2 -10 -4 0 -6 -7 -8 -16 -4 -9 3 -20 0 -26 -8 -8 -11 -9 -11 -5
3 7 20 -19 33 -27 13 -3 -10 -14 -11 -40 -5 -20 4 -36 5 -36 1 0 -3 -4 0 -9 8
-5 8 -18 16 -28 17 -10 1 -29 5 -43 9 -14 4 -8 -2 15 -14 22 -12 31 -19 20
-17 -65 13 -75 17 -69 28 5 8 0 9 -15 5 -14 -3 -35 2 -53 13 -17 10 -37 16
-44 13 -8 -3 -14 0 -14 6 0 17 29 13 59 -8 26 -19 27 -19 27 -1 0 10 -4 16 -8
14 -5 -3 -11 2 -14 11 -5 12 -14 15 -33 11 -14 -3 -20 -3 -13 0 6 3 12 10 12
16 0 14 -26 38 -43 38 -7 0 -24 11 -37 25 -13 14 -19 25 -14 25 5 0 15 -9 22
-20 14 -24 28 -26 35 -6 4 9 1 13 -7 10 -7 -3 -21 4 -31 16 -13 14 -22 17 -30
10 -24 -20 -143 40 -187 94 -10 12 -18 17 -18 11 -1 -8 -30 51 -30 60 0 12 35
-6 60 -30 27 -26 34 -28 28 -7 -2 4 -6 6 -10 5 -5 -2 -8 3 -8 11 0 8 -13 25
-29 39 -17 14 -27 27 -24 31 3 3 -3 9 -13 13 -10 4 -24 14 -31 22 -17 22 -35
73 -23 66 6 -4 10 -2 10 2 0 5 -9 14 -20 20 -16 10 -21 10 -28 -3 -5 -9 -15
-12 -26 -8 -14 5 -17 15 -14 48 3 23 -2 56 -9 74 -7 17 -11 32 -8 32 3 0 10
-12 16 -27 7 -20 12 -24 18 -14 5 8 14 10 20 6 17 -10 4 39 -25 98 -13 27 -24
56 -23 65 0 12 2 13 6 3 5 -11 7 -11 15 0 8 11 9 10 4 -4 -5 -16 56 -167 68
-167 3 0 2 8 -1 18 -6 15 -5 16 12 2 18 -15 18 -14 1 12 -13 20 -14 27 -4 31
10 3 8 9 -6 26 -29 32 -11 25 24 -9 17 -17 35 -28 40 -25 4 3 7 -3 6 -12 -2
-10 0 -20 3 -23 16 -14 52 -72 40 -66 -8 4 -7 1 2 -6 15 -12 15 -17 2 -42 -14
-27 -13 -30 14 -58 23 -26 24 -29 6 -19 -30 15 -38 14 -23 -4 7 -8 22 -16 34
-16 20 -2 20 -2 -1 -6 -13 -2 -23 -8 -23 -13 0 -4 9 -6 20 -3 13 4 27 -1 36
-13 9 -11 12 -12 8 -4 -5 10 1 8 16 -5 13 -11 20 -14 16 -7 -7 11 -4 12 13 3
11 -7 21 -14 21 -17 0 -3 -4 -2 -10 1 -6 3 -7 -1 -4 -9 3 -9 10 -13 15 -10 5
3 14 2 20 -2 8 -4 7 -9 -2 -15 -11 -7 -10 -9 4 -9 14 0 17 -5 13 -22 -3 -13
-3 -17 0 -10 3 6 13 12 22 11 11 0 12 -2 5 -6 -27 -10 -11 -21 27 -19 30 2 37
-1 29 -10 -6 -7 -18 -10 -27 -8 -14 5 -14 4 1 -6 14 -9 22 -9 34 2 13 10 17
10 20 0 3 -6 8 -10 12 -8 4 3 8 -1 8 -9 0 -9 -5 -15 -11 -14 -6 1 -20 0 -31
-1 -17 -2 -16 -3 5 -9 14 -4 24 -13 22 -20 -2 -9 3 -9 19 0 15 8 19 8 15 0 -4
-6 0 -11 8 -11 9 0 15 -6 13 -12 -1 -7 4 -12 12 -10 19 4 41 -17 41 -39 0 -16
-4 -17 -26 -8 -25 9 -26 8 -13 -8 8 -10 23 -26 34 -35 18 -16 18 -17 3 -18
-10 0 -18 -5 -18 -10 0 -7 7 -7 21 0 15 9 24 8 35 -1 15 -13 17 -9 8 15 -3 9
-12 16 -20 16 -8 0 -14 7 -14 16 0 10 6 14 15 10 8 -3 15 -1 15 3 0 5 -6 11
-14 14 -16 6 -27 55 -14 63 4 3 -1 18 -12 34 -13 18 -16 31 -10 35 5 3 10 1
10 -5 0 -14 29 -44 58 -59 14 -8 22 -8 22 -1 0 5 -4 10 -9 10 -15 0 -21 30
-11 51 6 10 20 19 30 19 11 0 19 6 17 13 -1 7 8 11 26 10 18 -1 27 2 24 10 -4
12 -12 12 -59 1 -27 -6 -65 16 -51 30 4 4 8 13 9 21 3 18 -33 20 -38 3 -3 -7
-12 -4 -26 10 -21 21 -49 22 -37 2 4 -7 -6 -7 -35 0 -3 0 8 8 23 16 27 15 28
16 10 29 -10 7 -22 11 -28 8 -5 -4 -7 -3 -3 2 4 4 3 16 -3 26 -10 19 -2 25 26
19 6 -1 5 4 -1 10 -7 7 -20 10 -30 8 -11 -2 -26 3 -34 12 -8 9 -24 16 -35 17
-11 0 -35 2 -53 6 -32 5 -33 4 -28 -24 3 -18 0 -27 -6 -23 -6 4 -14 1 -18 -6
-4 -7 -13 -9 -19 -5 -17 10 6 35 27 29 9 -3 4 2 -13 12 -21 12 -30 14 -33 5
-2 -7 -13 2 -24 19 -10 18 -17 34 -14 37 2 3 10 -5 16 -17 6 -12 14 -20 16
-17 7 7 -19 60 -36 74 -21 17 2 16 25 -1 10 -7 27 -11 37 -8 12 3 18 -1 18
-12 0 -10 -5 -13 -17 -9 -11 4 -14 3 -9 -6 5 -7 14 -10 22 -7 8 3 17 -1 20 -9
8 -20 28 -19 45 2 13 15 12 15 -7 5 -16 -9 -21 -8 -21 4 0 7 4 14 9 14 5 0 6
5 3 11 -4 6 -12 8 -19 6 -6 -3 -12 4 -12 14 0 13 3 15 13 7 7 -5 18 -8 25 -6
7 3 22 1 33 -4 18 -8 18 -8 -2 -4 -26 5 -31 -11 -8 -20 8 -4 23 0 32 7 14 12
16 12 8 0 -6 -11 -4 -13 7 -8 9 3 19 2 24 -3 5 -4 25 -1 45 8 l36 15 -26 23
c-20 19 -22 23 -9 24 30 0 27 15 -3 16 -16 1 -29 -3 -29 -8 0 -5 -5 -6 -11 -2
-8 5 -8 9 1 14 16 10 -17 43 -36 36 -8 -3 -13 0 -11 7 1 7 -6 11 -15 11 -10
-1 -15 2 -12 7 3 5 12 9 20 9 8 0 13 4 10 9 -3 5 -16 7 -27 4 -18 -5 -20 -3
-14 17 5 15 4 20 -4 16 -17 -11 -13 10 4 24 11 9 15 9 15 1 0 -7 5 -9 11 -5 8
4 7 9 -2 15 -7 4 -18 4 -25 -1 -6 -6 -13 -7 -16 -4 -3 3 -9 0 -14 -7 -5 -8 -3
-10 6 -4 9 5 11 4 6 -4 -11 -17 -26 -3 -19 16 5 12 2 15 -11 10 -11 -4 -23 1
-34 15 -45 57 -136 147 -143 142 -8 -5 -10 0 -13 39 -1 6 5 11 13 9 12 -3 12
0 1 12 -14 18 -21 21 -18 7 3 -9 -2 -11 -21 -11 -6 0 -25 14 -43 31 -27 24
-39 29 -64 24 -27 -5 -32 -2 -38 17 -18 68 -4 89 53 78 40 -7 47 -6 64 16 10
13 20 24 22 24 2 0 37 -13 77 -29z m-192 -140 c14 -28 13 -34 -7 -27 -16 6
-16 5 0 -12 10 -11 20 -28 22 -38 14 -62 29 -110 35 -117 8 -10 -11 -57 -23
-57 -5 0 -5 -6 -2 -12 4 -7 -9 4 -29 26 -39 41 -41 48 -26 75 7 14 4 30 -11
61 -11 23 -18 44 -15 48 3 3 1 11 -5 18 -8 9 -5 18 10 33 26 26 37 26 51 2z
m100 -82 c0 -5 7 -9 15 -9 10 0 14 -9 13 -25 -1 -14 -6 -25 -10 -25 -7 0 -32
41 -30 50 0 3 -5 4 -11 3 -7 -2 -18 6 -24 16 -12 19 -11 19 17 9 17 -5 30 -14
30 -19z m60 -59 c0 -5 -2 -10 -4 -10 -3 0 -8 5 -11 10 -3 6 -1 10 4 10 6 0 11
-4 11 -10z m23 -14 c3 -8 0 -17 -7 -19 -10 -4 -12 1 -9 14 6 23 9 24 16 5z
m60 -23 c18 7 32 -19 15 -29 -7 -4 -8 -3 -4 4 4 7 1 12 -9 12 -10 0 -13 -5 -9
-12 4 -7 -2 -4 -14 6 -12 11 -22 26 -22 34 0 13 3 12 14 -3 7 -11 20 -16 29
-12z m77 -85 c9 -3 10 -7 4 -11 -6 -3 -24 8 -40 26 -23 26 -24 28 -4 11 14
-12 32 -23 40 -26z m-311 -143 c1 -5 -16 17 -38 49 -24 37 -36 66 -33 79 4 15
13 3 38 -49 18 -38 33 -73 33 -79z m199 0 c-3 -3 -9 2 -12 12 -6 14 -5 15 5 6
7 -7 10 -15 7 -18z m303 -58 c-10 -9 -11 -8 -5 6 3 10 9 15 12 12 3 -3 0 -11
-7 -18z m-75 -96 c-4 -5 0 -11 6 -14 7 -2 1 -4 -14 -3 -31 1 -37 12 -10 19 9
3 18 5 20 6 2 0 1 -3 -2 -8z m-436 -11 c0 -5 -2 -10 -4 -10 -3 0 -8 5 -11 10
-3 6 -1 10 4 10 6 0 11 -4 11 -10z m250 -30 c7 -14 7 -20 0 -20 -5 0 -10 6
-10 14 0 8 -6 17 -12 19 -10 4 -10 6 -1 6 7 1 17 -8 23 -19z m-149 -73 c-12
-12 -31 0 -31 19 0 12 3 12 20 2 11 -7 16 -16 11 -21z m-21 -41 c0 -3 3 -13 6
-23 5 -15 4 -15 -5 -3 -12 17 -15 2 -5 -25 5 -13 9 -14 15 -3 6 8 8 -2 6 -27
-1 -25 2 -40 10 -40 7 0 18 -6 25 -14 10 -11 10 -14 1 -18 -10 -3 -9 -8 2 -20
8 -8 13 -19 10 -24 -3 -5 -20 8 -38 29 -18 20 -36 40 -42 44 -5 4 -6 8 -2 8 5
0 1 7 -8 16 -9 9 -14 23 -11 31 3 8 2 11 -4 8 -12 -7 -33 32 -25 46 4 5 1 17
-7 26 -9 12 -9 15 0 9 6 -4 12 -2 12 4 0 6 11 5 30 -5 17 -9 30 -17 30 -19z
m479 -2 c-17 -21 -31 -17 -17 5 7 11 16 17 20 14 5 -2 4 -11 -3 -19z m-184 6
c3 -5 1 -10 -4 -10 -6 0 -11 5 -11 10 0 6 2 10 4 10 3 0 8 -4 11 -10z m110
-39 c3 -5 1 -12 -5 -16 -5 -3 -10 1 -10 9 0 18 6 21 15 7z m-48 -7 c-3 -3 -12
-4 -19 -1 -8 3 -5 6 6 6 11 1 17 -2 13 -5z m393 -4 c0 -13 -28 -25 -38 -16 -3
4 0 11 8 16 20 13 30 12 30 0z m159 -10 c8 -4 -11 -12 -53 -20 -41 -7 -63 -16
-59 -23 3 -6 1 -7 -5 -3 -19 12 -14 36 7 36 11 0 23 5 27 12 4 6 3 8 -4 4 -6
-3 -14 -1 -18 5 -8 13 79 4 105 -11z m37 -35 c11 -9 13 -13 4 -10 -8 3 -28 1
-45 -3 -30 -9 -30 -9 -7 -21 12 -6 28 -9 34 -5 7 4 8 3 4 -4 -4 -8 0 -12 11
-12 20 0 66 -29 48 -30 -6 0 -16 5 -23 12 -6 6 -14 9 -17 6 -3 -3 15 -17 40
-31 25 -14 43 -21 39 -16 -8 13 49 -1 57 -14 4 -5 16 -6 28 -2 13 4 21 2 21
-5 0 -7 7 -9 18 -5 11 4 13 3 7 -3 -5 -6 -19 -12 -30 -15 -15 -4 -13 -5 8 -6
15 0 27 -5 27 -11 0 -5 9 -10 21 -10 15 0 19 -5 15 -16 -3 -8 -2 -12 3 -9 5 3
13 -4 16 -16 5 -16 12 -19 31 -15 42 11 26 -13 -18 -26 l-41 -12 29 -8 c47
-14 64 -17 64 -12 0 3 -10 9 -22 14 -22 8 -22 9 -2 9 11 1 25 -4 32 -11 10
-10 7 -15 -10 -26 -13 -8 -15 -11 -5 -8 9 3 17 2 18 -2 0 -4 2 -16 4 -27 4
-19 3 -20 -10 -1 -12 16 -17 17 -30 6 -12 -10 -15 -10 -15 4 0 10 -4 14 -10
11 -5 -3 -20 3 -32 14 -12 12 -27 22 -32 22 -49 6 -62 6 -72 -2 -8 -6 -14 -4
-17 5 -4 9 1 17 11 19 9 3 3 5 -15 6 -37 1 -56 21 -21 21 21 1 22 1 4 11 -15
9 -16 13 -5 21 11 7 9 9 -7 5 -11 -2 -29 2 -39 9 -29 22 -43 16 -15 -6 l25
-20 -32 11 c-18 6 -30 15 -27 20 3 5 -4 9 -16 9 -12 0 -19 4 -16 9 3 5 16 7
28 3 14 -3 19 -2 14 6 -4 7 -14 12 -23 12 -10 0 -13 6 -8 18 5 14 4 15 -6 5
-22 -22 -33 -14 -13 8 19 22 19 22 -4 8 -20 -12 -24 -12 -32 1 -6 10 -6 16 1
19 6 2 -2 12 -17 22 -20 13 -33 15 -46 8 -12 -6 -18 -6 -18 1 0 5 6 10 13 10
7 0 5 5 -5 11 -9 5 -15 16 -12 24 4 8 10 13 14 10 5 -3 11 -1 15 5 4 6 12 7
22 1 19 -10 55 -3 47 10 -9 15 21 10 42 -6z m59 -3 c-3 -3 -11 0 -18 7 -9 10
-8 11 6 5 10 -3 15 -9 12 -12z m70 -72 c3 -5 1 -10 -4 -10 -6 0 -11 5 -11 10
0 6 2 10 4 10 3 0 8 -4 11 -10z m-30 -18 c-3 -3 -11 0 -18 7 -9 10 -8 11 6 5
10 -3 15 -9 12 -12z m-865 -34 c0 -4 11 -8 24 -8 14 0 42 -17 67 -40 l44 -41
-57 36 c-31 19 -59 31 -63 26 -3 -5 -1 -12 5 -16 6 -4 8 -10 5 -15 -3 -5 2
-21 11 -35 13 -21 14 -29 5 -38 -10 -9 -12 -9 -10 3 2 8 -5 30 -15 49 -10 18
-24 54 -31 80 -12 40 -12 44 0 27 8 -11 15 -23 15 -28z m1081 -25 c13 -15 12
-15 -11 -3 -34 17 -36 20 -18 20 9 0 22 -7 29 -17z m-431 -22 c0 -5 -7 -12
-16 -15 -14 -5 -15 -4 -4 9 14 17 20 19 20 6z m544 -16 c22 -17 15 -29 -24
-40 -14 -3 -20 -3 -15 2 16 13 16 33 0 27 -11 -5 -13 -2 -9 10 8 20 23 20 48
1z m-464 -5 c-8 -5 -22 -10 -30 -10 -13 0 -13 1 0 10 8 5 22 10 30 10 13 0 13
-1 0 -10z m-800 -32 c0 -6 -6 -5 -15 2 -8 7 -15 14 -15 16 0 2 7 1 15 -2 8 -4
15 -11 15 -16z m848 -38 c2 -5 10 -10 18 -10 8 0 14 -7 14 -15 0 -17 20 -20
38 -5 6 6 10 7 7 4 -3 -4 0 -13 6 -21 8 -8 8 -13 1 -13 -6 0 -12 4 -14 10 -2
6 -9 6 -18 0 -12 -7 -11 -10 5 -15 20 -7 37 -13 88 -34 15 -6 27 -15 27 -19 0
-5 19 -8 43 -6 47 3 124 -13 134 -29 4 -6 0 -8 -10 -4 -9 3 -19 1 -23 -4 -3
-6 -18 -8 -33 -4 l-26 6 23 -21 c21 -20 49 -19 37 1 -4 5 -2 9 4 9 18 0 17
-24 -1 -42 -10 -10 -18 -27 -18 -39 0 -13 -4 -18 -12 -13 -10 6 -10 4 0 -7 6
-7 12 -22 12 -33 -1 -19 -1 -19 -11 -3 -5 9 -17 17 -25 17 -8 0 -13 4 -10 9 3
5 -4 11 -16 14 -17 5 -19 9 -9 21 10 12 9 16 -6 25 -11 6 -13 11 -5 11 7 0 10
5 7 10 -3 6 1 10 9 10 9 0 16 7 16 15 0 18 -12 19 -28 3 -9 -9 -12 -9 -12 1 0
8 -12 2 -31 -13 -17 -14 -41 -29 -55 -32 -13 -3 -21 -10 -18 -15 3 -5 0 -9 -5
-9 -6 0 -11 -13 -11 -29 0 -17 -4 -32 -8 -35 -10 -6 -47 42 -47 60 0 7 -9 21
-20 29 -20 17 -20 17 0 10 16 -5 18 -4 8 6 -7 7 -13 21 -13 30 0 9 -7 22 -16
30 -27 22 -47 70 -35 82 19 19 12 37 -21 57 l-33 20 45 -5 c25 -2 46 -9 48
-15z m76 1 c3 -5 -3 -11 -13 -14 -12 -3 -22 1 -25 9 -6 16 29 20 38 5z m-963
-24 c-10 -9 -11 -8 -5 6 3 10 9 15 12 12 3 -3 0 -11 -7 -18z m1279 -12 c0 4 7
2 15 -5 26 -22 16 -31 -15 -15 -16 9 -30 20 -30 26 0 8 5 7 15 -1 8 -7 15 -9
15 -5z m-447 -18 c-5 -8 -8 -7 -11 1 -2 7 -9 9 -14 6 -7 -4 -8 -2 -4 4 4 6 13
9 21 6 8 -4 12 -11 8 -17z m260 -1 c35 -12 37 -14 21 -27 -10 -8 -15 -9 -11
-3 4 7 -5 14 -23 18 -17 3 -30 10 -30 16 0 12 -3 12 43 -4z m-769 -111 c14
-14 23 -25 21 -25 -2 0 6 -11 18 -24 40 -44 48 -56 37 -56 -13 0 -90 72 -90
84 0 5 -7 18 -17 28 -25 28 3 22 31 -7z m6 -75 c0 -5 -4 -10 -10 -10 -5 0 -10
5 -10 10 0 6 5 10 10 10 6 0 10 -4 10 -10z m101 -57 c13 -15 12 -15 -11 -3
-34 17 -36 20 -18 20 9 0 22 -7 29 -17z m352 10 c-7 -2 -21 -2 -30 0 -10 3 -4
5 12 5 17 0 24 -2 18 -5z m-24 -69 c2 -2 -12 -4 -32 -4 -20 0 -38 4 -42 9 -5
9 64 4 74 -5z m56 -4 c3 -5 1 -10 -4 -10 -6 0 -11 5 -11 10 0 6 2 10 4 10 3 0
8 -4 11 -10z"/>
<path d="M710 1976 c0 -9 5 -16 10 -16 6 0 10 4 10 9 0 6 -4 13 -10 16 -5 3
-10 -1 -10 -9z"/>
<path d="M1230 1716 c0 -2 9 -6 20 -9 11 -3 18 -1 14 4 -5 9 -34 13 -34 5z"/>
<path d="M1271 1663 c10 -2 19 -13 22 -24 3 -10 10 -19 16 -19 12 0 2 32 -13
42 -6 4 -18 7 -26 7 -12 -1 -11 -2 1 -6z"/>
<path d="M1430 1651 c0 -5 7 -12 16 -15 14 -5 15 -4 4 9 -14 17 -20 19 -20 6z"/>
<path d="M1084 1618 c-4 -7 -4 -10 1 -6 4 4 15 2 24 -5 14 -11 14 -10 2 6 -16
20 -18 21 -27 5z"/>
<path d="M721 1563 c7 -12 15 -20 18 -17 3 2 -3 12 -13 22 -17 16 -18 16 -5
-5z"/>
<path d="M1175 1550 c3 -5 11 -10 16 -10 6 0 7 5 4 10 -3 6 -11 10 -16 10 -6
0 -7 -4 -4 -10z"/>
<path d="M1850 1546 c0 -2 7 -6 15 -10 8 -3 15 -1 15 4 0 6 -7 10 -15 10 -8 0
-15 -2 -15 -4z"/>
<path d="M1172 1527 c10 -8 15 -17 12 -20 -4 -3 9 -15 27 -26 19 -12 27 -21
19 -21 -8 0 -22 4 -30 10 -15 9 -30 -3 -30 -25 0 -5 4 -4 8 3 5 7 16 10 25 6
9 -3 15 -9 12 -14 -2 -4 7 -18 20 -30 19 -18 22 -26 13 -32 -20 -12 -31 -9
-24 8 3 8 2 13 -3 9 -5 -3 -12 1 -14 7 -3 7 -6 3 -6 -8 -1 -26 15 -34 53 -27
27 6 99 -12 123 -29 6 -5 13 -4 15 2 2 8 16 7 45 -3 37 -13 41 -13 36 2 -3 9
5 6 18 -9 17 -19 21 -20 15 -6 -6 18 -5 18 20 1 14 -9 28 -14 32 -11 3 3 1 6
-5 6 -6 0 -14 7 -17 16 -5 12 -2 15 10 10 10 -4 14 -1 12 6 -3 7 -11 13 -19
14 -22 0 -49 15 -49 26 0 7 4 7 13 1 16 -13 51 -13 38 0 -5 5 -30 9 -55 10
-45 1 -57 9 -34 23 7 5 8 3 3 -6 -5 -9 -4 -11 4 -6 17 11 5 23 -34 36 -19 6
-35 16 -35 21 0 6 -5 7 -12 3 -8 -5 -9 -2 -5 9 6 17 -28 45 -41 33 -3 -3 1 -6
8 -6 7 0 10 -3 7 -6 -4 -4 -13 -1 -21 5 -8 7 -41 13 -73 13 -32 1 -67 5 -78
10 -18 8 -19 8 -3 -5z"/>
<path d="M700 1521 c0 -5 20 -31 45 -58 37 -41 44 -45 45 -26 0 12 -16 37 -35
57 -34 35 -55 45 -55 27z"/>
<path d="M1924 1488 c-4 -7 -3 -8 5 -4 6 4 19 2 27 -5 12 -10 13 -9 8 5 -7 19
-30 21 -40 4z"/>
<path d="M1145 1480 c-3 -6 1 -7 9 -4 18 7 21 14 7 14 -6 0 -13 -4 -16 -10z"/>
<path d="M1504 1445 c-10 -8 -14 -15 -8 -15 6 0 17 7 24 15 16 19 9 19 -16 0z"/>
<path d="M1010 1446 c0 -2 7 -9 15 -16 9 -7 15 -8 15 -2 0 5 -7 12 -15 16 -8
3 -15 4 -15 2z"/>
<path d="M1560 1419 c0 -5 5 -7 10 -4 6 3 10 8 10 11 0 2 -4 4 -10 4 -5 0 -10
-5 -10 -11z"/>
<path d="M760 1389 c0 -5 5 -7 10 -4 6 3 10 8 10 11 0 2 -4 4 -10 4 -5 0 -10
-5 -10 -11z"/>
<path d="M1670 1396 c0 -2 7 -7 16 -10 8 -3 12 -2 9 4 -6 10 -25 14 -25 6z"/>
<path d="M1151 1363 c-7 -8 -11 -16 -8 -19 2 -2 10 2 17 11 17 20 9 27 -9 8z"/>
<path d="M1610 1360 c0 -6 7 -10 15 -10 8 0 15 2 15 4 0 2 -7 6 -15 10 -8 3
-15 1 -15 -4z"/>
<path d="M1266 1351 c-4 -5 1 -8 9 -7 21 3 31 16 12 16 -9 0 -18 -4 -21 -9z"/>
<path d="M840 1301 c0 -6 4 -13 10 -16 6 -3 7 1 4 9 -7 18 -14 21 -14 7z"/>
<path d="M1448 1288 c5 -5 16 -8 23 -6 8 3 3 7 -10 11 -17 4 -21 3 -13 -5z"/>
<path d="M1285 1250 c3 -5 8 -10 11 -10 2 0 4 5 4 10 0 6 -5 10 -11 10 -5 0
-7 -4 -4 -10z"/>
<path d="M825 1240 c3 -5 11 -10 16 -10 6 0 7 5 4 10 -3 6 -11 10 -16 10 -6 0
-7 -4 -4 -10z"/>
<path d="M925 1230 c6 -10 4 -12 -8 -7 -22 8 -21 -1 3 -38 11 -16 20 -26 20
-21 0 4 12 0 27 -9 l27 -18 -22 34 c-12 19 -26 33 -32 32 -5 -2 -7 3 -4 11 3
8 0 17 -7 22 -8 5 -10 3 -4 -6z"/>
<path d="M1274 1147 c-12 -13 14 -50 29 -40 5 3 3 9 -4 14 -10 6 -11 9 -1 9 6
0 12 5 12 11 0 5 -4 8 -9 5 -5 -4 -11 -2 -13 3 -1 5 -8 4 -14 -2z"/>
<path d="M1370 1145 c0 -9 6 -12 18 -8 16 6 16 5 1 -13 -27 -32 -30 -42 -14
-47 9 -4 12 -1 8 9 -3 8 3 21 13 28 15 12 16 16 5 30 -17 20 -31 21 -31 1z"/>
<path d="M1958 1143 c6 -2 10 -8 7 -13 -3 -4 2 -10 10 -14 8 -3 15 -2 15 2 0
12 -23 32 -34 31 -6 0 -5 -3 2 -6z"/>
<path d="M1324 1099 l-16 -31 26 18 c14 11 26 25 26 32 0 23 -19 12 -36 -19z"/>
<path d="M1781 1108 c5 -10 19 -18 29 -18 19 0 19 1 3 18 -24 25 -45 25 -32 0z"/>
<path d="M2105 1070 c3 -5 8 -10 11 -10 2 0 4 5 4 10 0 6 -5 10 -11 10 -5 0
-7 -4 -4 -10z"/>
<path d="M1145 1051 c-17 -7 -17 -8 8 -13 19 -4 27 -1 27 8 0 15 -6 16 -35 5z"/>
<path d="M1092 1018 c-9 -9 -6 -16 16 -30 15 -10 36 -17 47 -17 13 1 9 4 -11
10 -29 8 -56 39 -35 39 5 0 11 -7 15 -15 3 -8 13 -15 23 -15 15 1 15 4 -6 20
-27 23 -33 24 -49 8z"/>
<path d="M1447 969 c7 -7 15 -10 18 -7 3 3 -2 9 -12 12 -14 6 -15 5 -6 -5z"/>
<path d="M1360 930 c0 -5 5 -10 11 -10 5 0 7 5 4 10 -3 6 -8 10 -11 10 -2 0
-4 -4 -4 -10z"/>
<path d="M1410 900 c0 -5 5 -10 10 -10 6 0 10 5 10 10 0 6 -4 10 -10 10 -5 0
-10 -4 -10 -10z"/>
<path d="M597 1775 c3 -8 9 -12 14 -9 12 7 11 11 -5 17 -10 4 -13 1 -9 -8z"/>
<path d="M725 1850 c3 -5 8 -10 11 -10 2 0 4 5 4 10 0 6 -5 10 -11 10 -5 0 -7
-4 -4 -10z"/>
<path d="M1550 1120 c0 -6 7 -10 15 -10 8 0 15 2 15 4 0 2 -7 6 -15 10 -8 3
-15 1 -15 -4z"/>
<path d="M1618 1083 c7 -3 16 -2 19 1 4 3 -2 6 -13 5 -11 0 -14 -3 -6 -6z"/>
<path d="M1625 890 c-3 -5 -1 -10 4 -10 6 0 11 5 11 10 0 6 -2 10 -4 10 -3 0
-8 -4 -11 -10z"/>
<path d="M1658 863 c7 -3 16 -2 19 1 4 3 -2 6 -13 5 -11 0 -14 -3 -6 -6z"/>
<path d="M1622 821 c2 -7 7 -12 11 -12 12 1 9 15 -3 20 -7 2 -11 -2 -8 -8z"/>
</g>
</svg>
