<?xml version="1.0" encoding="UTF-8"?>
<svg width="70px" height="73px" viewBox="0 0 70 73" version="1.1" xmlns="http://www.w3.org/2000/svg" xmlns:xlink="http://www.w3.org/1999/xlink">
    <!-- Generator: Sketch 42 (36781) - http://www.bohemiancoding.com/sketch -->
    <title>Group 5</title>
    <desc>Created with Sketch.</desc>
    <defs>
        <rect id="path-1" x="0" y="0" width="68" height="32" rx="6"></rect>
        <mask id="mask-2" maskContentUnits="userSpaceOnUse" maskUnits="objectBoundingBox" x="0" y="0" width="68" height="32" fill="white">
            <use xlink:href="#path-1"></use>
        </mask>
    </defs>
    <g id="Page-1" stroke="none" stroke-width="1" fill="none" fill-rule="evenodd">
        <g id="Group-5">
            <path d="M64.2969672,37.0001259 L5.70303283,37.0001259 C2.94989419,37.0048443 0.719209647,39.2355288 0.714491318,41.9886674 L0.714491318,68.0113685 C0.719209647,70.7645071 2.94989419,72.9951918 5.70303283,72.99991 L28.5628957,72.99991 C29.1720111,73.0058425 29.7351047,72.676548 30.0286012,72.1427723 L33.4571521,65.1828141 C33.7292626,64.6209761 34.2985931,64.264126 34.9228576,64.264126 C35.5471221,64.264126 36.1164526,64.6209761 36.3885631,65.1828141 L39.6542578,72.0399158 C39.9237698,72.6333984 40.5196654,73.0104623 41.1713916,72.99991 L64.3141099,72.99991 C67.0605515,72.9857812 69.2808341,70.7578426 69.2855087,68.0113685 L69.2855087,41.9886674 C69.2807904,39.2355288 67.0501058,37.0048443 64.2969672,37.0001259 Z M19.5833337,63.5348526 C16.12795,63.5500301 13.0043577,61.4802384 11.6715096,58.2922259 C10.3386616,55.1042135 11.0595822,51.4271032 13.4975473,48.9783824 C15.9355123,46.5296616 19.6094135,45.7925612 22.8032623,47.1113627 C25.997111,48.430164 28.080633,51.5446148 28.0806662,55.0000319 C28.0807116,59.6990819 24.2823384,63.5142126 19.5833337,63.5348526 Z M50.4402916,63.5348526 C46.9849078,63.5500301 43.8613155,61.4802384 42.5284675,58.2922259 C41.1956194,55.1042135 41.91654,51.4271032 44.3545051,48.9783824 C46.7924701,46.5296616 50.4663713,45.7925612 53.6602201,47.1113627 C56.8540688,48.430164 58.9375908,51.5446148 58.937624,55.0000319 C58.9376694,59.6990819 55.1392962,63.5142126 50.4402916,63.5348526 Z" id="Shape" fill="#FFFFFF" fill-rule="nonzero"></path>
            <g id="Group-4" transform="translate(1.000000, 0.000000)">
                <g id="Group-2">
                    <use id="Rectangle-2" stroke="#FFFFFF" mask="url(#mask-2)" stroke-width="2" xlink:href="#path-1"></use>
                    <circle id="Oval" fill="#FFFFFF" cx="61.5" cy="16.5" r="2.5"></circle>
                    <g id="Group" transform="translate(3.000000, 10.000000)" stroke="#FFFFFF" stroke-linecap="round" stroke-linejoin="round">
                        <path d="M1.5,0.5 L1.5,7.5" id="Line"></path>
                        <path d="M1.5,10.5 L1.5,11.5" id="Line"></path>
                    </g>
                </g>
                <g id="Group-3" transform="translate(29.000000, 9.000000)" stroke="#FFFFFF" stroke-width="0.5" stroke-linecap="round">
                    <path d="M4.5,0.5 L4.5,13.5" id="Line"></path>
                    <path d="M4.5,13.5 L0.964466094,9.96446609" id="Line"></path>
                    <path d="M8.5,13.5 L4.96446609,9.96446609" id="Line" transform="translate(6.500000, 11.500000) scale(-1, 1) translate(-6.500000, -11.500000) "></path>
                </g>
            </g>
        </g>
    </g>
</svg>