<?xml version="1.0" encoding="UTF-8"?>
<svg width="25px" height="26px" viewBox="0 0 25 26" version="1.1" xmlns="http://www.w3.org/2000/svg" xmlns:xlink="http://www.w3.org/1999/xlink">
    <!-- Generator: Sketch 42 (36781) - http://www.bohemiancoding.com/sketch -->
    <title>Combined Shape</title>
    <desc>Created with Sketch.</desc>
    <defs></defs>
    <g id="gustav" stroke="none" stroke-width="1" fill="none" fill-rule="evenodd">
        <path d="M-0.4,17.5 C-0.5,17.5 -0.7,17.5 -0.8,17.4 L-4.1,14.1 C-4.7,13.5 -4.7,12.6 -4.1,12 L-0.8,8.7 C-0.6,8.5 -0.3,8.5 -0.1,8.7 C0.1,8.9 0.1,9.2 -0.1,9.4 L-3.4,12.7 C-3.6,12.9 -3.6,13.2 -3.4,13.4 L-0.1,16.7 C0.1,16.9 0.1,17.2 -0.1,17.4 C-0.2,17.5 -0.3,17.5 -0.4,17.5 Z M25.4,17.5 C25.3,17.5 25.1,17.5 25,17.4 C24.8,17.2 24.8,16.9 25,16.7 L28.3,13.4 C28.5,13.2 28.5,12.9 28.3,12.7 L25,9.4 C24.8,9.2 24.8,8.9 25,8.7 C25.2,8.5 25.5,8.5 25.7,8.7 L29,12 C29.6,12.6 29.6,13.5 29,14.1 L25.7,17.4 C25.7,17.5 25.6,17.5 25.4,17.5 Z" id="Combined-Shape" fill="#FFFFFF" transform="translate(12.450000, 13.025000) scale(-1, 1) rotate(45.000000) translate(-12.450000, -13.025000) "></path>
    </g>
</svg>