<?xml version="1.0" encoding="UTF-8"?>
<svg width="40px" height="13px" viewBox="0 0 40 13" version="1.1" xmlns="http://www.w3.org/2000/svg" xmlns:xlink="http://www.w3.org/1999/xlink">
    <!-- Generator: Sketch 42 (36781) - http://www.bohemiancoding.com/sketch -->
    <title>left</title>
    <desc>Created with Sketch.</desc>
    <defs></defs>
    <g id="gustav" stroke="none" stroke-width="1" fill="none" fill-rule="evenodd">
        <path d="M19.4227156,25.8250794 C19.5090938,26.0247589 19.7065297,26.1649833 19.9376195,26.1649833 C19.9757605,26.1593743 19.9847349,26.1649833 19.994831,26.1649833 C20.1384208,26.1649833 20.2820105,26.1100153 20.3919464,26.0012012 L26.0009208,20.3922268 C26.2196708,20.1734768 26.2196708,19.8178679 26.0009208,19.5991179 C25.7821708,19.3803679 25.4557284,19.3803679 25.2358567,19.5991179 L20.5557284,24.3072909 L20.5557284,-13.2741193 C20.5557284,-13.5837347 20.3044464,-13.8350167 19.994831,-13.8350167 C19.6852156,-13.8350167 19.4339336,-13.5837347 19.4339336,-13.2741193 L19.4339336,24.1928679 L14.8110169,19.5979961 C14.5922669,19.3792461 14.2231964,19.3792461 14.0033246,19.5979961 C13.7834528,19.8167461 13.776722,20.1723551 13.9965938,20.3911051 L19.4227156,25.8250794 Z" id="left" fill="#FFFFFF" fill-rule="nonzero" transform="translate(20.000000, 6.164983) scale(-1, 1) rotate(-90.000000) translate(-20.000000, -6.164983) "></path>
    </g>
</svg>