<?xml version="1.0" encoding="UTF-8"?>
<svg width="80px" height="42px" viewBox="0 0 80 42" version="1.1" xmlns="http://www.w3.org/2000/svg" xmlns:xlink="http://www.w3.org/1999/xlink">
    <!-- Generator: Sketch 42 (36781) - http://www.bohemiancoding.com/sketch -->
    <title>Shape</title>
    <desc>Created with Sketch.</desc>
    <defs></defs>
    <g id="Page-1" stroke="none" stroke-width="1" fill="none" fill-rule="evenodd">
        <path d="M74.18,0 L5.82,0 C2.60798566,0.00550474963 0.00550474963,2.60798566 0,5.82 L0,36.18 C0.00550474963,39.3920143 2.60798566,41.9944953 5.82,42 L32.49,42 C33.2006388,42.0069212 33.8575853,41.622742 34.2,41 L38.2,32.88 C38.5174642,32.2245184 39.1816871,31.8081908 39.91,31.8081908 C40.6383129,31.8081908 41.3025358,32.2245184 41.62,32.88 L45.43,40.88 C45.7444326,41.5724005 46.4396483,42.012311 47.2,42 L74.2,42 C77.4042011,41.9835163 79.9945463,39.3842389 80,36.18 L80,5.82 C79.9944953,2.60798566 77.3920143,0.00550474963 74.18,0 Z M22.0137815,30.9573668 C17.9824763,30.975074 14.3382634,28.5603025 12.7832647,24.8409323 C11.228266,21.1215622 12.0693451,16.8315744 14.9136547,13.9747164 C17.7579643,11.1178583 22.0442081,10.2579027 25.7703873,11.7965136 C29.4965665,13.3351244 31.9273567,16.9686721 31.9273955,21.0000162 C31.9274484,26.4822741 27.4959865,30.9332866 22.0137815,30.9573668 Z M58.0137815,30.9573668 C53.9824763,30.975074 50.3382634,28.5603025 48.7832647,24.8409323 C47.228266,21.1215622 48.0693451,16.8315744 50.9136547,13.9747164 C53.7579643,11.1178583 58.0442081,10.2579027 61.7703873,11.7965136 C65.4965665,13.3351244 67.9273567,16.9686721 67.9273955,21.0000162 C67.9274484,26.4822741 63.4959865,30.9332866 58.0137815,30.9573668 Z" id="Shape" fill="#FFFFFF" fill-rule="nonzero"></path>
    </g>
</svg>